<?xml version="1.0" encoding="utf-8"?>
<!-- Generator: Adobe Illustrator 25.3.1, SVG Export Plug-In . SVG Version: 6.00 Build 0)  -->
<svg version="1.1" id="Layer_1" xmlns="http://www.w3.org/2000/svg" xmlns:xlink="http://www.w3.org/1999/xlink" x="0px" y="0px"
	 viewBox="0 0 512 512" style="enable-background:new 0 0 512 512;" xml:space="preserve">
<style type="text/css">
	.st0{fill:#253B49;}
</style>
<g>
	<path class="st0" d="M110.6,37.9h18.2v18.2h-18.2V37.9z"/>
	<path class="st0" d="M37.9,37.9h18.2v18.2H37.9V37.9z"/>
	<path class="st0" d="M183.3,37.9h18.2v18.2h-18.2V37.9z"/>
	<path class="st0" d="M487.7,1.5H24.3C11.7,1.5,1.5,11.7,1.5,24.3v68.2h508.9V24.3C510.5,11.7,500.3,1.5,487.7,1.5z M74.2,65.2
		c0,5-4.1,9.1-9.1,9.1H28.8c-5,0-9.1-4.1-9.1-9.1V28.8c0-5,4.1-9.1,9.1-9.1h36.4c5,0,9.1,4.1,9.1,9.1V65.2z M146.9,65.2
		c0,5-4.1,9.1-9.1,9.1h-36.4c-5,0-9.1-4.1-9.1-9.1V28.8c0-5,4.1-9.1,9.1-9.1h36.4c5,0,9.1,4.1,9.1,9.1V65.2z M219.6,65.2
		c0,5-4.1,9.1-9.1,9.1h-36.4c-5,0-9.1-4.1-9.1-9.1V28.8c0-5,4.1-9.1,9.1-9.1h36.4c5,0,9.1,4.1,9.1,9.1V65.2z"/>
	<path class="st0" d="M37.9,474.1h163.6V365.1H37.9L37.9,474.1z M92.4,410.5h18.2v-18.2c0-5,4.1-9.1,9.1-9.1s9.1,4.1,9.1,9.1v18.2
		h18.2c5,0,9.1,4.1,9.1,9.1c0,5-4.1,9.1-9.1,9.1h-18.2v18.2c0,5-4.1,9.1-9.1,9.1s-9.1-4.1-9.1-9.1v-18.2H92.4c-5,0-9.1-4.1-9.1-9.1
		C83.3,414.6,87.4,410.5,92.4,410.5z"/>
	<path class="st0" d="M128.8,146.9H37.9v90.9h90.9V146.9z M97.7,206.5H69c-7.9,0-14.3-6.3-14.3-14.1s6.4-14.1,14.3-14.1h28.7
		c7.9,0,14.3,6.3,14.3,14.1S105.6,206.5,97.7,206.5z"/>
	<path class="st0" d="M301.4,146.9h-90.9v90.9h90.9V146.9z M269.4,206.5h-26.8c-7.4,0-13.4-6.3-13.4-14.1s6-14.1,13.4-14.1h26.8
		c7.4,0,13.4,6.3,13.4,14.1S276.8,206.5,269.4,206.5z"/>
	<path class="st0" d="M265.1,474.1h209V365.1h-209L265.1,474.1z M446.8,446.8H337.8c-5,0-9.1-4.1-9.1-9.1c0-5,4.1-9.1,9.1-9.1h109.1
		c5,0,9.1,4.1,9.1,9.1C455.9,442.8,451.9,446.8,446.8,446.8z M295.5,392.3H442c6.7,0,12.2,4.1,12.2,9.1c0,5-5.5,9.1-12.2,9.1H295.5
		c-6.7,0-12.2-4.1-12.2-9.1C283.3,396.4,288.7,392.3,295.5,392.3z M292.4,428.7h9.1c5,0,9.1,4.1,9.1,9.1c0,5-4.1,9.1-9.1,9.1h-9.1
		c-5,0-9.1-4.1-9.1-9.1C283.3,432.7,287.3,428.7,292.4,428.7z"/>
	<path class="st0" d="M1.5,110.6v377.1c0,12.5,10.2,22.7,22.7,22.7h463.5c12.5,0,22.7-10.2,22.7-22.7V110.6H1.5z M365.1,283.3
		c0-5,4.1-9.1,9.1-9.1h63.6c5,0,9.1,4.1,9.1,9.1s-4.1,9.1-9.1,9.1h-63.6C369.1,292.4,365.1,288.3,365.1,283.3z M192.4,137.9
		c0-5,4.1-9.1,9.1-9.1h109.1c5,0,9.1,4.1,9.1,9.1v109.1c0,5-4.1,9.1-9.1,9.1H201.5c-5,0-9.1-4.1-9.1-9.1V137.9z M201.5,274.2h63.6
		c5,0,9.1,4.1,9.1,9.1s-4.1,9.1-9.1,9.1h-63.6c-5,0-9.1-4.1-9.1-9.1S196.5,274.2,201.5,274.2z M19.7,137.9c0-5,4.1-9.1,9.1-9.1
		h109.1c5,0,9.1,4.1,9.1,9.1v109.1c0,5-4.1,9.1-9.1,9.1H28.8c-5,0-9.1-4.1-9.1-9.1V137.9z M146.9,319.6c0,5-4.1,9.1-9.1,9.1H74.2
		c-5,0-9.1-4.1-9.1-9.1c0-5,4.1-9.1,9.1-9.1h63.6C142.9,310.5,146.9,314.6,146.9,319.6z M28.8,274.2h63.6c5,0,9.1,4.1,9.1,9.1
		s-4.1,9.1-9.1,9.1H28.8c-5,0-9.1-4.1-9.1-9.1S23.8,274.2,28.8,274.2z M219.6,483.2c0,5-4.1,9.1-9.1,9.1H28.8c-5,0-9.1-4.1-9.1-9.1
		V356c0-5,4.1-9.1,9.1-9.1h181.8c5,0,9.1,4.1,9.1,9.1V483.2z M237.8,319.6c0-5,4.1-9.1,9.1-9.1h63.6c5,0,9.1,4.1,9.1,9.1
		c0,5-4.1,9.1-9.1,9.1h-63.6C241.9,328.7,237.8,324.6,237.8,319.6z M492.3,483.2c0,5-4.1,9.1-9.1,9.1H256c-5,0-9.1-4.1-9.1-9.1V356
		c0-5,4.1-9.1,9.1-9.1h227.2c5,0,9.1,4.1,9.1,9.1V483.2z M483.2,328.7h-63.6c-5,0-9.1-4.1-9.1-9.1c0-5,4.1-9.1,9.1-9.1h63.6
		c5,0,9.1,4.1,9.1,9.1C492.3,324.6,488.2,328.7,483.2,328.7z M492.3,246.9c0,5-4.1,9.1-9.1,9.1H374.1c-5,0-9.1-4.1-9.1-9.1V137.9
		c0-5,4.1-9.1,9.1-9.1h109.1c5,0,9.1,4.1,9.1,9.1V246.9z"/>
	<path class="st0" d="M383.2,237.8h90.9v-90.9h-90.9V237.8z M415.9,179.6h25.5c7.1,0,12.8,5.7,12.8,12.8c0,7.1-5.7,12.8-12.8,12.8
		h-25.5c-7.1,0-12.8-5.7-12.8-12.8C403.1,185.3,408.8,179.6,415.9,179.6z"/>
</g>
</svg>
