<?xml version="1.0" encoding="utf-8"?>
<!-- Generator: Adobe Illustrator 25.3.1, SVG Export Plug-In . SVG Version: 6.00 Build 0)  -->
<svg version="1.1" id="Layer_1" xmlns="http://www.w3.org/2000/svg" xmlns:xlink="http://www.w3.org/1999/xlink" x="0px" y="0px"
	 viewBox="0 0 512 512" style="enable-background:new 0 0 512 512;" xml:space="preserve">
<style type="text/css">
	.st0{fill:#FFFFFF;}
</style>
<g>
	<path class="st0" d="M346.1,3.7c18.6,5.2,31.9,16.7,40.1,34.2c0.6,1.2,0.9,2.5,1.6,4.5l-6.3,0c-105.4,0-210.8,0-316.3,0
		c-16.1,0-23.8,7.6-23.8,23.6c0,121.2,0,242.5,0,363.7l0,6.3c0,0,0,0,0,0c51.1-43.4,102.2-86.8,153.3-130.2c0.9,0,1.9,0,2.8,0
		c49.8,42.1,99.5,84.2,149.3,126.3c0.5,0.7,1.4,0.9,2.2,0.6c0.7-0.3,1.3-0.9,1.3-1.7c-0.1-10.6-0.1-21.1-0.2-31.7
		c10.5,0,20.9,0,31.4,0c0,32.8-0.1,65.6-0.1,98.5c-61.7-49.7-123.4-99.5-185.2-149.2C132.2,402.2,68.1,455.6,4,509.1
		C2.7,254.4,3.4,68.6,4.6,54.3C5,50.5,7.4,33.7,16.4,23.9c0,0,0,0,0,0c6.1-8.3,12.5-12.5,14.4-13.6C41,4.1,51,3.2,56,3.1
		C150.1,2.7,343.6,3,346.1,3.7z"/>
	<path class="st0" d="M371.2,82.2c75.9,0,137.6,61.7,137.5,137.5c-0.1,75.6-61.7,137.1-137.4,137.1c-76,0-137.6-61.7-137.4-137.5
		C234.1,143.4,295.4,82.2,371.2,82.2z M265.9,219.7c0.2,58.1,47.4,105.2,105.5,105c58.2-0.2,105.2-47.3,105.1-105.4
		c-0.1-58.1-47.3-105-105.5-105C312.9,114.4,265.7,161.7,265.9,219.7z"/>
	<path class="st0" d="M352.2,238.5c-12.8,0-25.2,0-37.8,0c0-12.8,0-25.1,0-38c12.6,0,24.9,0,37.7,0c0-12.9,0-25.2,0-37.8
		c12.8,0,25.1,0,37.9,0c0,12.5,0,24.8,0,37.6c12.8,0,25.1,0,37.8,0c0,12.8,0,25.1,0,38.1c-12.4,0-24.8,0-37.7,0c0,13,0,25.3,0,37.8
		c-12.8,0-25.1,0-38,0C352.2,263.7,352.2,251.4,352.2,238.5z"/>
</g>
</svg>
