<?xml version="1.0" encoding="utf-8"?>
<!-- Generator: Adobe Illustrator 25.3.1, SVG Export Plug-In . SVG Version: 6.00 Build 0)  -->
<svg version="1.1" id="Layer_1" xmlns="http://www.w3.org/2000/svg" xmlns:xlink="http://www.w3.org/1999/xlink" x="0px" y="0px"
	 viewBox="0 0 512 512" style="enable-background:new 0 0 512 512;" xml:space="preserve">
<style type="text/css">
	.st0{fill:#253B49;}
</style>
<path d="M156.7,508.5c-0.1-0.1-0.2-0.2-0.3-0.2v0.2H156.7z"/>
<g>
	<g id="surface1_1_">
		<path class="st0" d="M70.1,166.1l-12.3-12.3l17.4-17.4c-3.5-1.7-7.3-2.6-11.2-2.6c-14.5,0-26.2,11.7-26.2,26.2
			c0,14.5,11.7,26.2,26.2,26.2s26.2-11.7,26.2-26.2c0-3.9-0.9-7.7-2.6-11.2L70.1,166.1z"/>
		<path class="st0" d="M70.1,375.7l-12.3-12.3l17.4-17.4c-3.5-1.7-7.3-2.6-11.2-2.6c-14.5,0-26.2,11.7-26.2,26.2
			c0,14.5,11.7,26.2,26.2,26.2s26.2-11.7,26.2-26.2c0-3.9-0.9-7.7-2.6-11.2L70.1,375.7z"/>
		<path class="st0" d="M70.1,270.9l-12.3-12.3l17.4-17.4c-3.5-1.7-7.3-2.6-11.2-2.6c-14.5,0-26.2,11.7-26.2,26.2
			c0,14.5,11.7,26.2,26.2,26.2s26.2-11.7,26.2-26.2c0-3.9-0.9-7.7-2.6-11.2L70.1,270.9z"/>
		<path class="st0" d="M395.7,256c14.9,0,29.6,2.6,43.6,7.6V37.8c0-14.5-11.7-26.2-26.2-26.2H29c-14.5,0-26.2,11.7-26.2,26.2v384.1
			c0,14.5,11.7,26.2,26.2,26.2h250.9c-21.5-40.6-20.1-89.4,3.6-128.7C307.2,280,349.8,256,395.7,256z M282.2,290.9h-69.8v-17.5h69.8
			V290.9z M282.2,256H133.8v-17.5h148.4V256z M194.9,273.5v17.5h-61.1v-17.5H194.9z M194.9,168.7v17.5h-61.1v-17.5H194.9z
			 M133.8,151.2v-17.5h148.4v17.5H133.8z M334.6,256h-34.9v-17.5h34.9V256z M334.6,186.2H212.4v-17.5h122.2V186.2z M386.9,151.2
			h-87.3v-17.5h87.3V151.2z M90.1,29h17.5v17.5H90.1V29z M55.2,29h17.5v17.5H55.2V29z M20.3,29h17.5v17.5H20.3V29z M20.3,63.9h401.6
			v17.5H20.3V63.9z M107.6,369.5c0.1,20.1-13.5,37.6-33,42.6c-19.5,4.9-39.8-4-49.3-21.7c-9.5-17.7-5.8-39.6,9-53.1
			c14.8-13.5,37-15.3,53.7-4.2l22.2-22.2l12.3,12.3l-22.2,22.2C105.1,352.6,107.6,360.9,107.6,369.5z M100.3,240.7
			c12.4,18.7,8.6,43.8-8.8,58.1c-17.4,14.2-42.8,12.9-58.7-2.9c-15.9-15.9-17.2-41.2-2.9-58.7c14.2-17.4,39.3-21.2,58.1-8.8
			l22.2-22.2l12.3,12.3L100.3,240.7z M100.3,135.9c12.4,18.7,8.6,43.8-8.8,58.1c-17.4,14.2-42.8,12.9-58.7-2.9
			c-15.9-15.9-17.2-41.2-2.9-58.7c14.2-17.4,39.3-21.2,58.1-8.8l22.2-22.2l12.3,12.3L100.3,135.9z M194.9,395.7h-61.1v-17.5h61.1
			V395.7z M247.3,395.7h-34.9v-17.5h34.9V395.7z M247.3,360.8H133.8v-17.5h113.5V360.8z"/>
		<path class="st0" d="M395.7,273.5c-62.7,0-113.5,50.8-113.5,113.5S333,500.4,395.7,500.4s113.5-50.8,113.5-113.5
			C509.1,324.3,458.3,273.5,395.7,273.5z M358.2,436.8c-1.6,1.6-3.9,2.6-6.2,2.6c-0.5,0-0.9,0-1.4-0.1c-2.8-0.4-5.2-2.2-6.4-4.7
			l-17.5-34.9l15.6-7.8l12,24.1l96.2-96.2L463,332L358.2,436.8z"/>
	</g>
</g>
</svg>
