<?xml version="1.0" encoding="utf-8"?>
<!-- Generator: Adobe Illustrator 25.4.1, SVG Export Plug-In . SVG Version: 6.00 Build 0)  -->
<svg version="1.1" id="Layer_1" xmlns="http://www.w3.org/2000/svg" xmlns:xlink="http://www.w3.org/1999/xlink" x="0px" y="0px"
	 viewBox="0 0 512 512" style="enable-background:new 0 0 512 512;" xml:space="preserve">
<style type="text/css">
	.st0{fill:#253B49;}
	.st1{fill:#FFFFFF;}
</style>
<g>
	<path class="st0" d="M414.5,42.8h-60.4l-29.6-29.6c-0.2-0.2-0.5-0.4-0.7-0.6c-0.1,0-0.1-0.1-0.2-0.1c-0.3-0.2-0.5-0.4-0.8-0.5
		c0,0,0,0,0,0c-0.3-0.1-0.5-0.3-0.8-0.4c-0.1,0-0.1,0-0.2-0.1c-0.3-0.1-0.6-0.2-0.9-0.3c0,0,0,0-0.1,0c-0.3-0.1-0.6-0.1-0.9-0.1
		c-0.1,0-0.2,0-0.3,0c-0.1,0-0.2,0-0.2,0H97.5c-4,0-7.2,3.2-7.2,7.2v443.8c0,4,3.2,7.2,7.2,7.2H122v24.5c0,4,3.2,7.2,7.2,7.2h285.3
		c4,0,7.2-3.2,7.2-7.2V49.9C421.7,46,418.5,42.8,414.5,42.8L414.5,42.8z M326.6,35.6l38.9,38.9h-38.9V35.6z M407.3,486.6h-271v-17.3
		h26.2c4,0,7.2-3.2,7.2-7.2s-3.2-7.2-7.2-7.2h-33.3c0,0,0,0-0.1,0c0,0,0,0-0.1,0h-24.5V25.4h207.6v56.2c0,4,3.2,7.2,7.2,7.2h56.2
		v366.1H191.2c-4,0-7.2,3.2-7.2,7.2s3.2,7.2,7.2,7.2h191.6c4,0,7.2-3.2,7.2-7.2V81.6c0-0.1,0-0.2,0-0.2c0-0.1,0-0.2,0-0.3
		c0-0.3-0.1-0.6-0.1-0.9c0,0,0,0,0,0c-0.1-0.3-0.2-0.6-0.3-0.9c0-0.1,0-0.1-0.1-0.2c-0.1-0.3-0.2-0.5-0.4-0.8c0,0,0,0,0-0.1
		c-0.1-0.3-0.3-0.5-0.5-0.8c0-0.1-0.1-0.1-0.1-0.2c-0.2-0.2-0.4-0.5-0.6-0.7c0,0,0,0,0,0l-19.4-19.4h38.9L407.3,486.6z"/>
	<path class="st0" d="M208.4,104.7h63.4c4,0,7.2-3.2,7.2-7.2V65.8c0-4-3.2-7.2-7.2-7.2h-63.4c-4,0-7.2,3.2-7.2,7.2v31.7
		C201.3,101.5,204.5,104.7,208.4,104.7L208.4,104.7z M215.6,73h49.1v17.4h-49.1L215.6,73z"/>
	<path class="st0" d="M160.9,136.4h158.5c4,0,7.2-3.2,7.2-7.2s-3.2-7.2-7.2-7.2H160.9c-4,0-7.2,3.2-7.2,7.2
		C153.7,133.2,156.9,136.4,160.9,136.4L160.9,136.4z"/>
	<path class="st0" d="M160.9,168.1h158.5c4,0,7.2-3.2,7.2-7.2c0-4-3.2-7.2-7.2-7.2H160.9c-4,0-7.2,3.2-7.2,7.2
		C153.7,164.9,156.9,168.1,160.9,168.1L160.9,168.1z"/>
	<path class="st0" d="M192.6,185.4c-4,0-7.2,3.2-7.2,7.2s3.2,7.2,7.2,7.2h95.1c4,0,7.2-3.2,7.2-7.2s-3.2-7.2-7.2-7.2H192.6z"/>
	<path class="st0" d="M248.1,342.4c21.4,0,38.9-17.4,38.9-38.9s-17.4-38.9-38.9-38.9s-38.9,17.4-38.9,38.9
		C209.2,325,226.6,342.4,248.1,342.4L248.1,342.4z M248.1,279c13.5,0,24.5,11,24.5,24.5c0,13.5-11,24.5-24.5,24.5
		c-13.5,0-24.5-11-24.5-24.5C223.5,290,234.6,279,248.1,279L248.1,279z"/>
	<path class="st0" d="M200,428.6c0.1,0,0.1,0,0.2,0c2.5-0.1,4.8-1.4,6-3.6l30-51.9c3.9,0.7,7.9,1,11.9,1c4.1,0,8.1-0.4,11.9-1
		l30,51.9c1.2,2.2,3.5,3.5,6,3.6c0.1,0,0.1,0,0.2,0c2.4,0,4.7-1.2,6-3.2l17.6-26.6l31.8-1.9c2.5-0.1,4.7-1.6,5.9-3.8
		c1.2-2.2,1.1-4.8-0.1-7l-40-69.2c0.8-4.3,1.3-8.8,1.3-13.4c0-38.9-31.7-70.6-70.6-70.6s-70.6,31.7-70.6,70.6c0,4.6,0.5,9,1.3,13.4
		l-40,69.2c-1.2,2.2-1.3,4.8-0.1,7s3.4,3.6,5.9,3.8l31.8,1.9l17.6,26.6C195.3,427.4,197.5,428.6,200,428.6L200,428.6z M339.1,383.3
		l-23.8,1.4c-2.3,0.1-4.3,1.3-5.6,3.2l-13.1,19.9l-22.3-38.7c16.1-6.5,29.3-18.7,37-34.1L339.1,383.3z M248.1,247.3
		c31,0,56.2,25.2,56.2,56.2s-25.2,56.2-56.2,56.2s-56.2-25.2-56.2-56.2S217.1,247.3,248.1,247.3L248.1,247.3z M180.9,384.7
		l-23.8-1.4l27.9-48.2c7.7,15.4,20.9,27.6,37,34.1l-22.3,38.7l-13.1-19.9C185.2,386,183.1,384.8,180.9,384.7L180.9,384.7z"/>
	<path class="st0" d="M244.1,310.7h7.9c4,0,7.2-3.2,7.2-7.2s-3.2-7.2-7.2-7.2h-7.9c-4,0-7.2,3.2-7.2,7.2S240.1,310.7,244.1,310.7z"
		/>
</g>
</svg>
