<?xml version="1.0" encoding="utf-8"?>
<!-- Generator: Adobe Illustrator 25.3.1, SVG Export Plug-In . SVG Version: 6.00 Build 0)  -->
<svg version="1.1" id="Layer_1" xmlns="http://www.w3.org/2000/svg" xmlns:xlink="http://www.w3.org/1999/xlink" x="0px" y="0px"
	 viewBox="0 0 512 512" style="enable-background:new 0 0 512 512;" xml:space="preserve">
<style type="text/css">
	.st0{fill:#253B49;}
</style>
<path d="M156.7,508.5c-0.1-0.1-0.2-0.2-0.3-0.2v0.2H156.7z"/>
<g>
	<g>
		<path class="st0" d="M511,238.1H387.5v273H511V238.1z M464.2,456.2h-29.9v-35.9h29.9V456.2z M464.2,392.5h-29.9v-35.9h29.9V392.5z
			 M464.2,328.7h-29.9v-35.9h29.9V328.7z"/>
		<path class="st0" d="M1,238.1v273h123.5v-273L1,238.1z M77.7,456.2H47.8v-35.9h29.9V456.2z M77.7,392.5H47.8v-35.9h29.9V392.5z
			 M47.8,328.7v-35.9h29.9v35.9H47.8z"/>
		<path class="st0" d="M256,408.8c-12.1,0-21.9,9.8-21.9,21.9v80.4h43.8v-80.4C277.9,418.6,268.1,408.8,256,408.8L256,408.8z"/>
		<path class="st0" d="M256,209.5c-7.9,0-14.3,6.4-14.3,14.3s6.4,14.3,14.3,14.3s14.3-6.4,14.3-14.3S263.9,209.5,256,209.5z"/>
		<path class="st0" d="M270.9,109.4V77.8h62.1V0.9h-92v108.4l-86.7,40.5v361.2h49.8v-80.4c0-28.6,23.2-51.8,51.8-51.8
			s51.8,23.2,51.8,51.8v80.4h49.8V149.9L270.9,109.4z M221.1,346.4h-29.9v-47.8h29.9V346.4z M270.9,346.4h-29.9v-47.8h29.9V346.4z
			 M256,268c-24.4,0-44.2-19.8-44.2-44.2s19.8-44.2,44.2-44.2c24.4,0,44.2,19.8,44.2,44.2S280.4,268,256,268z M290.9,346.4v-47.8
			h29.9v47.8H290.9z"/>
	</g>
</g>
</svg>
