<?xml version="1.0" encoding="utf-8"?>
<!-- Generator: Adobe Illustrator 25.3.1, SVG Export Plug-In . SVG Version: 6.00 Build 0)  -->
<svg version="1.1" id="Layer_1" xmlns="http://www.w3.org/2000/svg" xmlns:xlink="http://www.w3.org/1999/xlink" x="0px" y="0px"
	 viewBox="0 0 512 512" style="enable-background:new 0 0 512 512;" xml:space="preserve">
<style type="text/css">
	.st0{fill:#253B49;}
</style>
<path d="M156.7,508.5c-0.1-0.1-0.2-0.2-0.3-0.2v0.2H156.7z"/>
<g>
	<path class="st0" d="M446.1,288.7c0,20-16.2,36.2-36.2,36.2s-36.2-16.2-36.2-36.2c0-20,16.2-36.2,36.2-36.2
		S446.1,268.7,446.1,288.7z"/>
	<path class="st0" d="M138.3,288.7c0,20-16.2,36.2-36.2,36.2s-36.2-16.2-36.2-36.2c0-20,16.2-36.2,36.2-36.2
		S138.3,268.7,138.3,288.7z"/>
	<path class="st0" d="M292.2,252.5c0,20-16.2,36.2-36.2,36.2s-36.2-16.2-36.2-36.2s16.2-36.2,36.2-36.2S292.2,232.5,292.2,252.5z"/>
	<path class="st0" d="M147.6,504c-6-7.8-9.3-17.3-9.3-27.2v-90.5c0-9.2,1.6-18.3,4.7-26.9c-1.6-0.1-3.1-0.3-4.7-0.3H65.9
		c-12.7,0-25.1,3.8-35.6,11c-17.3,11.8-27.7,31.4-27.8,52.4v36.2c0,17.7,10.3,33.7,26.4,41.1c3.1,1.5,6.5,2.6,9.9,3.3v-98.7h18.1
		V504H147.6z"/>
	<path class="st0" d="M348.2,356.5c-4.9-9.1-11.8-16.8-20.3-22.6c-0.8-0.6-1.7-1.2-2.6-1.7c-9.9-6.1-21.4-9.3-33-9.3h-72.4
		c-35,0-63.4,28.4-63.4,63.4v90.5c0,15,12.2,27.2,27.2,27.2h9.1V377.2h18.1V504h90.5V377.2h18.1V504h9.1c15,0,27.2-12.2,27.2-27.2
		v-90.5C355.6,375.9,353,365.7,348.2,356.5z"/>
	<path class="st0" d="M481.8,370.1c-10.5-7.2-22.9-11-35.6-11h-72.4c-1.6,0-3.1,0.2-4.7,0.3c3.1,8.6,4.6,17.7,4.7,26.9v90.5
		c0,9.8-3.3,19.4-9.3,27.2h90.8v-99.6h18.1v98.7c3.4-0.7,6.6-1.8,9.7-3.2c16.1-7.4,26.5-23.4,26.5-41.1v-36.2
		C509.5,401.5,499.1,381.9,481.8,370.1z"/>
	<path class="st0" d="M256,125.7c-37-0.1-71.5,18.8-91.5,49.9c-20,31.2-22.7,70.4-7.1,104H209c-13.3-22.8-8.2-51.9,12-68.9
		c20.2-17,49.7-17,69.9,0c20.2,17,25.3,46,12,68.9h51.7c15.5-33.6,12.8-72.8-7.1-104C327.6,144.5,293,125.6,256,125.7z"/>
	<path class="st0" d="M473.3,198.2h-48.9l-1.8-6.8c-4-15.6-10.2-30.5-18.5-44.2l-3.6-6.1l34.7-34.8c1.7-1.7,2.6-4,2.6-6.4
		s-1-4.7-2.6-6.4l-38.5-38.5c-3.6-3.4-9.1-3.4-12.7,0l-34.8,34.8l-6.1-3.6C329.5,78,314.6,71.8,299,67.8l-6.8-1.8V17.1
		c0-5-4.1-9.1-9.1-9.1h-54.3c-5,0-9.1,4.1-9.1,9.1V66l-6.8,1.8c-15.6,4-30.5,10.2-44.3,18.5l-6.1,3.6l-34.8-34.7
		c-3.6-3.4-9.2-3.4-12.7,0L76.7,93.6c-1.7,1.7-2.6,4-2.6,6.4c0,2.4,1,4.7,2.6,6.4l34.8,34.8l-3.6,6.1c-8.2,13.8-14.5,28.7-18.5,44.2
		l-1.8,6.8H38.7c-5,0-9.1,4.1-9.1,9.1v54.3c0,5,4.1,9.1,9.1,9.1h12.3c5.4-15.3,17.3-27.4,32.6-32.9c15.2-5.6,32.2-4,46.1,4.3
		c-0.1-2.5-0.4-5-0.4-7.5c0-70,56.8-126.8,126.8-126.8s126.8,56.8,126.8,126.8c0,2.5-0.2,5-0.4,7.5c14-8.2,30.9-9.8,46.1-4.3
		c15.2,5.6,27.2,17.6,32.6,32.9h12.3c5,0,9.1-4.1,9.1-9.1v-54.3C482.4,202.2,478.3,198.2,473.3,198.2z"/>
</g>
</svg>
