<?xml version="1.0" encoding="utf-8"?>
<!-- Generator: Adobe Illustrator 25.3.1, SVG Export Plug-In . SVG Version: 6.00 Build 0)  -->
<svg version="1.1" id="Capa_1" xmlns="http://www.w3.org/2000/svg" xmlns:xlink="http://www.w3.org/1999/xlink" x="0px" y="0px"
	 viewBox="0 0 512 512" style="enable-background:new 0 0 512 512;" xml:space="preserve">
<style type="text/css">
	.st0{fill:#FFFFFF;}
	.st1{fill:#253B49;}
</style>
<g>
	<g>
		<g>
			<path class="st0" d="M814.2-1093.3v0.2c-8.2-7.5-20.6-17.8-37-28c-28.3-17.7-74.4-38.8-133.4-38.8l0,0c-8.3,0-15,6.7-15,15v51.6
				h-55c-8.6,0-15.6,7-15.6,15.6v342.6c0,9.1,7.3,16.4,16.4,16.4h476.5c10.5,0,19.1-8.5,19.1-19.1v-337.1c0-10.2-8.2-18.4-18.4-18.4
				H814.2z M578.6-739.1v-334.7h48.7v274.9c0,7.8,6.3,14.1,14.1,14.1h3.9c69.3,0,122.2,23.8,156.2,45.6H578.6L578.6-739.1z
				 M803.1-756.9c-12.2-9-23.6-16-32.5-21c-38.6-21.5-80-33.6-123.2-36.1v-325.7c39.7,2.6,77.5,14.3,112.6,35
				c21.6,12.8,36.4,25.7,43,32.1L803.1-756.9L803.1-756.9z M1033-740.6H823.8v-330.8h217.2c5,0,9.1,4.1,9.1,9.1v304.6
				C1050.1-748.3,1042.4-740.6,1033-740.6z"/>
		</g>
	</g>
</g>
<g>
	<path class="st0" d="M917.2-1035.2c2.7,0,4.8-2.1,4.8-4.8c0-2.7-2.2-4.8-4.8-4.8h0c-2.7,0-4.8,2.1-4.8,4.8
		C912.4-1037.4,914.5-1035.2,917.2-1035.2z"/>
	<path class="st0" d="M931.5-1035.2h14.4c2.7,0,4.8-2.1,4.8-4.8c0-2.7-2.1-4.8-4.8-4.8h-14.4c-2.7,0-4.8,2.1-4.8,4.8
		C926.7-1037.4,928.8-1035.2,931.5-1035.2z"/>
	<path class="st0" d="M989.3-1059.3C989.2-1059.3,989.2-1059.3,989.3-1059.3l-115.5,0c-15.9,0-28.9,12.9-28.9,28.9v245.3
		c0,18.6,15.1,33.7,33.7,33.7h105.8c18.6,0,33.7-15.1,33.7-33.7v-245.3C1018.1-1046.3,1005.1-1059.2,989.3-1059.3z M876.9-1048.4
		h109c0,0,0,0,0,0c10,0,18.2,7.5,18.2,16.7H858.8v0C858.8-1040.9,866.9-1048.4,876.9-1048.4L876.9-1048.4z M981.9-781.5h-50.5H881
		c-12.6,0-22.9-9.9-22.9-22.1v-4.4h73.4h73.4v4.4C1004.9-791.4,994.6-781.5,981.9-781.5z M856.4-1018.4h150.2v197.1H856.4V-1018.4z
		 M984.4-761.1H878.6c-11.6,0-21.3-8.9-23.6-20.8c6.1,6.4,14.4,10.4,23.6,10.4h105.8c9.2,0,17.5-4,23.6-10.4
		C1005.7-770.1,996-761.1,984.4-761.1z"/>
	<path class="st0" d="M941.8-794.8c0-5.7-4.6-10.3-10.3-10.3s-10.3,4.6-10.3,10.3s4.6,10.3,10.3,10.3S941.8-789.1,941.8-794.8z
		 M931.5-791.3c-1.9,0-3.4-1.5-3.4-3.4c0-1.9,1.5-3.4,3.4-3.4c1.9,0,3.4,1.5,3.4,3.4C934.9-792.9,933.4-791.3,931.5-791.3z"/>
	<path class="st0" d="M988.8-979.3c-0.2-0.6-0.6-1.1-1.1-1.6l-24-24c-0.5-0.5-1-0.8-1.6-1.1c-0.5-0.2-1-0.3-1.6-0.3
		c-0.1,0-0.2,0-0.3,0h-81.7c0,0,0,0-0.1,0c-2.7,0-4.8,2.1-4.8,4.8v163.5c0,2.7,2.2,4.8,4.8,4.8h105.8c2.7,0,4.8-2.2,4.8-4.8v-139.4
		C989.2-978.1,989.1-978.8,988.8-979.3z M958.9-996.2L979-976h-20.2V-996.2z M902.6-948.7h57.7c2.7,0,4.8,2.2,4.8,4.8
		c0,2.7-2.1,4.8-4.8,4.8h-57.7c-2.7,0-4.8-2.1-4.8-4.8C897.8-946.5,900-948.7,902.6-948.7z M902.6-934.2h57.7c2.7,0,4.8,2.2,4.8,4.8
		c0,2.7-2.1,4.8-4.8,4.8h-57.7c-2.7,0-4.8-2.2-4.8-4.8C897.8-932.1,900-934.2,902.6-934.2z M902.6-919.8h57.7c2.7,0,4.8,2.1,4.8,4.8
		c0,2.7-2.1,4.8-4.8,4.8h-57.7c-2.7,0-4.8-2.2-4.8-4.8C897.8-917.7,900-919.8,902.6-919.8z M902.6-905.4h28.9c2.7,0,4.8,2.1,4.8,4.8
		c0,2.7-2.2,4.8-4.8,4.8h-28.9c-2.7,0-4.8-2.2-4.8-4.8C897.8-903.2,900-905.4,902.6-905.4z M979.6-842.9h-96.2v-4.8h96.2V-842.9z
		 M979.6-857.3h-96.2v-4.8h96.2V-857.3z"/>
</g>
<g>
	<g>
		<g>
			<path class="st1" d="M263-1093.3v0.2c-8.2-7.5-20.6-17.8-37-28c-28.3-17.7-74.4-38.8-133.4-38.8h0c-8.3,0-15,6.7-15,15v51.6h-55
				c-8.6,0-15.6,7-15.6,15.6v342.6c0,9.1,7.3,16.4,16.4,16.4h476.5c10.5,0,19.1-8.5,19.1-19.1v-337.1c0-10.2-8.2-18.4-18.4-18.4H263
				z M27.4-739.1v-334.7h48.7v274.9c0,7.8,6.3,14.1,14.1,14.1h3.9c69.3,0,122.2,23.8,156.2,45.6H27.4L27.4-739.1z M251.9-756.9
				c-12.2-9-23.6-16-32.5-21c-38.6-21.5-80-33.6-123.2-36.1v-325.7c39.7,2.6,77.5,14.3,112.6,35c21.6,12.8,36.4,25.7,43,32.1
				L251.9-756.9L251.9-756.9z M481.8-740.6H272.5v-330.8h217.2c5,0,9.1,4.1,9.1,9.1v304.6C498.8-748.3,491.2-740.6,481.8-740.6z"/>
		</g>
	</g>
</g>
<g>
	<path class="st1" d="M365.8-1035.2c2.7,0,4.8-2.1,4.8-4.8c0-2.7-2.2-4.8-4.8-4.8h0c-2.7,0-4.8,2.1-4.8,4.8
		C361-1037.4,363.2-1035.2,365.8-1035.2z"/>
	<path class="st1" d="M380.1-1035.2h14.4c2.7,0,4.8-2.1,4.8-4.8c0-2.7-2.1-4.8-4.8-4.8h-14.4c-2.7,0-4.8,2.1-4.8,4.8
		C375.3-1037.4,377.5-1035.2,380.1-1035.2z"/>
	<path class="st1" d="M437.9-1059.3C437.9-1059.3,437.9-1059.3,437.9-1059.3l-115.5,0c-15.9,0-28.9,12.9-28.9,28.9v245.3
		c0,18.6,15.1,33.7,33.7,33.7H433c18.6,0,33.7-15.1,33.7-33.7v-245.3C466.7-1046.3,453.8-1059.2,437.9-1059.3z M325.6-1048.4h109
		c0,0,0,0,0,0c10,0,18.2,7.5,18.2,16.7H307.4v0C307.4-1040.9,315.6-1048.4,325.6-1048.4L325.6-1048.4z M430.6-781.5h-50.5h-50.5
		c-12.6,0-22.9-9.9-22.9-22.1v-4.4h73.4h73.4v4.4C453.5-791.4,443.2-781.5,430.6-781.5z M305-1018.4h150.2v197.1H305V-1018.4z
		 M433-761.1H327.2c-11.6,0-21.3-8.9-23.6-20.8c6.1,6.4,14.4,10.4,23.6,10.4H433c9.2,0,17.5-4,23.6-10.4
		C454.4-770.1,444.7-761.1,433-761.1z"/>
	<path class="st1" d="M390.4-794.8c0-5.7-4.6-10.3-10.3-10.3c-5.7,0-10.3,4.6-10.3,10.3s4.6,10.3,10.3,10.3
		C385.8-784.5,390.4-789.1,390.4-794.8z M380.1-791.3c-1.9,0-3.4-1.5-3.4-3.4c0-1.9,1.5-3.4,3.4-3.4c1.9,0,3.4,1.5,3.4,3.4
		C383.6-792.9,382-791.3,380.1-791.3z"/>
	<path class="st1" d="M437.5-979.3c-0.2-0.6-0.6-1.1-1-1.6l-24-24c-0.5-0.5-1-0.8-1.6-1.1c-0.5-0.2-1-0.3-1.6-0.3
		c-0.1,0-0.2-0.1-0.3-0.1h-81.7c0,0,0,0,0,0c-2.7,0-4.8,2.1-4.8,4.8v163.5c0,2.7,2.1,4.8,4.8,4.8H433c2.7,0,4.8-2.1,4.8-4.8v-139.4
		C437.8-978.1,437.7-978.8,437.5-979.3z M407.5-996.2l20.2,20.2h-20.2V-996.2z M428.2-862.1v4.8H332v-4.8H428.2z M332-847.7h96.2
		v4.8H332V-847.7z"/>
	<path class="st0" d="M351.3-939H409c2.7,0,4.8-2.1,4.8-4.8c0-2.7-2.1-4.8-4.8-4.8h-57.7c-2.7,0-4.8,2.1-4.8,4.8
		C346.5-941.2,348.6-939,351.3-939L351.3-939z"/>
	<path class="st0" d="M351.3-924.6H409c2.7,0,4.8-2.1,4.8-4.8c0-2.7-2.1-4.8-4.8-4.8h-57.7c-2.7,0-4.8,2.1-4.8,4.8
		C346.5-926.8,348.6-924.6,351.3-924.6L351.3-924.6z"/>
	<path class="st0" d="M351.3-910.2H409c2.7,0,4.8-2.1,4.8-4.8c0-2.7-2.1-4.8-4.8-4.8h-57.7c-2.7,0-4.8,2.1-4.8,4.8
		C346.5-912.3,348.6-910.2,351.3-910.2L351.3-910.2z"/>
	<path class="st0" d="M380.1-905.4h-28.9c-2.7,0-4.8,2.1-4.8,4.8s2.1,4.8,4.8,4.8h28.9c2.7,0,4.8-2.1,4.8-4.8
		S382.8-905.4,380.1-905.4z"/>
</g>
<g>
	<path class="st0" d="M1026.3-420c-1.3,0-2.5,0-3.8,0.1c-5.4-17.7-15.8-33.1-29.4-44.8V-555c0-15.8-12.9-28.7-28.7-28.7H650.2
		c-24.3,0-44.1,19.8-44.1,44.1v402.2c0,24.3,19.8,44.1,44.1,44.1h314.1c15.8,0,28.7-12.9,28.7-28.7v-157.4h33.2
		c38.7,0,70.2-31.5,70.2-70.2C1096.5-388.5,1065-420,1026.3-420z M962-335.8v56h10.1v0.2h1.8v88.5c0,5.3-4.3,9.6-9.6,9.6h-82.8
		c-5.3,0-9.6,4.3-9.6,9.6c0,5.3,4.3,9.6,9.6,9.6h82.8c3.4,0,6.6-0.6,9.6-1.6v41.9c0,5.3-4.3,9.6-9.6,9.6H650.2
		c-13.7,0-24.9-11.2-24.9-24.9c0-13.7,11.2-24.9,24.9-24.9h149.4c5.3,0,9.6-4.3,9.6-9.6c0-5.3-4.3-9.6-9.6-9.6h-113v-274.4
		c0-5.3-4.3-9.6-9.6-9.6c-5.3,0-9.6,4.3-9.6,9.6v274.4h-17.2c-9.2,0-17.8,2.9-24.9,7.7v-365.9c0-13.7,11.2-24.9,24.9-24.9h314.1
		c5.3,0,9.6,4.3,9.6,9.6v77.5c-13.2-6.8-28.1-10.5-43.6-10.5c-43.4,0-81.5,29.4-92.9,70.7c-30,8.4-51.2,35.9-51.2,67.6
		c0,38.7,31.5,70.2,70.2,70.2h37.2v-0.2h20.6v-55.7h-36c19.8-21.8,39.5-43.7,59.3-65.5c20.3,21.8,40.7,43.5,61,65.2H962z"/>
	<path class="st0" d="M849.4-171.9c0,2.5-1,5-2.8,6.8c-1.8,1.8-4.2,2.8-6.8,2.8c-2.5,0-5-1-6.8-2.8c-1.8-1.8-2.8-4.3-2.8-6.8
		c0-2.5,1-5,2.8-6.8c1.8-1.8,4.2-2.8,6.8-2.8c2.5,0,5,1,6.8,2.8C848.4-176.9,849.4-174.5,849.4-171.9z"/>
</g>
<g>
	<path class="st1" d="M437.9-420c-1.3,0-2.5,0-3.8,0.1c-5.4-17.7-15.8-33.1-29.4-44.8V-555c0-15.8-12.9-28.7-28.7-28.7H61.9
		c-24.3,0-44,19.8-44,44.1v402.2c0,24.3,19.8,44.1,44,44.1H376c15.8,0,28.7-12.9,28.7-28.7v-157.4h33.2c38.7,0,70.2-31.5,70.2-70.2
		C508.1-388.5,476.6-420,437.9-420z M373.6-335.8v56h10.1v0.2h1.8v88.5c0,5.3-4.3,9.6-9.6,9.6h-82.8c-5.3,0-9.6,4.3-9.6,9.6
		c0,5.3,4.3,9.6,9.6,9.6H376c3.4,0,6.6-0.6,9.6-1.6v41.9c0,5.3-4.3,9.6-9.6,9.6H61.9c-13.7,0-24.9-11.2-24.9-24.9
		c0-13.7,11.2-24.9,24.9-24.9h149.4c5.3,0,9.6-4.3,9.6-9.6c0-5.3-4.3-9.6-9.6-9.6h-113v-274.4c0-5.3-4.3-9.6-9.6-9.6
		c-5.3,0-9.6,4.3-9.6,9.6v274.4H61.9c-9.2,0-17.8,2.9-24.9,7.7v-365.9c0-13.7,11.2-24.9,24.9-24.9H376c5.3,0,9.6,4.3,9.6,9.6v77.5
		c-13.2-6.8-28.1-10.5-43.6-10.5c-43.4,0-81.5,29.4-92.9,70.7c-30,8.4-51.2,35.9-51.2,67.6c0,38.7,31.5,70.2,70.2,70.2h37.2v-0.2
		h20.6v-55.7h-36c19.8-21.8,39.5-43.7,59.3-65.5c20.3,21.8,40.7,43.5,61,65.2H373.6z"/>
	<path class="st1" d="M261-171.9c0,2.5-1,5-2.8,6.8c-1.8,1.8-4.3,2.8-6.8,2.8c-2.5,0-5-1-6.8-2.8c-1.8-1.8-2.8-4.3-2.8-6.8
		c0-2.5,1-5,2.8-6.8c1.8-1.8,4.2-2.8,6.8-2.8c2.5,0,5,1,6.8,2.8C260-176.9,261-174.5,261-171.9z"/>
</g>
<path class="st0" d="M1028.3,279.8h51.8c5.9,0,11.1-3.5,13.4-8.9c2.2-5.3,1-11.4-2.9-15.6c-0.1-0.1-0.1-0.2-0.2-0.2
	c-26.3-25.2-26.3-70.6,0-95.8c0.1-0.1,0.1-0.1,0.2-0.2c4-4.1,5.1-10.2,2.9-15.6c-2.2-5.4-7.5-8.9-13.4-8.9h-51.8
	c-22.6-25.7-20.9-67.8,3.9-91.6c4.1-4.1,5.4-10.4,3.1-15.8c-2.2-5.4-7.5-8.9-13.4-8.9H651.2c-28,0-50.8,22.8-50.8,50.8v43.6
	c0,28,22.8,50.8,50.8,50.8h12.3c-3.2,6.6-5,14-5,21.9v43.6c0,7.8,1.8,15.2,5,21.9h-12.3c-28,0-50.8,22.8-50.8,50.8v43.6
	c0,28,22.8,50.8,50.8,50.8h12.3c-3.2,6.6-5,14-5,21.9v43.6c0,28,22.8,50.8,50.8,50.8h370.7c5.9,0,11.1-3.5,13.4-8.9
	c2.2-5.3,1-11.4-2.9-15.6c-0.1-0.1-0.1-0.2-0.2-0.2c-26.3-25.2-26.3-70.6,0-95.8c0.1-0.1,0.1-0.1,0.2-0.2c4-4.1,5.1-10.2,2.9-15.6
	c-2.2-5.4-7.5-8.9-13.4-8.9h-51.8C1007.1,343,1007.1,303.9,1028.3,279.8z M624.3,112.5V64c0-13.4,10.2-24.3,22.7-24.3h355
	c-14.3,29.4-14.3,67.6,0,97h-355C634.4,136.8,624.3,125.9,624.3,112.5z M763.8,158.6h46.1v44.6l-13.4-6.2c-8.3-3.9-15.8-1.7-19.3,0
	l-13.4,6.2L763.8,158.6L763.8,158.6z M677.5,229.5v-47.3c0-13.1,10.4-23.7,23.1-23.7h38.4v55.3c0,5.4,2.7,10.4,7.1,13.2
	c4.4,2.9,9.9,3.3,14.7,1l24.2-11.6l24.2,11.6c2,1,8.2,3.2,14.7-1c4.4-2.9,7.1-7.9,7.1-13.2v-55.3h231.1c-14.5,28.8-14.5,66,0,94.8
	H700.5C687.8,253.2,677.5,242.6,677.5,229.5L677.5,229.5z M885.5,275.9h45.6v44l-13.2-6.2c-3.5-1.6-10.9-3.8-19.1,0l-13.2,6.2V275.9
	z M1060.9,491.4H707.2c-12.5,0-22.6-11.1-22.6-24.8v-49.5c0-13.7,10.1-24.8,22.6-24.8h353.7C1046.7,422.3,1046.7,461.3,1060.9,491.4
	z M646.9,368.9c-12.5,0-22.6-10.4-22.6-23.1v-46.1c0-12.7,10.2-23.1,22.6-23.1h218.2v53.8c0,5.2,2.6,10.1,6.9,12.9
	c4.3,2.8,9.7,3.2,14.4,1l23.7-11.3l23.7,11.3c1.9,0.9,8.1,3.2,14.4-1c4.3-2.8,6.9-7.7,6.9-12.9v-53.8h46.1
	c-14.2,28-14.2,64.3,0,92.3H646.9z"/>
<path class="st1" d="M436.8,270.5h51.8c5.9,0,11.1-3.5,13.4-8.9c2.2-5.3,1-11.4-2.9-15.6c-0.1-0.1-0.1-0.2-0.2-0.2
	c-26.3-25.2-26.3-70.6,0-95.8c0.1-0.1,0.1-0.1,0.2-0.2c4-4.1,5.1-10.2,2.9-15.6c-2.2-5.4-7.5-8.9-13.4-8.9h-51.8
	c-22.6-25.7-20.9-67.8,3.9-91.6c4.1-4.1,5.4-10.4,3.1-15.8c-2.2-5.4-7.5-8.9-13.4-8.9H59.7c-28,0-50.8,22.8-50.8,50.8v43.6
	c0,28,22.8,50.8,50.8,50.8H72c-3.2,6.6-5,14-5,21.9v43.6c0,7.8,1.8,15.2,5,21.9H59.7c-28,0-50.8,22.8-50.8,50.8V336
	c0,28,22.8,50.8,50.8,50.8H72c-3.2,6.6-5,14-5,21.9v43.6c0,28,22.8,50.8,50.8,50.8h370.7c5.9,0,11.1-3.5,13.4-8.9
	c2.2-5.3,1-11.4-2.9-15.6c-0.1-0.1-0.1-0.2-0.2-0.2c-26.3-25.2-26.3-70.6,0-95.8c0.1-0.1,0.1-0.1,0.2-0.2c4-4.1,5.1-10.2,2.9-15.6
	c-2.2-5.4-7.5-8.9-13.4-8.9h-51.8C415.7,333.7,415.7,294.6,436.8,270.5z M32.8,103.2V54.7c0-13.4,10.2-24.3,22.7-24.3h355
	c-14.3,29.4-14.3,67.6,0,97h-355C42.9,127.5,32.8,116.6,32.8,103.2z M172.3,149.4h46.1v44.6l-13.4-6.2c-8.3-3.9-15.8-1.7-19.3,0
	l-13.4,6.2L172.3,149.4L172.3,149.4z M86,220.2v-47.3c0-13.1,10.4-23.7,23.1-23.7h38.4v55.3c0,5.4,2.7,10.4,7.1,13.2
	c4.4,2.9,9.9,3.3,14.7,1l24.2-11.6l24.2,11.6c2,1,8.2,3.2,14.7-1c4.4-2.9,7.1-7.9,7.1-13.2v-55.3h231.1c-14.5,28.8-14.5,66,0,94.8
	H109.1C96.3,243.9,86,233.3,86,220.2L86,220.2z M294.1,266.6h45.6v44l-13.2-6.2c-3.5-1.6-10.9-3.8-19.1,0l-13.2,6.2V266.6z
	 M469.4,482.1H115.7c-12.5,0-22.6-11.1-22.6-24.8v-49.5c0-13.7,10.1-24.8,22.6-24.8h353.7C455.2,413,455.2,452,469.4,482.1z
	 M55.4,359.6c-12.5,0-22.6-10.4-22.6-23.1v-46.1c0-12.7,10.2-23.1,22.6-23.1h218.2v53.8c0,5.2,2.6,10.1,6.9,12.9
	c4.3,2.8,9.7,3.2,14.4,1l23.7-11.3l23.7,11.3c1.9,0.9,8.1,3.2,14.4-1c4.3-2.8,6.9-7.7,6.9-12.9v-53.8h46.1
	c-14.2,28-14.2,64.3,0,92.3H55.4z"/>
</svg>
