<?xml version="1.0" encoding="utf-8"?>
<!-- Generator: Adobe Illustrator 25.3.1, SVG Export Plug-In . SVG Version: 6.00 Build 0)  -->
<svg version="1.1" id="Capa_1" xmlns="http://www.w3.org/2000/svg" xmlns:xlink="http://www.w3.org/1999/xlink" x="0px" y="0px"
	 viewBox="0 0 512 512" style="enable-background:new 0 0 512 512;" xml:space="preserve">
<style type="text/css">
	.st0{fill:#FFFFFF;}
	.st1{fill:#253B49;}
</style>
<g>
	<g>
		<g>
			<path class="st0" d="M222.7-1102.6v0.2c-8.2-7.5-20.6-17.8-37-28c-28.3-17.7-74.4-38.8-133.4-38.8h0c-8.3,0-15,6.7-15,15v51.6
				h-55c-8.6,0-15.6,7-15.6,15.6v342.6c0,9.1,7.3,16.4,16.4,16.4h476.5c10.5,0,19.1-8.5,19.1-19.1v-337.1c0-10.2-8.2-18.4-18.4-18.4
				H222.7z M-12.9-748.4v-334.7h48.7v274.9c0,7.8,6.3,14.1,14.1,14.1h3.9c69.3,0,122.2,23.8,156.2,45.6L-12.9-748.4L-12.9-748.4z
				 M211.7-766.2c-12.2-9-23.6-16-32.5-21c-38.6-21.5-80-33.6-123.2-36.1V-1149c39.7,2.6,77.5,14.3,112.6,35
				c21.6,12.8,36.4,25.7,43,32.1L211.7-766.2L211.7-766.2z M441.5-749.9H232.3v-330.8h217.2c5,0,9.1,4.1,9.1,9.1V-767
				C458.6-757.6,451-749.9,441.5-749.9z"/>
		</g>
	</g>
</g>
<g>
	<path class="st0" d="M325.7-1044.5c2.7,0,4.8-2.1,4.8-4.8s-2.2-4.8-4.8-4.8h0c-2.7,0-4.8,2.1-4.8,4.8S323.1-1044.5,325.7-1044.5z"
		/>
	<path class="st0" d="M340-1044.5h14.4c2.7,0,4.8-2.1,4.8-4.8s-2.1-4.8-4.8-4.8H340c-2.7,0-4.8,2.1-4.8,4.8S337.3-1044.5,340-1044.5
		z"/>
	<path class="st0" d="M397.8-1068.6C397.8-1068.6,397.7-1068.6,397.8-1068.6l-115.5,0c-15.9,0-28.9,12.9-28.9,28.9v245.3
		c0,18.6,15.1,33.7,33.7,33.7h105.8c18.6,0,33.7-15.1,33.7-33.7v-245.3C426.6-1055.6,413.7-1068.5,397.8-1068.6z M285.5-1057.7h109
		c0,0,0,0,0,0c10,0,18.2,7.5,18.2,16.7H267.3v0C267.3-1050.2,275.4-1057.7,285.5-1057.7L285.5-1057.7z M390.5-790.8H340h-50.5
		c-12.6,0-22.9-9.9-22.9-22.1v-4.4H340h73.4v4.4C413.4-800.7,403.1-790.8,390.5-790.8z M264.9-1027.6h150.2v197.1H264.9V-1027.6z
		 M392.9-770.4H287.1c-11.6,0-21.3-8.9-23.6-20.8c6.1,6.4,14.4,10.4,23.6,10.4h105.8c9.2,0,17.5-4,23.6-10.4
		C414.2-779.3,404.5-770.4,392.9-770.4z"/>
	<path class="st0" d="M350.3-804.1c0-5.7-4.6-10.3-10.3-10.3s-10.3,4.6-10.3,10.3c0,5.7,4.6,10.3,10.3,10.3S350.3-798.4,350.3-804.1
		z M340-800.6c-1.9,0-3.4-1.5-3.4-3.4c0-1.9,1.5-3.4,3.4-3.4s3.4,1.5,3.4,3.4C343.4-802.2,341.9-800.6,340-800.6z"/>
	<path class="st0" d="M397.3-988.6c-0.2-0.6-0.6-1.1-1.1-1.6l-24-24c-0.5-0.5-1-0.8-1.6-1.1c-0.5-0.2-1-0.3-1.6-0.3
		c-0.1,0-0.2,0-0.3,0h-81.7c0,0,0,0-0.1,0c-2.7,0-4.8,2.1-4.8,4.8v163.5c0,2.7,2.2,4.8,4.8,4.8h105.8c2.7,0,4.8-2.2,4.8-4.8v-139.4
		C397.7-987.4,397.6-988,397.3-988.6z M367.4-1005.5l20.2,20.2h-20.2V-1005.5z M311.1-958h57.7c2.7,0,4.8,2.2,4.8,4.8
		c0,2.7-2.1,4.8-4.8,4.8h-57.7c-2.7,0-4.8-2.1-4.8-4.8C306.3-955.8,308.5-958,311.1-958z M311.1-943.5h57.7c2.7,0,4.8,2.2,4.8,4.8
		c0,2.7-2.1,4.8-4.8,4.8h-57.7c-2.7,0-4.8-2.2-4.8-4.8C306.3-941.4,308.5-943.5,311.1-943.5z M311.1-929.1h57.7
		c2.7,0,4.8,2.1,4.8,4.8c0,2.7-2.1,4.8-4.8,4.8h-57.7c-2.7,0-4.8-2.2-4.8-4.8C306.3-927,308.5-929.1,311.1-929.1z M311.1-914.7H340
		c2.7,0,4.8,2.1,4.8,4.8c0,2.7-2.2,4.8-4.8,4.8h-28.9c-2.7,0-4.8-2.2-4.8-4.8C306.3-912.5,308.5-914.7,311.1-914.7z M388.1-852.2
		h-96.2v-4.8h96.2V-852.2z M388.1-866.6h-96.2v-4.8h96.2V-866.6z"/>
</g>
<g>
	<g>
		<g>
			<path class="st1" d="M-328.5-1102.6v0.2c-8.2-7.5-20.6-17.8-37-28c-28.3-17.7-74.4-38.8-133.4-38.8h0c-8.3,0-15,6.7-15,15v51.6
				h-55c-8.6,0-15.6,7-15.6,15.6v342.6c0,9.1,7.3,16.4,16.4,16.4h476.5c10.5,0,19.1-8.5,19.1-19.1v-337.1c0-10.2-8.2-18.4-18.4-18.4
				H-328.5z M-564.1-748.4v-334.7h48.7v274.9c0,7.8,6.3,14.1,14.1,14.1h3.9c69.3,0,122.2,23.8,156.2,45.6L-564.1-748.4L-564.1-748.4
				z M-339.6-766.2c-12.2-9-23.6-16-32.5-21c-38.6-21.5-80-33.6-123.2-36.1V-1149c39.7,2.6,77.5,14.3,112.6,35
				c21.6,12.8,36.4,25.7,43,32.1V-766.2L-339.6-766.2z M-109.7-749.9H-319v-330.8h217.2c5,0,9.1,4.1,9.1,9.1V-767
				C-92.6-757.6-100.3-749.9-109.7-749.9z"/>
		</g>
	</g>
</g>
<g>
	<path class="st1" d="M-225.6-1044.5c2.7,0,4.8-2.1,4.8-4.8s-2.2-4.8-4.8-4.8h0c-2.7,0-4.8,2.1-4.8,4.8S-228.3-1044.5-225.6-1044.5z
		"/>
	<path class="st1" d="M-211.4-1044.5h14.4c2.7,0,4.8-2.1,4.8-4.8s-2.1-4.8-4.8-4.8h-14.4c-2.7,0-4.8,2.1-4.8,4.8
		S-214-1044.5-211.4-1044.5z"/>
	<path class="st1" d="M-153.6-1068.6C-153.6-1068.6-153.6-1068.6-153.6-1068.6l-115.5,0c-15.9,0-28.9,12.9-28.9,28.9v245.3
		c0,18.6,15.1,33.7,33.7,33.7h105.8c18.6,0,33.7-15.1,33.7-33.7v-245.3C-124.8-1055.6-137.7-1068.5-153.6-1068.6z M-265.9-1057.7
		h109c0,0,0,0,0,0c10,0,18.2,7.5,18.2,16.7h-145.4v0C-284.1-1050.2-275.9-1057.7-265.9-1057.7L-265.9-1057.7z M-160.9-790.8h-50.5
		h-50.5c-12.6,0-22.9-9.9-22.9-22.1v-4.4h73.4h73.4v4.4C-138-800.7-148.3-790.8-160.9-790.8z M-286.4-1027.6h150.2v197.1h-150.2
		V-1027.6z M-158.5-770.4h-105.8c-11.6,0-21.3-8.9-23.6-20.8c6.1,6.4,14.4,10.4,23.6,10.4h105.8c9.2,0,17.5-4,23.6-10.4
		C-137.1-779.3-146.8-770.4-158.5-770.4z"/>
	<path class="st1" d="M-201.1-804.1c0-5.7-4.6-10.3-10.3-10.3s-10.3,4.6-10.3,10.3c0,5.7,4.6,10.3,10.3,10.3
		S-201.1-798.4-201.1-804.1z M-211.4-800.6c-1.9,0-3.4-1.5-3.4-3.4c0-1.9,1.5-3.4,3.4-3.4c1.9,0,3.4,1.5,3.4,3.4
		C-207.9-802.2-209.5-800.6-211.4-800.6z"/>
	<path class="st1" d="M-154-988.6c-0.2-0.6-0.6-1.1-1-1.6l-24-24c-0.5-0.5-1-0.8-1.6-1.1c-0.5-0.2-1-0.3-1.6-0.3
		c-0.1,0-0.2-0.1-0.3-0.1h-81.7c0,0,0,0,0,0c-2.7,0-4.8,2.1-4.8,4.8v163.5c0,2.7,2.1,4.8,4.8,4.8h105.8c2.7,0,4.8-2.1,4.8-4.8
		v-139.4C-153.7-987.4-153.8-988-154-988.6z M-184-1005.5l20.2,20.2H-184V-1005.5z M-163.3-871.4v4.8h-96.2v-4.8H-163.3z
		 M-259.4-857h96.2v4.8h-96.2V-857z"/>
	<path class="st0" d="M-240.2-948.3h57.7c2.7,0,4.8-2.1,4.8-4.8c0-2.7-2.1-4.8-4.8-4.8h-57.7c-2.7,0-4.8,2.1-4.8,4.8
		C-245-950.5-242.9-948.3-240.2-948.3L-240.2-948.3z"/>
	<path class="st0" d="M-240.2-933.9h57.7c2.7,0,4.8-2.1,4.8-4.8c0-2.7-2.1-4.8-4.8-4.8h-57.7c-2.7,0-4.8,2.1-4.8,4.8
		C-245-936.1-242.9-933.9-240.2-933.9L-240.2-933.9z"/>
	<path class="st0" d="M-240.2-919.5h57.7c2.7,0,4.8-2.1,4.8-4.8c0-2.7-2.1-4.8-4.8-4.8h-57.7c-2.7,0-4.8,2.1-4.8,4.8
		C-245-921.6-242.9-919.5-240.2-919.5L-240.2-919.5z"/>
	<path class="st0" d="M-211.4-914.7h-28.9c-2.7,0-4.8,2.1-4.8,4.8c0,2.7,2.1,4.8,4.8,4.8h28.9c2.7,0,4.8-2.1,4.8-4.8
		C-206.5-912.5-208.7-914.7-211.4-914.7z"/>
</g>
<g>
	<path class="st0" d="M434.8-429.3c-1.3,0-2.5,0-3.8,0.1c-5.4-17.7-15.8-33.1-29.4-44.8v-90.3c0-15.8-12.9-28.7-28.7-28.7H58.8
		c-24.3,0-44.1,19.8-44.1,44.1v402.2c0,24.3,19.8,44.1,44.1,44.1h314.1c15.8,0,28.7-12.9,28.7-28.7v-157.4h33.2
		c38.7,0,70.2-31.5,70.2-70.2C505-397.8,473.5-429.3,434.8-429.3z M370.5-345v56h10.1v0.2h1.8v88.5c0,5.3-4.3,9.6-9.6,9.6H290
		c-5.3,0-9.6,4.3-9.6,9.6c0,5.3,4.3,9.6,9.6,9.6h82.8c3.4,0,6.6-0.6,9.6-1.6v41.9c0,5.3-4.3,9.6-9.6,9.6H58.8
		c-13.7,0-24.9-11.2-24.9-24.9c0-13.7,11.2-24.9,24.9-24.9h149.4c5.3,0,9.6-4.3,9.6-9.6c0-5.3-4.3-9.6-9.6-9.6h-113v-274.4
		c0-5.3-4.3-9.6-9.6-9.6c-5.3,0-9.6,4.3-9.6,9.6v274.4H58.8c-9.2,0-17.8,2.9-24.9,7.7V-549c0-13.7,11.2-24.9,24.9-24.9h314.1
		c5.3,0,9.6,4.3,9.6,9.6v77.5c-13.2-6.8-28.1-10.5-43.6-10.5c-43.4,0-81.5,29.4-92.9,70.7c-30,8.4-51.2,35.9-51.2,67.6
		c0,38.7,31.5,70.2,70.2,70.2h37.2v-0.2h20.6v-55.7h-36c19.8-21.8,39.5-43.7,59.3-65.5c20.3,21.8,40.7,43.5,61,65.2H370.5z"/>
	<path class="st0" d="M258-181.2c0,2.5-1,5-2.8,6.8c-1.8,1.8-4.2,2.8-6.8,2.8c-2.5,0-5-1-6.8-2.8c-1.8-1.8-2.8-4.3-2.8-6.8
		c0-2.5,1-5,2.8-6.8c1.8-1.8,4.2-2.8,6.8-2.8c2.5,0,5,1,6.8,2.8C256.9-186.2,258-183.8,258-181.2z"/>
</g>
<g>
	<path class="st1" d="M-153.6-429.3c-1.3,0-2.5,0-3.8,0.1c-5.4-17.7-15.8-33.1-29.4-44.8v-90.3c0-15.8-12.9-28.7-28.7-28.7h-314.1
		c-24.3,0-44,19.8-44,44.1v402.2c0,24.3,19.8,44.1,44,44.1h314.1c15.8,0,28.7-12.9,28.7-28.7v-157.4h33.2
		c38.7,0,70.2-31.5,70.2-70.2C-83.4-397.8-114.9-429.3-153.6-429.3z M-217.9-345v56h10.1v0.2h1.8v88.5c0,5.3-4.3,9.6-9.6,9.6h-82.8
		c-5.3,0-9.6,4.3-9.6,9.6c0,5.3,4.3,9.6,9.6,9.6h82.8c3.4,0,6.6-0.6,9.6-1.6v41.9c0,5.3-4.3,9.6-9.6,9.6h-314.1
		c-13.7,0-24.9-11.2-24.9-24.9c0-13.7,11.2-24.9,24.9-24.9h149.4c5.3,0,9.6-4.3,9.6-9.6c0-5.3-4.3-9.6-9.6-9.6h-113v-274.4
		c0-5.3-4.3-9.6-9.6-9.6c-5.3,0-9.6,4.3-9.6,9.6v274.4h-17.2c-9.2,0-17.8,2.9-24.9,7.7V-549c0-13.7,11.2-24.9,24.9-24.9h314.1
		c5.3,0,9.6,4.3,9.6,9.6v77.5c-13.2-6.8-28.1-10.5-43.6-10.5c-43.4,0-81.5,29.4-92.9,70.7c-30,8.4-51.2,35.9-51.2,67.6
		c0,38.7,31.5,70.2,70.2,70.2h37.2v-0.2h20.6v-55.7h-36c19.8-21.8,39.5-43.7,59.3-65.5c20.3,21.8,40.7,43.5,61,65.2H-217.9z"/>
	<path class="st1" d="M-330.4-181.2c0,2.5-1,5-2.8,6.8c-1.8,1.8-4.3,2.8-6.8,2.8c-2.5,0-5-1-6.8-2.8c-1.8-1.8-2.8-4.3-2.8-6.8
		c0-2.5,1-5,2.8-6.8c1.8-1.8,4.2-2.8,6.8-2.8c2.5,0,5,1,6.8,2.8C-331.5-186.2-330.4-183.8-330.4-181.2z"/>
</g>
<path class="st0" d="M436.8,270.5h51.8c5.9,0,11.1-3.5,13.4-8.9c2.2-5.3,1-11.4-2.9-15.6c-0.1-0.1-0.1-0.2-0.2-0.2
	c-26.3-25.2-26.3-70.6,0-95.8c0.1-0.1,0.1-0.1,0.2-0.2c4-4.1,5.1-10.2,2.9-15.6c-2.2-5.4-7.5-8.9-13.4-8.9h-51.8
	c-22.6-25.7-20.9-67.8,3.9-91.6c4.1-4.1,5.4-10.4,3.1-15.8c-2.2-5.4-7.5-8.9-13.4-8.9H59.7c-28,0-50.8,22.8-50.8,50.8v43.6
	c0,28,22.8,50.8,50.8,50.8H72c-3.2,6.6-5,14-5,21.9v43.6c0,7.8,1.8,15.2,5,21.9H59.7c-28,0-50.8,22.8-50.8,50.8V336
	c0,28,22.8,50.8,50.8,50.8H72c-3.2,6.6-5,14-5,21.9v43.6c0,28,22.8,50.8,50.8,50.8h370.7c5.9,0,11.1-3.5,13.4-8.9
	c2.2-5.3,1-11.4-2.9-15.6c-0.1-0.1-0.1-0.2-0.2-0.2c-26.3-25.2-26.3-70.6,0-95.8c0.1-0.1,0.1-0.1,0.2-0.2c4-4.1,5.1-10.2,2.9-15.6
	c-2.2-5.4-7.5-8.9-13.4-8.9h-51.8C415.7,333.7,415.7,294.6,436.8,270.5z M32.8,103.2V54.7c0-13.4,10.2-24.3,22.7-24.3h355
	c-14.3,29.4-14.3,67.6,0,97h-355C42.9,127.5,32.8,116.6,32.8,103.2z M172.3,149.4h46.1v44.6l-13.4-6.2c-8.3-3.9-15.8-1.7-19.3,0
	l-13.4,6.2L172.3,149.4L172.3,149.4z M86,220.2v-47.3c0-13.1,10.4-23.7,23.1-23.7h38.4v55.3c0,5.4,2.7,10.4,7.1,13.2
	c4.4,2.9,9.9,3.3,14.7,1l24.2-11.6l24.2,11.6c2,1,8.2,3.2,14.7-1c4.4-2.9,7.1-7.9,7.1-13.2v-55.3h231.1c-14.5,28.8-14.5,66,0,94.8
	H109.1C96.3,243.9,86,233.3,86,220.2L86,220.2z M294.1,266.6h45.6v44l-13.2-6.2c-3.5-1.6-10.9-3.8-19.1,0l-13.2,6.2V266.6z
	 M469.4,482.1H115.7c-12.5,0-22.6-11.1-22.6-24.8v-49.5c0-13.7,10.1-24.8,22.6-24.8h353.7C455.2,413,455.2,452,469.4,482.1z
	 M55.4,359.6c-12.5,0-22.6-10.4-22.6-23.1v-46.1c0-12.7,10.2-23.1,22.6-23.1h218.2v53.8c0,5.2,2.6,10.1,6.9,12.9
	c4.3,2.8,9.7,3.2,14.4,1l23.7-11.3l23.7,11.3c1.9,0.9,8.1,3.2,14.4-1c4.3-2.8,6.9-7.7,6.9-12.9v-53.8h46.1
	c-14.2,28-14.2,64.3,0,92.3H55.4z"/>
<path class="st1" d="M-154.7,261.2h51.8c5.9,0,11.1-3.5,13.4-8.9c2.2-5.3,1-11.4-2.9-15.6c-0.1-0.1-0.1-0.2-0.2-0.2
	c-26.3-25.2-26.3-70.6,0-95.8c0.1-0.1,0.1-0.1,0.2-0.2c4-4.1,5.1-10.2,2.9-15.6c-2.2-5.4-7.5-8.9-13.4-8.9h-51.8
	c-22.6-25.7-20.9-67.8,3.9-91.6c4.1-4.1,5.4-10.4,3.1-15.8c-2.2-5.4-7.5-8.9-13.4-8.9h-370.7c-28,0-50.8,22.8-50.8,50.8v43.6
	c0,28,22.8,50.8,50.8,50.8h12.3c-3.2,6.6-5,14-5,21.9v43.6c0,7.8,1.8,15.2,5,21.9h-12.3c-28,0-50.8,22.8-50.8,50.8v43.6
	c0,28,22.8,50.8,50.8,50.8h12.3c-3.2,6.6-5,14-5,21.9V443c0,28,22.8,50.8,50.8,50.8h370.7c5.9,0,11.1-3.5,13.4-8.9
	c2.2-5.3,1-11.4-2.9-15.6c-0.1-0.1-0.1-0.2-0.2-0.2c-26.3-25.2-26.3-70.6,0-95.8c0.1-0.1,0.1-0.1,0.2-0.2c4-4.1,5.1-10.2,2.9-15.6
	c-2.2-5.4-7.5-8.9-13.4-8.9h-51.8C-175.8,324.5-175.8,285.3-154.7,261.2z M-558.7,93.9V45.5c0-13.4,10.2-24.3,22.7-24.3h355
	c-14.3,29.4-14.3,67.6,0,97h-355C-548.5,118.2-558.7,107.3-558.7,93.9z M-419.1,140.1h46.1v44.6l-13.4-6.2c-8.3-3.9-15.8-1.7-19.3,0
	l-13.4,6.2L-419.1,140.1L-419.1,140.1z M-505.5,210.9v-47.3c0-13.1,10.4-23.7,23.1-23.7h38.4v55.3c0,5.4,2.7,10.4,7.1,13.2
	c4.4,2.9,9.9,3.3,14.7,1l24.2-11.6l24.2,11.6c2,1,8.2,3.2,14.7-1c4.4-2.9,7.1-7.9,7.1-13.2v-55.3H-121c-14.5,28.8-14.5,66,0,94.8
	h-361.4C-495.2,234.6-505.5,224-505.5,210.9L-505.5,210.9z M-297.4,257.3h45.6v44l-13.2-6.2c-3.5-1.6-10.9-3.8-19.1,0l-13.2,6.2
	V257.3z M-122.1,472.8h-353.7c-12.5,0-22.6-11.1-22.6-24.8v-49.5c0-13.7,10.1-24.8,22.6-24.8h353.7
	C-136.3,403.7-136.3,442.7-122.1,472.8z M-536.1,350.3c-12.5,0-22.6-10.4-22.6-23.1v-46.1c0-12.7,10.2-23.1,22.6-23.1h218.2v53.8
	c0,5.2,2.6,10.1,6.9,12.9c4.3,2.8,9.7,3.2,14.4,1l23.7-11.3l23.7,11.3c1.9,0.9,8.1,3.2,14.4-1c4.3-2.8,6.9-7.7,6.9-12.9v-53.8h46.1
	c-14.2,28-14.2,64.3,0,92.3H-536.1z"/>
</svg>
