<?xml version="1.0" encoding="utf-8"?>
<!-- Generator: Adobe Illustrator 25.3.1, SVG Export Plug-In . SVG Version: 6.00 Build 0)  -->
<svg version="1.1" id="Layer_1" xmlns="http://www.w3.org/2000/svg" xmlns:xlink="http://www.w3.org/1999/xlink" x="0px" y="0px"
	 viewBox="0 0 512 512" style="enable-background:new 0 0 512 512;" xml:space="preserve">
<style type="text/css">
	.st0{fill:#FFFFFF;}
</style>
<g>
	<g id="Solid_1_">
		<path class="st0" d="M112.8,94.9V62.8l-50,50h32.1C104.8,112.8,112.8,104.8,112.8,94.9z"/>
		<path class="st0" d="M334,202.3h58.7l11.9-35.8h-82.6L334,202.3z"/>
		<path class="st0" d="M116.3,34.1c1.6-1.2,3.5-1.8,5.4-1.8h170v-8.9c0-9.9-8-17.9-17.9-17.9H23.3c-9.9,0-17.9,8-17.9,17.9v384.8
			c0,9.9,8,17.9,17.9,17.9h8.9V121.8c0-2.4,1-4.6,2.6-6.3l80.5-80.5C115.7,34.6,116,34.3,116.3,34.1z"/>
		<path class="st0" d="M148.6,315.5h98.4v26.8h-98.4V315.5z"/>
		<path class="st0" d="M327.6,220.2c-34.6,0-62.6,28.1-62.6,62.6V378c0,10.2-4.1,20-11.3,27.2c-1,1-1.8,2-2.6,3.2
			c1.1,0.1,2.2,0.3,3.3,0.5c0.1,0,0.1,0,0.2,0c5.1,1.1,9.9,3.5,13.9,6.8l16.2,13.5c4.4-12.6,16.2-21.1,29.6-21.1h72.5
			c12.9-11.5,29.5-17.8,46.8-17.9h0.9c11.7,0,23.3,2.9,33.6,8.6c-4-6.2-6.1-13.4-6.1-20.8v-95.2c0-34.6-28-62.6-62.6-62.6
			c0,0,0,0,0,0H327.6z M300.7,327.6h-17.9v-44.7h17.9V327.6z M304.3,269.4l-15.5-9c3.9-6.8,9.6-12.4,16.3-16.3l9,15.5
			C310.1,262,306.7,265.4,304.3,269.4z M399.2,300.7h-17.9v-2.3c0-3.7-3-6.6-6.7-6.7h-22.5c-3.7,0-6.7,3-6.7,6.7
			c0,2.9,1.8,5.4,4.5,6.3l32.4,10.8c12.9,4.3,19.8,18.2,15.5,31.1c-3.3,10-12.7,16.8-23.3,16.8h-2.3v8.9h-17.9v-8.9h-2.3
			c-13.6,0-24.5-11-24.6-24.6v-2.3h17.9v2.3c0,3.7,3,6.6,6.7,6.7h22.5c3.7,0,6.7-3,6.7-6.7c0-2.9-1.8-5.4-4.5-6.3l-32.4-10.8
			c-12.9-4.3-19.8-18.2-15.5-31.1c3.3-10,12.7-16.8,23.3-16.8h2.3v-8.9h17.9v8.9h2.3c13.6,0,24.5,11,24.6,24.6V300.7z"/>
		<path class="st0" d="M148.6,417.1h72.7c2.7-2.6,5.8-4.6,9.2-6.1c1.8-7,5.5-13.3,10.6-18.4c0.7-0.7,1.4-1.5,2-2.3h-94.4V417.1z"/>
		<path class="st0" d="M251.7,238H148.6v26.8h98.4C247,255.7,248.6,246.6,251.7,238z"/>
		<path class="st0" d="M291.8,175.5c0-4.9-4-8.9-8.9-8.9H148.6v26.8h143.2V175.5z"/>
		<path class="st0" d="M130.7,166.5h-26.8c-4.9,0-8.9,4-8.9,8.9v17.9h35.8V166.5z"/>
		<path class="st0" d="M94.9,238h35.8v26.8H94.9V238z"/>
		<path class="st0" d="M434.4,408.1h-3.3c-13.1,0-25.2,5.9-34.5,15.2c-1.7,1.7-4,2.7-6.4,2.7h-76.1c-7.4,0-13.4,6-13.4,13.4
			c0,1.9,0.4,3.7,1.1,5.4c0.4,0.9,0.9,1.8,1.5,2.6c0.4,0.5,0.8,1,1.3,1.4c2.5,2.5,5.9,3.9,9.5,3.9h67.1v17.9h-65.5
			c-3.9,0-7.8-1.3-10.9-3.7l-46.3-35.6c-6.7-5.6-16.7-4.6-22.2,2.1c-0.1,0.1-0.1,0.2-0.2,0.2c-5.4,6.8-4.3,16.8,2.5,22.2
			c0,0,0.1,0,0.1,0.1c18,14.1,49.8,38.6,60.2,46.7c3.1,2.4,7,3.8,11,3.8h160.8v-84.7l-7.5-5C454.7,411.2,444.7,408.1,434.4,408.1
			L434.4,408.1z"/>
		<path class="st0" d="M94.9,408.1c0,4.9,4,8.9,8.9,8.9h26.8v-26.8H94.9V408.1z"/>
		<path class="st0" d="M211.3,441v-0.4c0-1.9,0.2-3.8,0.5-5.6H103.9C89,435,77,423,77,408.1V175.5c0-14.8,12-26.8,26.8-26.8h179
			c6.7,0,13.2,2.5,18.1,7.1c0.9-4.1,4.5-7.1,8.7-7.1h26.8V68.1c0-9.9-8-17.9-17.9-17.9H130.7v44.7c0,19.8-16,35.8-35.8,35.8H50.2
			v322.2c0,9.9,8,17.9,17.9,17.9h160.6l-4.6-3.6C215.9,460.9,211.2,451.3,211.3,441L211.3,441z M148.6,77h161.1v17.9H148.6V77z
			 M148.6,112.8h80.5v17.9h-80.5V112.8z"/>
		<path class="st0" d="M94.9,315.5h35.8v26.8H94.9V315.5z"/>
	</g>
</g>
</svg>
