<svg xmlns="http://www.w3.org/2000/svg" viewBox="0 0 512 512"><defs><style>.cls-1{fill:#253b49;}</style></defs><g id="Layer_2" data-name="Layer 2"><g id="Capa_1" data-name="Capa 1"><g id="Page-1"><g id="_061---Unlink-Footage-From-Audio" data-name="061---Unlink-Footage-From-Audio"><path id="Shape" class="cls-1" d="M494.35,335.45H440.67a105.93,105.93,0,0,1-69.91,26.48H282.48a105.51,105.51,0,0,1-69.82-26.48H202.42a25.91,25.91,0,0,1-2.74,11.65,26.27,26.27,0,0,1-23.83,14.83H144.33a111,111,0,0,1-72.12-26.48H17.66A17.71,17.71,0,0,0,0,353.1V494.34A17.72,17.72,0,0,0,17.66,512H494.35A17.71,17.71,0,0,0,512,494.34V353.1A17.71,17.71,0,0,0,494.35,335.45ZM53,432.55a8.83,8.83,0,1,1-17.66,0V414.9a8.83,8.83,0,0,1,17.66,0Zm35.31,17.66a8.83,8.83,0,1,1-17.66,0v-53a8.83,8.83,0,0,1,17.66,0Zm35.31,17.65a8.83,8.83,0,0,1-17.66,0V379.59a8.83,8.83,0,0,1,17.66,0Zm35.31-17.65a8.83,8.83,0,0,1-17.66,0v-53a8.83,8.83,0,0,1,17.66,0Zm35.31,0a8.83,8.83,0,0,1-17.66,0v-53a8.83,8.83,0,0,1,17.66,0Zm35.31-17.66a8.83,8.83,0,0,1-17.66,0V414.9a8.83,8.83,0,0,1,17.66,0Zm35.31,17.66a8.83,8.83,0,1,1-17.66,0v-53a8.83,8.83,0,1,1,17.66,0Zm35.31-17.66a8.83,8.83,0,0,1-17.66,0V414.9a8.83,8.83,0,0,1,17.66,0Zm35.31,17.66a8.83,8.83,0,1,1-17.66,0v-53a8.83,8.83,0,0,1,17.66,0Zm35.31,0a8.83,8.83,0,1,1-17.66,0v-53a8.83,8.83,0,0,1,17.66,0Zm35.31,17.65a8.83,8.83,0,0,1-17.66,0V379.59a8.83,8.83,0,1,1,17.66,0Zm35.31-17.65a8.83,8.83,0,0,1-17.66,0v-53a8.83,8.83,0,0,1,17.66,0Zm35.31-17.66a8.83,8.83,0,1,1-17.66,0V414.9a8.83,8.83,0,0,1,17.66,0Z"/><circle id="Oval" class="cls-1" cx="326.62" cy="88.28" r="8.83"/><path id="Shape-2" data-name="Shape" class="cls-1" d="M56,53.3A1.77,1.77,0,0,0,55,53a1.81,1.81,0,0,0-.88.23A2,2,0,0,0,53,55.13v66.29a2.06,2.06,0,0,0,1.11,1.94,1.77,1.77,0,0,0,1.9-.12l49.07-33.15a2.25,2.25,0,0,0,0-3.63Z"/><path id="Shape-3" data-name="Shape" class="cls-1" d="M494.35,0H17.66A17.72,17.72,0,0,0,0,17.66V158.9a17.71,17.71,0,0,0,17.66,17.65H71.33a104.1,104.1,0,0,1,18.09-12.89,105.82,105.82,0,0,1,51.82-13.59h88.28a105.51,105.51,0,0,1,69.82,26.48h10.24a26,26,0,0,1,2.74-11.65,26.36,26.36,0,0,1,20-14.57,28.43,28.43,0,0,1,3.8-.26h31.51a110.75,110.75,0,0,1,72.12,26.48h54.55A17.71,17.71,0,0,0,512,158.9V17.66A17.72,17.72,0,0,0,494.34,0ZM114.85,104.7,70,135.06l-4.15,2.83a19.38,19.38,0,0,1-20,1.06,19.9,19.9,0,0,1-10.51-17.57V55.17A19.9,19.9,0,0,1,45.82,37.6a19.46,19.46,0,0,1,20,1.06l49,33.2a19.79,19.79,0,0,1,0,32.84Zm353-7.6H351.51a26.37,26.37,0,0,1-49.78,0h-134a8.83,8.83,0,0,1,0-17.65h134a26.38,26.38,0,0,1,49.79,0H467.86a8.83,8.83,0,1,1,0,17.65Z"/><path id="Shape-4" data-name="Shape" class="cls-1" d="M329.07,181.85a8.83,8.83,0,0,1,7.06-14.13h31.54a90.41,90.41,0,0,1,91.19,82.19,88.41,88.41,0,0,1-88.1,94.37H282.48A88.17,88.17,0,0,1,194.21,256a17.66,17.66,0,0,1,35.31,0,51.75,51.75,0,0,0,3,17.39,53,53,0,0,0,50,35.58H368.9a54.23,54.23,0,0,0,54.39-46A53,53,0,0,0,370.76,203H347.32A9.11,9.11,0,0,1,339,198a87.92,87.92,0,0,0-10-16.12Z"/><path id="Shape-5" data-name="Shape" class="cls-1" d="M182.93,330.15a8.83,8.83,0,0,1-7.06,14.13H144.33a90.42,90.42,0,0,1-91.19-82.19,88.41,88.41,0,0,1,88.1-94.37h88.28A88.17,88.17,0,0,1,317.79,256a17.66,17.66,0,1,1-35.31,0,51.51,51.51,0,0,0-3-17.39,52.94,52.94,0,0,0-50-35.57H143.1a54.22,54.22,0,0,0-54.39,46A53,53,0,0,0,141.24,309h23.44A9.11,9.11,0,0,1,173,314a87.92,87.92,0,0,0,10,16.12Z"/></g></g></g></g></svg>