<?xml version="1.0" encoding="utf-8"?>
<!-- Generator: Adobe Illustrator 25.3.1, SVG Export Plug-In . SVG Version: 6.00 Build 0)  -->
<svg version="1.1" id="Capa_1" xmlns="http://www.w3.org/2000/svg" xmlns:xlink="http://www.w3.org/1999/xlink" x="0px" y="0px"
	 viewBox="0 0 512 512" style="enable-background:new 0 0 512 512;" xml:space="preserve">
<style type="text/css">
	.st0{fill:#253B49;}
	.st1{fill:#FFFFFF;}
</style>
<g>
	<g>
		<g>
			<path class="st0" d="M256,102v0.2c-8.2-7.5-20.6-17.8-37-28c-28.3-17.7-74.4-38.8-133.4-38.8h0c-8.3,0-15,6.7-15,15V102h-55
				C7,102,0,109,0,117.6v342.6c0,9.1,7.3,16.4,16.4,16.4h476.5c10.5,0,19.1-8.5,19.1-19.1V120.4c0-10.2-8.2-18.4-18.4-18.4H256z
				 M20.4,456.3V121.6h48.7v274.9c0,7.8,6.3,14.1,14.1,14.1h3.9c69.3,0,122.2,23.8,156.2,45.6L20.4,456.3L20.4,456.3z M245,438.5
				c-12.2-9-23.6-16-32.5-21c-38.6-21.5-80-33.6-123.2-36.1V55.7c39.7,2.6,77.5,14.3,112.6,35c21.6,12.8,36.4,25.7,43,32.1
				L245,438.5L245,438.5z M474.8,454.7H265.6V123.9h217.2c5,0,9.1,4.1,9.1,9.1v304.6C491.9,447.1,484.2,454.7,474.8,454.7z"/>
		</g>
	</g>
</g>
<g>
	<path class="st0" d="M358.9,160.1c2.7,0,4.8-2.1,4.8-4.8c0-2.7-2.2-4.8-4.8-4.8h0c-2.7,0-4.8,2.1-4.8,4.8
		C354,158,356.2,160.1,358.9,160.1z"/>
	<path class="st0" d="M373.2,160.1h14.4c2.7,0,4.8-2.1,4.8-4.8c0-2.7-2.1-4.8-4.8-4.8h-14.4c-2.7,0-4.8,2.1-4.8,4.8
		C368.4,158,370.5,160.1,373.2,160.1z"/>
	<path class="st0" d="M430.9,136.1C430.9,136.1,430.9,136.1,430.9,136.1l-115.5,0c-15.9,0-28.9,12.9-28.9,28.9v245.3
		c0,18.6,15.1,33.7,33.7,33.7h105.8c18.6,0,33.7-15.1,33.7-33.7V164.9C459.7,149,446.8,136.1,430.9,136.1z M318.6,147h109
		c0,0,0,0,0,0c10,0,18.2,7.5,18.2,16.7H300.4v0C300.4,154.4,308.6,147,318.6,147L318.6,147z M423.6,413.8h-50.5h-50.5
		c-12.6,0-22.9-9.9-22.9-22.1v-4.4h73.4h73.4v4.4C446.5,403.9,436.3,413.8,423.6,413.8z M298.1,177h150.2v197.1H298.1V177z
		 M426.1,434.3H320.3c-11.6,0-21.3-8.9-23.6-20.8c6.1,6.4,14.4,10.4,23.6,10.4h105.8c9.2,0,17.5-4,23.6-10.4
		C447.4,425.3,437.7,434.3,426.1,434.3z"/>
	<path class="st0" d="M383.5,400.6c0-5.7-4.6-10.3-10.3-10.3c-5.7,0-10.3,4.6-10.3,10.3c0,5.7,4.6,10.3,10.3,10.3
		C378.8,410.9,383.5,406.3,383.5,400.6z M373.2,404c-1.9,0-3.4-1.5-3.4-3.4s1.5-3.4,3.4-3.4c1.9,0,3.4,1.5,3.4,3.4
		S375.1,404,373.2,404z"/>
	<path class="st0" d="M430.5,216c-0.2-0.6-0.6-1.1-1-1.6l-24-24c-0.5-0.5-1-0.8-1.6-1.1c-0.5-0.2-1-0.3-1.6-0.3
		c-0.1,0-0.2-0.1-0.3-0.1h-81.7c0,0,0,0,0,0c-2.7,0-4.8,2.1-4.8,4.8v163.5c0,2.7,2.1,4.8,4.8,4.8h105.8c2.7,0,4.8-2.1,4.8-4.8V217.8
		C430.9,217.2,430.7,216.6,430.5,216z M400.5,199.1l20.2,20.2h-20.2V199.1z M421.2,333.3v4.8h-96.2v-4.8H421.2z M325.1,347.7h96.2
		v4.8h-96.2V347.7z"/>
	<path class="st1" d="M344.3,256.3H402c2.7,0,4.8-2.1,4.8-4.8c0-2.7-2.1-4.8-4.8-4.8h-57.7c-2.7,0-4.8,2.1-4.8,4.8
		C339.5,254.2,341.6,256.3,344.3,256.3L344.3,256.3z"/>
	<path class="st1" d="M344.3,270.7H402c2.7,0,4.8-2.1,4.8-4.8s-2.1-4.8-4.8-4.8h-57.7c-2.7,0-4.8,2.1-4.8,4.8
		S341.6,270.7,344.3,270.7L344.3,270.7z"/>
	<path class="st1" d="M344.3,285.2H402c2.7,0,4.8-2.1,4.8-4.8s-2.1-4.8-4.8-4.8h-57.7c-2.7,0-4.8,2.1-4.8,4.8
		S341.6,285.2,344.3,285.2L344.3,285.2z"/>
	<path class="st1" d="M373.2,290h-28.9c-2.7,0-4.8,2.1-4.8,4.8c0,2.7,2.1,4.8,4.8,4.8h28.9c2.7,0,4.8-2.1,4.8-4.8
		C378,292.1,375.8,290,373.2,290z"/>
</g>
</svg>
