<?xml version="1.0" encoding="utf-8"?>
<!-- Generator: Adobe Illustrator 25.3.1, SVG Export Plug-In . SVG Version: 6.00 Build 0)  -->
<svg version="1.1" id="Capa_1" xmlns="http://www.w3.org/2000/svg" xmlns:xlink="http://www.w3.org/1999/xlink" x="0px" y="0px"
	 viewBox="0 0 512 512" style="enable-background:new 0 0 512 512;" xml:space="preserve">
<style type="text/css">
	.st0{fill:#FFFFFF;}
	.st1{fill:#253B49;}
</style>
<g>
	<g>
		<g>
			<path class="st0" d="M256,102v0.2c-8.2-7.5-20.6-17.8-37-28c-28.3-17.7-74.4-38.8-133.4-38.8h0c-8.3,0-15,6.7-15,15V102h-55
				C7,102,0,109,0,117.6v342.6c0,9.1,7.3,16.4,16.4,16.4h476.5c10.5,0,19.1-8.5,19.1-19.1V120.4c0-10.2-8.2-18.4-18.4-18.4H256z
				 M20.4,456.3V121.6h48.7v274.9c0,7.8,6.3,14.1,14.1,14.1h3.9c69.3,0,122.2,23.8,156.2,45.6L20.4,456.3L20.4,456.3z M245,438.5
				c-12.2-9-23.6-16-32.5-21c-38.6-21.5-80-33.6-123.2-36.1V55.7c39.7,2.6,77.5,14.3,112.6,35c21.6,12.8,36.4,25.7,43,32.1
				L245,438.5L245,438.5z M474.8,454.7H265.6V123.9h217.2c5,0,9.1,4.1,9.1,9.1v304.6C491.9,447.1,484.2,454.7,474.8,454.7z"/>
		</g>
	</g>
</g>
<g>
	<path class="st0" d="M359,160.1c2.7,0,4.8-2.1,4.8-4.8c0-2.7-2.2-4.8-4.8-4.8h0c-2.7,0-4.8,2.1-4.8,4.8
		C354.2,158,356.4,160.1,359,160.1z"/>
	<path class="st0" d="M373.3,160.1h14.4c2.7,0,4.8-2.1,4.8-4.8c0-2.7-2.1-4.8-4.8-4.8h-14.4c-2.7,0-4.8,2.1-4.8,4.8
		C368.5,158,370.6,160.1,373.3,160.1z"/>
	<path class="st0" d="M431.1,136.1C431,136.1,431,136.1,431.1,136.1l-115.5,0c-15.9,0-28.9,12.9-28.9,28.9v245.3
		c0,18.6,15.1,33.7,33.7,33.7h105.8c18.6,0,33.7-15.1,33.7-33.7V164.9C459.9,149,446.9,136.1,431.1,136.1z M318.8,147h109
		c0,0,0,0,0,0c10,0,18.2,7.5,18.2,16.7H300.6v0C300.6,154.4,308.7,147,318.8,147L318.8,147z M423.7,413.8h-50.5h-50.5
		c-12.6,0-22.9-9.9-22.9-22.1v-4.4h73.4h73.4v4.4C446.7,403.9,436.4,413.8,423.7,413.8z M298.2,177h150.2v197.1H298.2V177z
		 M426.2,434.3H320.4c-11.6,0-21.3-8.9-23.6-20.8c6.1,6.4,14.4,10.4,23.6,10.4h105.8c9.2,0,17.5-4,23.6-10.4
		C447.5,425.3,437.8,434.3,426.2,434.3z"/>
	<path class="st0" d="M383.6,400.6c0-5.7-4.6-10.3-10.3-10.3c-5.7,0-10.3,4.6-10.3,10.3c0,5.7,4.6,10.3,10.3,10.3
		C379,410.9,383.6,406.3,383.6,400.6z M373.3,404c-1.9,0-3.4-1.5-3.4-3.4s1.5-3.4,3.4-3.4c1.9,0,3.4,1.5,3.4,3.4
		S375.2,404,373.3,404z"/>
	<path class="st0" d="M430.6,216c-0.2-0.6-0.6-1.1-1.1-1.6l-24-24c-0.5-0.5-1-0.8-1.6-1.1c-0.5-0.2-1-0.3-1.6-0.3
		c-0.1,0-0.2,0-0.3,0h-81.7c0,0,0,0-0.1,0c-2.7,0-4.8,2.1-4.8,4.8v163.5c0,2.7,2.2,4.8,4.8,4.8h105.8c2.7,0,4.8-2.2,4.8-4.8V217.9
		C431,217.2,430.9,216.6,430.6,216z M400.7,199.1l20.2,20.2h-20.2V199.1z M344.4,246.7h57.7c2.7,0,4.8,2.2,4.8,4.8
		c0,2.7-2.1,4.8-4.8,4.8h-57.7c-2.7,0-4.8-2.1-4.8-4.8C339.6,248.8,341.8,246.7,344.4,246.7z M344.4,261.1h57.7
		c2.7,0,4.8,2.2,4.8,4.8c0,2.7-2.1,4.8-4.8,4.8h-57.7c-2.7,0-4.8-2.2-4.8-4.8C339.6,263.3,341.8,261.1,344.4,261.1z M344.4,275.5
		h57.7c2.7,0,4.8,2.1,4.8,4.8c0,2.7-2.1,4.8-4.8,4.8h-57.7c-2.7,0-4.8-2.2-4.8-4.8C339.6,277.7,341.8,275.5,344.4,275.5z M344.4,290
		h28.9c2.7,0,4.8,2.1,4.8,4.8c0,2.7-2.2,4.8-4.8,4.8h-28.9c-2.7,0-4.8-2.2-4.8-4.8C339.6,292.1,341.8,290,344.4,290z M421.4,352.5
		h-96.2v-4.8h96.2V352.5z M421.4,338.1h-96.2v-4.8h96.2V338.1z"/>
</g>
<g>
	<g>
		<g>
			<path class="st1" d="M-295.2,102v0.2c-8.2-7.5-20.6-17.8-37-28c-28.3-17.7-74.4-38.8-133.4-38.8l0,0c-8.3,0-15,6.7-15,15V102h-55
				c-8.6,0-15.6,7-15.6,15.6v342.6c0,9.1,7.3,16.4,16.4,16.4h476.5c10.5,0,19.1-8.5,19.1-19.1V120.4c0-10.2-8.2-18.4-18.4-18.4
				H-295.2z M-530.8,456.3V121.6h48.7v274.9c0,7.8,6.3,14.1,14.1,14.1h3.9c69.3,0,122.2,23.8,156.2,45.6L-530.8,456.3L-530.8,456.3z
				 M-306.3,438.5c-12.2-9-23.6-16-32.5-21c-38.6-21.5-80-33.6-123.2-36.1V55.7c39.7,2.6,77.5,14.3,112.6,35
				c21.6,12.8,36.4,25.7,43,32.1L-306.3,438.5L-306.3,438.5z M-76.4,454.7h-209.3V123.9h217.2c5,0,9.1,4.1,9.1,9.1v304.6
				C-59.4,447.1-67,454.7-76.4,454.7z"/>
		</g>
	</g>
</g>
<g>
	<path class="st1" d="M-192.3,160.1c2.7,0,4.8-2.1,4.8-4.8c0-2.7-2.2-4.8-4.8-4.8h0c-2.7,0-4.8,2.1-4.8,4.8
		C-197.2,158-195,160.1-192.3,160.1z"/>
	<path class="st1" d="M-178.1,160.1h14.4c2.7,0,4.8-2.1,4.8-4.8c0-2.7-2.1-4.8-4.8-4.8h-14.4c-2.7,0-4.8,2.1-4.8,4.8
		C-182.9,158-180.7,160.1-178.1,160.1z"/>
	<path class="st1" d="M-120.3,136.1C-120.3,136.1-120.3,136.1-120.3,136.1l-115.5,0c-15.9,0-28.9,12.9-28.9,28.9v245.3
		c0,18.6,15.1,33.7,33.7,33.7h105.8c18.6,0,33.7-15.1,33.7-33.7V164.9C-91.5,149-104.4,136.1-120.3,136.1z M-232.6,147h109
		c0,0,0,0,0,0c10,0,18.2,7.5,18.2,16.7h-145.4v0C-250.8,154.4-242.6,147-232.6,147L-232.6,147z M-127.6,413.8h-50.5h-50.5
		c-12.6,0-22.9-9.9-22.9-22.1v-4.4h73.4h73.4v4.4C-104.7,403.9-115,413.8-127.6,413.8z M-253.1,177H-103v197.1h-150.2V177z
		 M-125.2,434.3H-231c-11.6,0-21.3-8.9-23.6-20.8c6.1,6.4,14.4,10.4,23.6,10.4h105.8c9.2,0,17.5-4,23.6-10.4
		C-103.8,425.3-113.5,434.3-125.2,434.3z"/>
	<path class="st1" d="M-167.8,400.6c0-5.7-4.6-10.3-10.3-10.3s-10.3,4.6-10.3,10.3c0,5.7,4.6,10.3,10.3,10.3
		S-167.8,406.3-167.8,400.6z M-178.1,404c-1.9,0-3.4-1.5-3.4-3.4s1.5-3.4,3.4-3.4s3.4,1.5,3.4,3.4S-176.2,404-178.1,404z"/>
	<path class="st1" d="M-120.7,216c-0.2-0.6-0.6-1.1-1-1.6l-24-24c-0.5-0.5-1-0.8-1.6-1.1c-0.5-0.2-1-0.3-1.6-0.3
		c-0.1,0-0.2-0.1-0.3-0.1h-81.7c0,0,0,0,0,0c-2.7,0-4.8,2.1-4.8,4.8v163.5c0,2.7,2.1,4.8,4.8,4.8h105.8c2.7,0,4.8-2.1,4.8-4.8V217.8
		C-120.4,217.2-120.5,216.6-120.7,216z M-150.7,199.1l20.2,20.2h-20.2V199.1z M-130,333.3v4.8h-96.2v-4.8H-130z M-226.1,347.7h96.2
		v4.8h-96.2V347.7z"/>
	<path class="st0" d="M-206.9,256.3h57.7c2.7,0,4.8-2.1,4.8-4.8c0-2.7-2.1-4.8-4.8-4.8h-57.7c-2.7,0-4.8,2.1-4.8,4.8
		C-211.7,254.2-209.6,256.3-206.9,256.3L-206.9,256.3z"/>
	<path class="st0" d="M-206.9,270.7h57.7c2.7,0,4.8-2.1,4.8-4.8s-2.1-4.8-4.8-4.8h-57.7c-2.7,0-4.8,2.1-4.8,4.8
		S-209.6,270.7-206.9,270.7L-206.9,270.7z"/>
	<path class="st0" d="M-206.9,285.2h57.7c2.7,0,4.8-2.1,4.8-4.8s-2.1-4.8-4.8-4.8h-57.7c-2.7,0-4.8,2.1-4.8,4.8
		S-209.6,285.2-206.9,285.2L-206.9,285.2z"/>
	<path class="st0" d="M-178.1,290h-28.9c-2.7,0-4.8,2.1-4.8,4.8c0,2.7,2.1,4.8,4.8,4.8h28.9c2.7,0,4.8-2.1,4.8-4.8
		C-173.3,292.1-175.4,290-178.1,290z"/>
</g>
</svg>
