<?xml version="1.0" encoding="utf-8"?>
<!-- Generator: Adobe Illustrator 25.3.1, SVG Export Plug-In . SVG Version: 6.00 Build 0)  -->
<svg version="1.1" id="Layer_1" xmlns="http://www.w3.org/2000/svg" xmlns:xlink="http://www.w3.org/1999/xlink" x="0px" y="0px"
	 viewBox="0 0 512 512" style="enable-background:new 0 0 512 512;" xml:space="preserve">
<style type="text/css">
	.st0{fill:#253B49;}
	.st1{fill:#FFFFFF;}
</style>
<g>
	<g>
		<g>
			<path class="st0" d="M745.2,381.6l-53.7-21.4l-4.9-7.3v-8.2c13.5-9.5,22.5-24.1,24.9-40.4h0.7c14.1,0,25.6-11.5,25.6-25.6
				c0-14.1-11.5-25.6-25.6-25.6h-1.5c-1.2-3.1-2.9-6-5.1-8.5c4.3-4.7,6.6-10.8,6.6-17.1v-25.6c0-4.7-3.8-8.5-8.5-8.5h-76.8
				c-18.8,0-34.1,15.3-34.1,34.1v25.6c-14.1,0-25.6,11.5-25.6,25.6c0,14.1,11.5,25.6,25.6,25.6h0.7c2.4,16.3,11.4,31,24.9,40.4v8.2
				l-4.9,7.3l-53.7,21.4c-16.2,6.5-26.8,22.2-26.8,39.7V509c0,4.7,3.8,8.5,8.5,8.5h221.8c4.7,0,8.5-3.8,8.5-8.5v-87.8
				C772,403.8,761.4,388.1,745.2,381.6z M711.9,263.5c9.4,0,16.2,6.8,16.2,15.2s-6.8,15.2-16.2,15.2V263.5z M592.3,294.1
				c-8.5,0-15.4-6.9-15.4-15.4s6.9-15.4,15.4-15.4V294.1z M604.9,224.9c0-11.2,8.6-20.3,19.1-20.3h76.4v20.3
				c0,5.6-4.3,10.1-9.5,10.1h-76.5c-3.3,0-6.5,0.6-9.6,1.8V224.9z M602.5,295.2v-38.4c0-5.3,4.5-9.6,10-9.6h80.1
				c5.5,0,10,4.3,10,9.6v38.4c0,26.5-22.4,48-50,48S602.5,321.7,602.5,295.2z M673.9,349.4l-1,2.1l-21.4,35.8l-20.4-37.8v-0.1
				C645.1,353.5,660,353.5,673.9,349.4z M569.3,403.6c-2.3,2.8-3,5.8-3.2,7.5v95h-19v-88.3c0-11.7,7-22.2,17.9-26.5l37.8-15.1l0-0.2
				l22.2-8.6l1.7-0.7l16.8,27.9l-5,3.5H622l0-0.1l-15.4,0h-23C582.7,398,574.4,397.4,569.3,403.6z M724.5,505.9h-144v-94h144V505.9z
				 M757.6,502.9c-6.3-0.1-12.6-0.3-19-0.4c0.1-29.7,0.1-59.4,0.2-89c0.1-1.1,0.6-5.5-2.3-9.5c-4.1-5.6-11-5.5-11.6-5.4
				c-8.4-0.2-47.5-0.6-58.5-0.6c-2.3-1.9-4.7-3.7-7-5.6c2.8-4.1,5.6-8.3,8.3-12.6c2.8-4.4,5.5-8.7,8.1-13c3.1,1,44.6,14.9,64.6,25.7
				c3.7,2,9.1,5.2,12.8,11.4c3.8,6.5,3.8,12.9,3.9,15.9C757.3,434.2,757.7,463.8,757.6,502.9z"/>
		</g>
		<path class="st0" d="M673.9,314.6c-1.8-3-3.5-6-5.3-9c-2.4,1.5-8.2,4.6-16.3,4.6c-7.9,0.1-13.6-2.8-16.1-4.3
			c-1.7,2.9-3.4,5.7-5.1,8.6C644.4,322.3,660.7,322.3,673.9,314.6z"/>
		<path class="st0" d="M670.6,438.8c-4.6-4.6-11-7.5-18.1-7.5c-14.1,0-25.6,11.5-25.6,25.6c0,14.1,11.5,25.6,25.6,25.6
			c14.1,0,25.6-11.5,25.6-25.6C678.1,449.8,675.3,443.4,670.6,438.8z M652.5,471.4c-8,0-14.5-6.5-14.5-14.5c0-8,6.5-14.5,14.5-14.5
			c8,0,14.5,6.5,14.5,14.5C667,464.9,660.5,471.4,652.5,471.4z"/>
	</g>
	<g>
		<g>
			<path class="st0" d="M806.1,421.3V509c0,4.7,3.8,8.5,8.5,8.5h221.8c4.7,0,8.5-3.8,8.5-8.5v-87.8c0-17.5-10.6-33.2-26.8-39.7
				l-53.7-21.4l-4.9-7.3v-8.2c13.5-9.5,22.5-24.1,24.9-40.4h0.7c14.1,0,25.6-11.5,25.6-25.6c0-14.1-11.5-25.6-25.6-25.6v-25.6
				c0-18.8-15.3-34.1-34.1-34.1h-76.8c-4.7,0-8.5,3.8-8.5,8.5v25.6c0,6.3,2.4,12.4,6.6,17.1c-2.2,2.5-4,5.4-5.1,8.5h-1.5
				c-14.1,0-25.6,11.5-25.6,25.6c0,14.1,11.5,25.6,25.6,25.6h0.7c2.4,16.3,11.4,31,24.9,40.4v8.2l-4.9,7.3l-53.7,21.4
				C816.7,388.1,806.1,403.8,806.1,421.3z M866.2,293.9c-9.4,0-16.2-6.8-16.2-15.2s6.8-15.2,16.2-15.2V293.9z M985.8,263.3
				c8.5,0,15.4,6.9,15.4,15.4s-6.9,15.4-15.4,15.4V263.3z M973.1,236.9c-3.1-1.2-6.3-1.8-9.6-1.8h-76.5c-5.3,0-9.5-4.5-9.5-10.1
				v-20.3H954c10.6,0,19.1,9.1,19.1,20.3V236.9z M925.5,343.2c-27.6,0-50-21.5-50-48v-38.4c0-5.3,4.5-9.6,10-9.6h80.1
				c5.5,0,10,4.3,10,9.6v38.4C975.6,321.7,953.2,343.2,925.5,343.2z M946.9,349.4v0.1l-20.4,37.8l-21.4-35.8l-1-2.1
				C918.1,353.5,933,353.5,946.9,349.4z M994.5,398h-23l-15.4,0l0,0.1h-16.4l-5-3.5l16.8-27.9l1.7,0.7l22.2,8.6l0,0.2l37.8,15.1
				c10.8,4.4,17.9,14.9,17.9,26.5v88.3h-19v-95c-0.2-1.7-0.9-4.7-3.2-7.5C1003.7,397.4,995.4,398,994.5,398z M853.6,411.8h144v94
				h-144V411.8z M820.8,419.9c0-3,0-9.4,3.9-15.9c3.7-6.2,9.1-9.4,12.8-11.4c20.1-10.9,61.6-24.7,64.6-25.7c2.6,4.3,5.3,8.6,8.1,13
				c2.8,4.3,5.6,8.5,8.3,12.6c-2.3,1.9-4.7,3.7-7,5.6c-10.9,0-50.1,0.4-58.5,0.6c-0.6,0-7.5-0.2-11.6,5.4c-2.9,4-2.5,8.4-2.3,9.5
				c0.1,29.7,0.1,59.4,0.2,89c-6.3,0.1-12.7,0.3-19,0.4C820.4,463.8,820.7,434.2,820.8,419.9z"/>
		</g>
		<path class="st0" d="M946.9,314.6c-1.7-2.9-3.4-5.7-5.1-8.6c-2.5,1.4-8.2,4.3-16.1,4.3c-8-0.1-13.8-3.2-16.3-4.6
			c-1.8,3-3.5,6-5.3,9C917.4,322.3,933.7,322.3,946.9,314.6z"/>
		<path class="st0" d="M899.9,456.9c0,14.1,11.5,25.6,25.6,25.6c14.1,0,25.6-11.5,25.6-25.6c0-14.1-11.5-25.6-25.6-25.6
			c-7.1,0-13.5,2.9-18.1,7.5C902.8,443.4,899.9,449.8,899.9,456.9z M911,456.9c0-8,6.5-14.5,14.5-14.5c8,0,14.5,6.5,14.5,14.5
			c0,8-6.5,14.5-14.5,14.5C917.5,471.4,911,464.9,911,456.9z"/>
	</g>
	<path class="st0" d="M949.4,89.8c-3.2-9.4-12.7-16.9-23.9-16.9c-10.8,0.1-20.4,6.9-24.1,17.1h-35.7V38.8
		c0-22.4-38.7-34.1-76.8-34.1s-76.8,11.7-76.8,34.1V90h-35.7c-4.7-13.3-19.2-20.4-32.6-15.8c-14,4.9-19.8,20.6-15.8,32.6
		c4.1,12,16.5,16.1,17.9,16.5c0,17.3,0,34.7,0,52c4.2,0,8.4,0,12.6,0c0-17.4,0-34.8,0-52.1c2.3-0.6,7.3-2.2,11.7-6.7
		c3.6-3.5,5.3-7.3,6-9.5h35.7v51.2c0,22.4,38.7,34.1,76.8,34.1s76.8-11.7,76.8-34.1v-51.2h35.7c0.8,2.2,2.5,6,6,9.5
		c4.7,4.6,9.9,6.2,12.2,6.8c0,17.3,0,34.7,0,52c4,0,8,0.1,12,0.1c0-17.3-0.1-34.6-0.1-51.9C946.4,117.8,953.6,102.4,949.4,89.8z
		 M652.5,113.2c-8.1,0-14.7-6.6-14.7-14.7c0-8.1,6.6-14.7,14.7-14.7c8.1,0,14.7,6.6,14.7,14.7C667.2,106.7,660.6,113.2,652.5,113.2z
		 M853.4,160.9c0,5.3-22.5,18.2-64.4,18.2c-41.9,0-64.4-13-64.4-18.2v-40.1c20.2,9,42.2,13.4,64.4,12.8c22.2,0.6,44.2-3.7,64.4-12.8
		V160.9z M853,102.3c0,5.4-22.4,18.8-64,18.8c-41.6,0-64-13.3-64-18.8V61c20.1,9.3,42,13.8,64,13.1c22,0.7,43.9-3.8,64-13.1V102.3z
		 M789,61.5c-42.1,0-64.8-16.1-64.8-22.7s22.7-22.7,64.8-22.7c42.1,0,64.8,16.1,64.8,22.7S831.1,61.5,789,61.5z M925.5,113.2
		c-8.1,0-14.6-6.5-14.6-14.6c0-8.1,6.5-14.6,14.6-14.6c8.1,0,14.6,6.5,14.6,14.6C940.1,106.6,933.6,113.2,925.5,113.2z"/>
	<path class="st0" d="M749.7,83.2h14.8V98h-14.8V83.2z"/>
	<path class="st0" d="M779.4,90.6h14.8v14.8h-14.8V90.6z"/>
	<path class="st0" d="M750.9,143.5h14v14h-14V143.5z"/>
	<path class="st0" d="M779,150.5h14v14h-14V150.5z"/>
</g>
<g>
	<g>
		<g>
			<path class="st1" d="M212.2,376.5L158.5,355l-4.9-7.3v-8.2c13.5-9.5,22.5-24.1,24.9-40.4h0.7c14.1,0,25.6-11.5,25.6-25.6
				c0-14.1-11.5-25.6-25.6-25.6h-1.5c-1.2-3.1-2.9-6-5.1-8.5c4.3-4.7,6.6-10.8,6.6-17.1v-25.6c0-4.7-3.8-8.5-8.5-8.5H93.9
				c-18.8,0-34.1,15.3-34.1,34.1V248c-14.1,0-25.6,11.5-25.6,25.6c0,14.1,11.5,25.6,25.6,25.6h0.7c2.4,16.3,11.4,31,24.9,40.4v8.2
				l-4.9,7.3l-53.7,21.4C10.7,382.9,0,398.7,0.1,416.1v87.8c0,4.7,3.8,8.5,8.5,8.5h221.8c4.7,0,8.5-3.8,8.5-8.5v-87.8
				C239,398.7,228.4,382.9,212.2,376.5z M178.9,258.3c9.4,0,16.2,6.8,16.2,15.2s-6.8,15.2-16.2,15.2V258.3z M59.2,289
				c-8.5,0-15.4-6.9-15.4-15.4s6.9-15.4,15.4-15.4V289z M71.9,219.8c0-11.2,8.6-20.3,19.1-20.3h76.4v20.3c0,5.6-4.3,10.1-9.5,10.1
				H81.5c-3.3,0-6.5,0.6-9.6,1.8V219.8z M69.5,290.1v-38.4c0-5.3,4.5-9.6,10-9.6h80.1c5.5,0,10,4.3,10,9.6v38.4
				c0,26.5-22.4,48-50,48S69.5,316.6,69.5,290.1z M140.9,344.2l-1,2.1l-21.4,35.8l-20.4-37.8v-0.1
				C112.1,348.4,126.9,348.4,140.9,344.2z M36.3,398.5c-2.3,2.8-3,5.8-3.2,7.5v95H14v-88.3c0-11.7,7-22.2,17.9-26.5l37.8-15.1l0-0.2
				l22.2-8.6l1.7-0.7l16.8,27.9l-5,3.5H89l0-0.1l-15.4,0h-23C49.7,392.8,41.3,392.3,36.3,398.5z M191.5,500.7h-144v-94h144V500.7z
				 M224.6,497.8c-6.3-0.1-12.6-0.3-19-0.4c0.1-29.7,0.1-59.4,0.2-89c0.1-1.1,0.6-5.5-2.3-9.5c-4.1-5.6-11-5.5-11.6-5.4
				c-8.4-0.2-47.5-0.6-58.5-0.6c-2.3-1.9-4.7-3.7-7-5.6c2.8-4.1,5.6-8.3,8.3-12.6c2.8-4.4,5.5-8.7,8.1-13c3.1,1,44.6,14.9,64.6,25.7
				c3.7,2,9.1,5.2,12.8,11.4c3.8,6.5,3.8,12.9,3.9,15.9C224.3,429,224.7,458.7,224.6,497.8z"/>
		</g>
		<path class="st1" d="M140.8,309.5c-1.8-3-3.5-6-5.3-9c-2.4,1.5-8.2,4.6-16.3,4.6c-7.9,0.1-13.6-2.8-16.1-4.3
			c-1.7,2.9-3.4,5.7-5.1,8.6C111.4,317.1,127.6,317.1,140.8,309.5z"/>
		<path class="st1" d="M137.6,433.6c-4.6-4.6-11-7.5-18.1-7.5c-14.1,0-25.6,11.5-25.6,25.6c0,14.1,11.5,25.6,25.6,25.6
			c14.1,0,25.6-11.5,25.6-25.6C145.1,444.7,142.2,438.2,137.6,433.6z M119.5,466.2c-8,0-14.5-6.5-14.5-14.5c0-8,6.5-14.5,14.5-14.5
			s14.5,6.5,14.5,14.5C134,459.7,127.5,466.2,119.5,466.2z"/>
	</g>
	<g>
		<g>
			<path class="st1" d="M273.1,416.1v87.8c0,4.7,3.8,8.5,8.5,8.5h221.8c4.7,0,8.5-3.8,8.5-8.5v-87.8c0-17.5-10.6-33.2-26.8-39.7
				L431.5,355l-4.9-7.3v-8.2c13.5-9.5,22.5-24.1,24.9-40.4h0.7c14.1,0,25.6-11.5,25.6-25.6c0-14.1-11.5-25.6-25.6-25.6v-25.6
				c0-18.8-15.3-34.1-34.1-34.1h-76.8c-4.7,0-8.5,3.8-8.5,8.5v25.6c0,6.3,2.4,12.4,6.6,17.1c-2.2,2.5-4,5.4-5.1,8.5h-1.5
				c-14.1,0-25.6,11.5-25.6,25.6c0,14.1,11.5,25.6,25.6,25.6h0.7c2.4,16.3,11.4,31,24.9,40.4v8.2l-4.9,7.3l-53.7,21.4
				C283.6,382.9,273,398.7,273.1,416.1z M333.1,288.8c-9.4,0-16.2-6.8-16.2-15.2s6.8-15.2,16.2-15.2V288.8z M452.8,258.1
				c8.5,0,15.4,6.9,15.4,15.4s-6.9,15.4-15.4,15.4V258.1z M440.1,231.7c-3.1-1.2-6.3-1.8-9.6-1.8h-76.5c-5.3,0-9.5-4.5-9.5-10.1
				v-20.3H421c10.6,0,19.1,9.1,19.1,20.3V231.7z M392.5,338.1c-27.6,0-50-21.5-50-48v-38.4c0-5.3,4.5-9.6,10-9.6h80.1
				c5.5,0,10,4.3,10,9.6v38.4C442.5,316.6,420.1,338.1,392.5,338.1z M413.9,344.2v0.1l-20.4,37.8l-21.4-35.8l-1-2.1
				C385.1,348.4,399.9,348.4,413.9,344.2z M461.4,392.9h-23l-15.4,0l0,0.1h-16.4l-5-3.5l16.8-27.9l1.7,0.7l22.2,8.6l0,0.2l37.8,15.1
				c10.8,4.4,17.9,14.9,17.9,26.5V501h-19v-95c-0.2-1.7-0.9-4.7-3.2-7.5C470.7,392.3,462.3,392.8,461.4,392.9z M320.5,406.7h144v94
				h-144V406.7z M287.8,414.8c0-3,0-9.4,3.9-15.9c3.7-6.2,9.1-9.4,12.8-11.4c20.1-10.9,61.6-24.7,64.6-25.7c2.6,4.3,5.3,8.6,8.1,13
				c2.8,4.3,5.6,8.5,8.3,12.6c-2.3,1.9-4.7,3.7-7,5.6c-10.9,0-50.1,0.4-58.5,0.6c-0.6,0-7.5-0.2-11.6,5.4c-2.9,4-2.5,8.4-2.3,9.5
				c0.1,29.7,0.1,59.4,0.2,89c-6.3,0.1-12.7,0.3-19,0.4C287.3,458.7,287.7,429,287.8,414.8z"/>
		</g>
		<path class="st1" d="M413.8,309.5c-1.7-2.9-3.4-5.7-5.1-8.6c-2.5,1.4-8.2,4.3-16.1,4.3c-8-0.1-13.8-3.2-16.3-4.6
			c-1.8,3-3.5,6-5.3,9C384.4,317.1,400.6,317.1,413.8,309.5z"/>
		<path class="st1" d="M366.9,451.7c0,14.1,11.5,25.6,25.6,25.6c14.1,0,25.6-11.5,25.6-25.6c0-14.1-11.5-25.6-25.6-25.6
			c-7.1,0-13.5,2.9-18.1,7.5C369.8,438.2,366.9,444.7,366.9,451.7z M378,451.7c0-8,6.5-14.5,14.5-14.5s14.5,6.5,14.5,14.5
			c0,8-6.5,14.5-14.5,14.5S378,459.7,378,451.7z"/>
	</g>
	<path class="st1" d="M416.4,84.7c-3.2-9.4-12.7-16.9-23.9-16.9c-10.8,0.1-20.4,6.9-24.1,17.1h-35.7V33.7
		c0-22.4-38.7-34.1-76.8-34.1s-76.8,11.7-76.8,34.1v51.2h-35.7c-4.7-13.3-19.2-20.4-32.6-15.8C97,74,91.2,89.7,95.2,101.7
		c4.1,12,16.5,16.1,17.9,16.5c0,17.3,0,34.7,0,52c4.2,0,8.4,0,12.6,0c0-17.4,0-34.8,0-52.1c2.3-0.6,7.3-2.2,11.7-6.7
		c3.6-3.5,5.3-7.3,6-9.5h35.7v51.2c0,22.4,38.7,34.1,76.8,34.1s76.8-11.7,76.8-34.1v-51.2h35.7c0.8,2.2,2.5,6,6,9.5
		c4.7,4.6,9.9,6.2,12.2,6.8c0,17.3,0,34.7,0,52c4,0,8,0.1,12,0.1c0-17.3-0.1-34.6-0.1-51.9C413.4,112.7,420.6,97.2,416.4,84.7z
		 M119.5,108.1c-8.1,0-14.7-6.6-14.7-14.7c0-8.1,6.6-14.7,14.7-14.7s14.7,6.6,14.7,14.7C134.2,101.5,127.6,108.1,119.5,108.1z
		 M320.4,155.7c0,5.3-22.5,18.2-64.4,18.2s-64.4-13-64.4-18.2v-40.1c20.2,9,42.2,13.4,64.4,12.8c22.2,0.6,44.2-3.7,64.4-12.8V155.7z
		 M320,97.1c0,5.4-22.4,18.8-64,18.8s-64-13.3-64-18.8V55.9c20.1,9.3,42,13.8,64,13.1c22,0.7,43.9-3.8,64-13.1V97.1z M256,56.4
		c-42.1,0-64.8-16.1-64.8-22.7S213.9,11,256,11s64.8,16.1,64.8,22.7S298.1,56.4,256,56.4z M392.5,108c-8.1,0-14.6-6.5-14.6-14.6
		c0-8.1,6.5-14.6,14.6-14.6s14.6,6.5,14.6,14.6C407.1,101.5,400.6,108,392.5,108z"/>
	<path class="st1" d="M216.7,78h14.8v14.8h-14.8V78z"/>
	<path class="st1" d="M246.3,85.4h14.8v14.8h-14.8V85.4z"/>
	<path class="st1" d="M217.9,138.3h14v14h-14V138.3z"/>
	<path class="st1" d="M246,145.3h14v14h-14V145.3z"/>
</g>
</svg>
