<?xml version="1.0" encoding="utf-8"?>
<!-- Generator: Adobe Illustrator 25.3.1, SVG Export Plug-In . SVG Version: 6.00 Build 0)  -->
<svg version="1.1" id="Layer_1" xmlns="http://www.w3.org/2000/svg" xmlns:xlink="http://www.w3.org/1999/xlink" x="0px" y="0px"
	 viewBox="0 0 512 512" style="enable-background:new 0 0 512 512;" xml:space="preserve">
<style type="text/css">
	.st0{fill:#253B49;}
	.st1{fill:#FFFFFF;}
</style>
<g>
	<g>
		<g>
			<path class="st0" d="M212.2,377l-53.7-21.4l-4.9-7.3v-8.2c13.5-9.5,22.5-24.1,24.9-40.4h0.7c14.1,0,25.6-11.5,25.6-25.6
				c0-14.1-11.5-25.6-25.6-25.6h-1.5c-1.2-3.1-2.9-6-5.1-8.5c4.3-4.7,6.6-10.8,6.6-17.1v-25.6c0-4.7-3.8-8.5-8.5-8.5H93.9
				c-18.8,0-34.1,15.3-34.1,34.1v25.6c-14.1,0-25.6,11.5-25.6,25.6c0,14.1,11.5,25.6,25.6,25.6h0.7c2.4,16.3,11.4,31,24.9,40.4v8.2
				l-4.9,7.3L26.8,377C10.7,383.4,0,399.2,0.1,416.6v87.8c0,4.7,3.8,8.5,8.5,8.5h221.8c4.7,0,8.5-3.8,8.5-8.5v-87.8
				C239,399.2,228.4,383.4,212.2,377z M178.9,258.8c9.4,0,16.2,6.8,16.2,15.2s-6.8,15.2-16.2,15.2V258.8z M59.2,289.5
				c-8.5,0-15.4-6.9-15.4-15.4s6.9-15.4,15.4-15.4V289.5z M71.9,220.3c0-11.2,8.6-20.3,19.1-20.3h76.4v20.3c0,5.6-4.3,10.1-9.5,10.1
				H81.5c-3.3,0-6.5,0.6-9.6,1.8V220.3z M69.5,290.6v-38.4c0-5.3,4.5-9.6,10-9.6h80.1c5.5,0,10,4.3,10,9.6v38.4
				c0,26.5-22.4,48-50,48S69.5,317.1,69.5,290.6z M140.9,344.7l-1,2.1l-21.4,35.8l-20.4-37.8v-0.1
				C112.1,348.9,126.9,348.9,140.9,344.7z M36.3,399c-2.3,2.8-3,5.8-3.2,7.5v95H14v-88.3c0-11.7,7-22.2,17.9-26.5l37.8-15.1l0-0.2
				l22.2-8.6l1.7-0.7l16.8,27.9l-5,3.5H89l0-0.1l-15.4,0h-23C49.7,393.3,41.3,392.8,36.3,399z M191.5,501.2h-144v-94h144V501.2z
				 M224.6,498.3c-6.3-0.1-12.6-0.3-19-0.4c0.1-29.7,0.1-59.4,0.2-89c0.1-1.1,0.6-5.5-2.3-9.5c-4.1-5.6-11-5.5-11.6-5.4
				c-8.4-0.2-47.5-0.6-58.5-0.6c-2.3-1.9-4.7-3.7-7-5.6c2.8-4.1,5.6-8.3,8.3-12.6c2.8-4.4,5.5-8.7,8.1-13c3.1,1,44.6,14.9,64.6,25.7
				c3.7,2,9.1,5.2,12.8,11.4c3.8,6.5,3.8,12.9,3.9,15.9C224.3,429.5,224.7,459.2,224.6,498.3z"/>
		</g>
		<path class="st0" d="M140.8,310c-1.8-3-3.5-6-5.3-9c-2.4,1.5-8.2,4.6-16.3,4.6c-7.9,0.1-13.6-2.8-16.1-4.3
			c-1.7,2.9-3.4,5.7-5.1,8.6C111.4,317.6,127.6,317.6,140.8,310z"/>
		<path class="st0" d="M137.6,434.1c-4.6-4.6-11-7.5-18.1-7.5c-14.1,0-25.6,11.5-25.6,25.6c0,14.1,11.5,25.6,25.6,25.6
			c14.1,0,25.6-11.5,25.6-25.6C145.1,445.2,142.2,438.8,137.6,434.1z M119.5,466.7c-8,0-14.5-6.5-14.5-14.5c0-8,6.5-14.5,14.5-14.5
			s14.5,6.5,14.5,14.5C134,460.2,127.5,466.7,119.5,466.7z"/>
	</g>
	<g>
		<g>
			<path class="st0" d="M273.1,416.6v87.8c0,4.7,3.8,8.5,8.5,8.5h221.8c4.7,0,8.5-3.8,8.5-8.5v-87.8c0-17.5-10.6-33.2-26.8-39.7
				l-53.7-21.4l-4.9-7.3v-8.2c13.5-9.5,22.5-24.1,24.9-40.4h0.7c14.1,0,25.6-11.5,25.6-25.6c0-14.1-11.5-25.6-25.6-25.6v-25.6
				c0-18.8-15.3-34.1-34.1-34.1h-76.8c-4.7,0-8.5,3.8-8.5,8.5v25.6c0,6.3,2.4,12.4,6.6,17.1c-2.2,2.5-4,5.4-5.1,8.5h-1.5
				c-14.1,0-25.6,11.5-25.6,25.6c0,14.1,11.5,25.6,25.6,25.6h0.7c2.4,16.3,11.4,31,24.9,40.4v8.2l-4.9,7.3L299.8,377
				C283.6,383.4,273,399.2,273.1,416.6z M333.1,289.3c-9.4,0-16.2-6.8-16.2-15.2s6.8-15.2,16.2-15.2V289.3z M452.8,258.6
				c8.5,0,15.4,6.9,15.4,15.4s-6.9,15.4-15.4,15.4V258.6z M440.1,232.2c-3.1-1.2-6.3-1.8-9.6-1.8h-76.5c-5.3,0-9.5-4.5-9.5-10.1
				v-20.3H421c10.6,0,19.1,9.1,19.1,20.3V232.2z M392.5,338.6c-27.6,0-50-21.5-50-48v-38.4c0-5.3,4.5-9.6,10-9.6h80.1
				c5.5,0,10,4.3,10,9.6v38.4C442.5,317.1,420.1,338.6,392.5,338.6z M413.9,344.7v0.1l-20.4,37.8l-21.4-35.8l-1-2.1
				C385.1,348.9,399.9,348.9,413.9,344.7z M461.4,393.4h-23l-15.4,0l0,0.1h-16.4l-5-3.5l16.8-27.9l1.7,0.7l22.2,8.6l0,0.2l37.8,15.1
				c10.8,4.4,17.9,14.9,17.9,26.5v88.3h-19v-95c-0.2-1.7-0.9-4.7-3.2-7.5C470.7,392.8,462.3,393.3,461.4,393.4z M320.5,407.2h144v94
				h-144V407.2z M287.8,415.3c0-3,0-9.4,3.9-15.9c3.7-6.2,9.1-9.4,12.8-11.4c20.1-10.9,61.6-24.7,64.6-25.7c2.6,4.3,5.3,8.6,8.1,13
				c2.8,4.3,5.6,8.5,8.3,12.6c-2.3,1.9-4.7,3.7-7,5.6c-10.9,0-50.1,0.4-58.5,0.6c-0.6,0-7.5-0.2-11.6,5.4c-2.9,4-2.5,8.4-2.3,9.5
				c0.1,29.7,0.1,59.4,0.2,89c-6.3,0.1-12.7,0.3-19,0.4C287.3,459.2,287.7,429.5,287.8,415.3z"/>
		</g>
		<path class="st0" d="M413.8,310c-1.7-2.9-3.4-5.7-5.1-8.6c-2.5,1.4-8.2,4.3-16.1,4.3c-8-0.1-13.8-3.2-16.3-4.6c-1.8,3-3.5,6-5.3,9
			C384.4,317.6,400.6,317.6,413.8,310z"/>
		<path class="st0" d="M366.9,452.2c0,14.1,11.5,25.6,25.6,25.6c14.1,0,25.6-11.5,25.6-25.6c0-14.1-11.5-25.6-25.6-25.6
			c-7.1,0-13.5,2.9-18.1,7.5C369.8,438.8,366.9,445.2,366.9,452.2z M378,452.2c0-8,6.5-14.5,14.5-14.5s14.5,6.5,14.5,14.5
			c0,8-6.5,14.5-14.5,14.5S378,460.2,378,452.2z"/>
	</g>
	<path class="st0" d="M416.4,85.2c-3.2-9.4-12.7-16.9-23.9-16.9c-10.8,0.1-20.4,6.9-24.1,17.1h-35.7V34.2
		c0-22.4-38.7-34.1-76.8-34.1s-76.8,11.7-76.8,34.1v51.2h-35.7C138.9,72,124.3,65,111,69.6c-14,4.9-19.8,20.6-15.8,32.6
		c4.1,12,16.5,16.1,17.9,16.5c0,17.3,0,34.7,0,52c4.2,0,8.4,0,12.6,0c0-17.4,0-34.8,0-52.1c2.3-0.6,7.3-2.2,11.7-6.7
		c3.6-3.5,5.3-7.3,6-9.5h35.7v51.2c0,22.4,38.7,34.1,76.8,34.1s76.8-11.7,76.8-34.1v-51.2h35.7c0.8,2.2,2.5,6,6,9.5
		c4.7,4.6,9.9,6.2,12.2,6.8c0,17.3,0,34.7,0,52c4,0,8,0.1,12,0.1c0-17.3-0.1-34.6-0.1-51.9C413.4,113.2,420.6,97.7,416.4,85.2z
		 M119.5,108.6c-8.1,0-14.7-6.6-14.7-14.7c0-8.1,6.6-14.7,14.7-14.7s14.7,6.6,14.7,14.7C134.2,102,127.6,108.6,119.5,108.6z
		 M320.4,156.2c0,5.3-22.5,18.2-64.4,18.2s-64.4-13-64.4-18.2v-40.1c20.2,9,42.2,13.4,64.4,12.8c22.2,0.6,44.2-3.7,64.4-12.8V156.2z
		 M320,97.6c0,5.4-22.4,18.8-64,18.8s-64-13.3-64-18.8V56.4c20.1,9.3,42,13.8,64,13.1c22,0.7,43.9-3.8,64-13.1V97.6z M256,56.9
		c-42.1,0-64.8-16.1-64.8-22.7s22.7-22.7,64.8-22.7s64.8,16.1,64.8,22.7S298.1,56.9,256,56.9z M392.5,108.5
		c-8.1,0-14.6-6.5-14.6-14.6c0-8.1,6.5-14.6,14.6-14.6s14.6,6.5,14.6,14.6C407.1,102,400.6,108.5,392.5,108.5z"/>
	<path class="st0" d="M216.7,78.5h14.8v14.8h-14.8V78.5z"/>
	<path class="st0" d="M246.3,85.9h14.8v14.8h-14.8V85.9z"/>
	<path class="st0" d="M217.9,138.8h14v14h-14V138.8z"/>
	<path class="st0" d="M246,145.8h14v14h-14V145.8z"/>
</g>
<g>
	<g>
		<g>
			<path class="st1" d="M-320.9,371.8l-53.7-21.4l-4.9-7.3v-8.2c13.5-9.5,22.5-24.1,24.9-40.4h0.7c14.1,0,25.6-11.5,25.6-25.6
				c0-14.1-11.5-25.6-25.6-25.6h-1.5c-1.2-3.1-2.9-6-5.1-8.5c4.3-4.7,6.6-10.8,6.6-17.1v-25.6c0-4.7-3.8-8.5-8.5-8.5h-76.8
				c-18.8,0-34.1,15.3-34.1,34.1v25.6c-14.1,0-25.6,11.5-25.6,25.6c0,14.1,11.5,25.6,25.6,25.6h0.7c2.4,16.3,11.4,31,24.9,40.4v8.2
				l-4.9,7.3l-53.7,21.4c-16.2,6.5-26.8,22.2-26.8,39.7v87.8c0,4.7,3.8,8.5,8.5,8.5h221.8c4.7,0,8.5-3.8,8.5-8.5v-87.8
				C-294.1,394-304.7,378.3-320.9,371.8z M-354.2,253.7c9.4,0,16.2,6.8,16.2,15.2s-6.8,15.2-16.2,15.2V253.7z M-473.8,284.3
				c-8.5,0-15.4-6.9-15.4-15.4s6.9-15.4,15.4-15.4V284.3z M-461.1,215.1c0-11.2,8.6-20.3,19.1-20.3h76.4v20.3
				c0,5.6-4.3,10.1-9.5,10.1h-76.5c-3.3,0-6.5,0.6-9.6,1.8V215.1z M-463.6,285.5v-38.4c0-5.3,4.5-9.6,10-9.6h80.1
				c5.5,0,10,4.3,10,9.6v38.4c0,26.5-22.4,48-50,48S-463.6,312-463.6,285.5z M-392.1,339.6l-1,2.1l-21.4,35.8l-20.4-37.8v-0.1
				C-421,343.7-406.1,343.7-392.1,339.6z M-496.8,393.9c-2.3,2.8-3,5.8-3.2,7.5v95h-19v-88.3c0-11.7,7.1-22.2,17.9-26.5l37.8-15.1
				l0-0.2l22.2-8.6l1.7-0.7l16.8,27.9l-5,3.5h-16.4l0-0.1l-15.4,0h-23C-483.4,388.2-491.7,387.6-496.8,393.9z M-341.6,496.1h-144
				v-94h144V496.1z M-308.5,493.1c-6.3-0.1-12.6-0.3-19-0.4c0.1-29.7,0.1-59.4,0.2-89c0.1-1.1,0.6-5.5-2.3-9.5
				c-4.1-5.6-11-5.5-11.6-5.4c-8.4-0.2-47.5-0.6-58.5-0.6c-2.3-1.9-4.7-3.7-7-5.6c2.8-4.1,5.6-8.3,8.3-12.6c2.8-4.4,5.5-8.7,8.1-13
				c3.1,1,44.6,14.9,64.6,25.7c3.7,2,9.1,5.2,12.8,11.4c3.8,6.5,3.8,12.9,3.9,15.9C-308.7,424.4-308.4,454-308.5,493.1z"/>
		</g>
		<path class="st1" d="M-392.2,304.9c-1.8-3-3.5-6-5.3-9c-2.4,1.5-8.2,4.6-16.3,4.6c-7.9,0.1-13.6-2.8-16.1-4.3
			c-1.7,2.9-3.4,5.7-5.1,8.6C-421.7,312.5-405.4,312.5-392.2,304.9z"/>
		<path class="st1" d="M-395.4,429c-4.6-4.6-11-7.5-18.1-7.5c-14.1,0-25.6,11.5-25.6,25.6c0,14.1,11.5,25.6,25.6,25.6
			c14.1,0,25.6-11.5,25.6-25.6C-387.9,440-390.8,433.6-395.4,429z M-413.5,461.6c-8,0-14.5-6.5-14.5-14.5c0-8,6.5-14.5,14.5-14.5
			s14.5,6.5,14.5,14.5C-399,455.1-405.5,461.6-413.5,461.6z"/>
	</g>
	<g>
		<g>
			<path class="st1" d="M-260,411.5v87.8c0,4.7,3.8,8.5,8.5,8.5h221.8c4.7,0,8.5-3.8,8.5-8.5v-87.8c0-17.5-10.6-33.2-26.8-39.7
				l-53.7-21.4l-4.9-7.3v-8.2c13.5-9.5,22.5-24.1,24.9-40.4h0.7c14.1,0,25.6-11.5,25.6-25.6c0-14.1-11.5-25.6-25.6-25.6v-25.6
				c0-18.8-15.3-34.1-34.1-34.1h-76.8c-4.7,0-8.5,3.8-8.5,8.5v25.6c0,6.3,2.4,12.4,6.6,17.1c-2.2,2.5-4,5.4-5.1,8.5h-1.5
				c-14.1,0-25.6,11.5-25.6,25.6c0,14.1,11.5,25.6,25.6,25.6h0.7c2.4,16.3,11.4,31,24.9,40.4v8.2l-4.9,7.3l-53.7,21.4
				C-249.4,378.3-260,394-260,411.5z M-199.9,284.1c-9.4,0-16.2-6.8-16.2-15.2s6.8-15.2,16.2-15.2V284.1z M-80.3,253.5
				c8.5,0,15.4,6.9,15.4,15.4s-6.9,15.4-15.4,15.4V253.5z M-92.9,227.1c-3.1-1.2-6.3-1.8-9.6-1.8H-179c-5.3,0-9.5-4.5-9.5-10.1
				v-20.3h76.4c10.6,0,19.1,9.1,19.1,20.3V227.1z M-140.5,333.4c-27.6,0-50-21.5-50-48v-38.4c0-5.3,4.5-9.6,10-9.6h80.1
				c5.5,0,10,4.3,10,9.6v38.4C-90.5,312-112.9,333.4-140.5,333.4z M-119.1,339.6v0.1l-20.4,37.8l-21.4-35.8l-1-2.1
				C-148,343.7-133.1,343.7-119.1,339.6z M-71.6,388.2h-23l-15.4,0l0,0.1h-16.4l-5-3.5l16.8-27.9l1.7,0.7l22.2,8.6l0,0.2l37.8,15.1
				c10.8,4.4,17.9,14.9,17.9,26.5v88.3h-19v-95c-0.2-1.7-0.9-4.7-3.2-7.5C-62.4,387.6-70.7,388.2-71.6,388.2z M-212.5,402h144v94
				h-144V402z M-245.2,410.1c0-3,0-9.4,3.9-15.9c3.7-6.2,9.1-9.4,12.8-11.4c20.1-10.9,61.6-24.7,64.6-25.7c2.6,4.3,5.3,8.6,8.1,13
				c2.8,4.3,5.6,8.5,8.3,12.6c-2.3,1.9-4.7,3.7-7,5.6c-10.9,0-50.1,0.4-58.5,0.6c-0.6,0-7.5-0.2-11.6,5.4c-2.9,4-2.5,8.4-2.3,9.5
				c0.1,29.7,0.1,59.4,0.2,89c-6.3,0.1-12.7,0.3-19,0.4C-245.7,454-245.3,424.4-245.2,410.1z"/>
		</g>
		<path class="st1" d="M-119.2,304.9c-1.7-2.9-3.4-5.7-5.1-8.6c-2.5,1.4-8.2,4.3-16.1,4.3c-8-0.1-13.8-3.2-16.3-4.6
			c-1.8,3-3.5,6-5.3,9C-148.7,312.5-132.4,312.5-119.2,304.9z"/>
		<path class="st1" d="M-166.1,447.1c0,14.1,11.5,25.6,25.6,25.6c14.1,0,25.6-11.5,25.6-25.6c0-14.1-11.5-25.6-25.6-25.6
			c-7.1,0-13.5,2.9-18.1,7.5C-163.3,433.6-166.1,440-166.1,447.1z M-155,447.1c0-8,6.5-14.5,14.5-14.5s14.5,6.5,14.5,14.5
			c0,8-6.5,14.5-14.5,14.5S-155,455.1-155,447.1z"/>
	</g>
	<path class="st1" d="M-116.7,80c-3.2-9.4-12.7-16.9-23.9-16.9c-10.8,0.1-20.4,6.9-24.1,17.1h-35.7V29c0-22.4-38.7-34.1-76.8-34.1
		S-353.8,6.6-353.8,29v51.2h-35.7c-4.7-13.3-19.2-20.4-32.6-15.8c-14,4.9-19.8,20.6-15.8,32.6c4.1,12,16.5,16.1,17.9,16.5
		c0,17.3,0,34.7,0,52c4.2,0,8.4,0,12.6,0c0-17.4,0-34.8,0-52.1c2.3-0.6,7.3-2.2,11.7-6.7c3.6-3.5,5.3-7.3,6-9.5h35.7v51.2
		c0,22.4,38.7,34.1,76.8,34.1s76.8-11.7,76.8-34.1V97.3h35.7c0.8,2.2,2.5,6,6,9.5c4.7,4.6,9.9,6.2,12.2,6.8c0,17.3,0,34.7,0,52
		c4,0,8,0.1,12,0.1c0-17.3-0.1-34.6-0.1-51.9C-119.7,108.1-112.4,92.6-116.7,80z M-413.5,103.5c-8.1,0-14.7-6.6-14.7-14.7
		c0-8.1,6.6-14.7,14.7-14.7s14.7,6.6,14.7,14.7C-398.8,96.9-405.4,103.5-413.5,103.5z M-212.6,151.1c0,5.3-22.5,18.2-64.4,18.2
		s-64.4-13-64.4-18.2v-40.1c20.2,9,42.2,13.4,64.4,12.8c22.2,0.6,44.2-3.7,64.4-12.8V151.1z M-213,92.5c0,5.4-22.4,18.8-64,18.8
		s-64-13.3-64-18.8V51.2c20.1,9.3,42,13.8,64,13.1c22,0.7,43.9-3.8,64-13.1V92.5z M-277,51.8c-42.1,0-64.8-16.1-64.8-22.7
		S-319.1,6.3-277,6.3s64.8,16.1,64.8,22.7S-234.9,51.8-277,51.8z M-140.5,103.4c-8.1,0-14.6-6.5-14.6-14.6c0-8.1,6.5-14.6,14.6-14.6
		s14.6,6.5,14.6,14.6C-125.9,96.8-132.5,103.4-140.5,103.4z"/>
	<path class="st1" d="M-316.3,73.4h14.8v14.8h-14.8V73.4z"/>
	<path class="st1" d="M-286.7,80.8h14.8v14.8h-14.8V80.8z"/>
	<path class="st1" d="M-315.2,133.7h14v14h-14V133.7z"/>
	<path class="st1" d="M-287.1,140.7h14v14h-14V140.7z"/>
</g>
</svg>
