<?xml version="1.0" encoding="utf-8"?>
<!-- Generator: Adobe Illustrator 25.3.1, SVG Export Plug-In . SVG Version: 6.00 Build 0)  -->
<svg version="1.1" id="Layer_1" xmlns="http://www.w3.org/2000/svg" xmlns:xlink="http://www.w3.org/1999/xlink" x="0px" y="0px"
	 viewBox="0 0 512 512" style="enable-background:new 0 0 512 512;" xml:space="preserve">
<style type="text/css">
	.st0{fill:#253B49;}
	.st1{fill:#FFFFFF;}
</style>
<g>
	<path class="st0" d="M1079.3,368.1l-53.7-21.4l-4.9-7.3v-8.2c13.5-9.5,22.5-24.1,24.9-40.4h0.7c14.1,0,25.6-11.5,25.6-25.6
		s-11.5-25.6-25.6-25.6l0,0h-1.5c-1.2-3.1-2.9-6-5.1-8.5c4.3-4.7,6.6-10.7,6.7-17.1v-25.6c0-4.7-3.8-8.5-8.5-8.5H961
		c-18.8,0-34.1,15.3-34.1,34.1v25.6c-14.1,0-25.6,11.5-25.6,25.6s11.5,25.6,25.6,25.6h0.7c2.4,16.3,11.4,31,24.9,40.4v8.2l-4.9,7.3
		L894,368.1c-16.2,6.5-26.8,22.2-26.8,39.7v87.8c0,4.7,3.8,8.5,8.5,8.5h221.8c4.7,0,8.5-3.8,8.5-8.5v-87.8
		C1106.1,390.3,1095.5,374.6,1079.3,368.1z M1046.3,256.7c4.7,0,8.5,3.8,8.5,8.5s-3.8,8.5-8.5,8.5V256.7z M926.9,273.7
		c-4.7,0-8.5-3.8-8.5-8.5s3.8-8.5,8.5-8.5V273.7z M944,214c0-9.4,7.7-17,17.1-17.1h68.2V214c0,4.7-3.8,8.5-8.5,8.5h-68.2
		c-2.9,0-5.8,0.5-8.5,1.5V214z M944,282.3v-34.1c0-4.7,3.8-8.5,8.5-8.5h68.2c4.7,0,8.5,3.8,8.5,8.5v34.1c0,23.6-19.1,42.7-42.7,42.7
		S944,305.8,944,282.3z M969.6,339.6L969.6,339.6c11.1,3.2,23,3.2,34.1-0.1v0.1l-17.1,28.5L969.6,339.6z M975.4,382.4l-2.9,2.2
		h-16.4l-3.1-15.3l7.7-11.4L975.4,382.4z M1012.6,357.9l7.7,11.4l-3.1,15.3h-16.4l-2.9-2.2L1012.6,357.9z M901.3,401.7V487h-17.1
		v-79.3c0-10.5,6.3-19.9,16-23.8l35.4-14.2l3,14.8h-20.3C909,384.7,901.3,392.3,901.3,401.7z M1054.9,487H918.4v-85.3h136.5V487z
		 M1089,487h-17.1v-85.3c0-9.4-7.7-17-17.1-17.1h-20.3l3-14.8L1073,384c9.7,3.9,16.1,13.3,16,23.8V487z"/>
	<path class="st0" d="M1007.9,302.1l-8.5-14.8c-7.9,4.5-17.6,4.5-25.6,0l-8.5,14.8C978.5,309.8,994.8,309.8,1007.9,302.1z"/>
	<path class="st0" d="M986.6,418.8c-14.1,0-25.6,11.5-25.6,25.6s11.5,25.6,25.6,25.6s25.6-11.5,25.6-25.6l0,0
		C1012.2,430.2,1000.8,418.8,986.6,418.8z M986.6,452.9c-4.7,0-8.5-3.8-8.5-8.5s3.8-8.5,8.5-8.5c4.7,0,8.5,3.8,8.5,8.5
		S991.3,452.9,986.6,452.9z"/>
	<path class="st0" d="M806.3,368.1l-53.7-21.4l-4.9-7.3v-8.2c13.5-9.5,22.5-24.1,24.9-40.4h0.7c14.1,0,25.6-11.5,25.6-25.6
		s-11.5-25.6-25.6-25.6h-1.5c-1.2-3.1-2.9-6-5.1-8.5c4.3-4.7,6.6-10.7,6.7-17.1v-25.6c0-4.7-3.8-8.5-8.5-8.5H688
		c-18.8,0-34.1,15.3-34.1,34.1v25.6c-14.1,0-25.6,11.5-25.6,25.6s11.5,25.6,25.6,25.6h0.7c2.4,16.3,11.4,31,24.9,40.4v8.2l-4.9,7.3
		L621,368.1c-16.2,6.5-26.8,22.2-26.8,39.7v87.8c0,4.7,3.8,8.5,8.5,8.5h221.8c4.7,0,8.5-3.8,8.5-8.5v-87.8
		C833.1,390.3,822.5,374.6,806.3,368.1z M773.3,256.7c4.7,0,8.5,3.8,8.5,8.5s-3.8,8.5-8.5,8.5V256.7z M653.9,273.7
		c-4.7,0-8.5-3.8-8.5-8.5s3.8-8.5,8.5-8.5V273.7z M671,214c0-9.4,7.7-17,17.1-17.1h68.2V214c0,4.7-3.8,8.5-8.5,8.5h-68.2
		c-2.9,0-5.8,0.5-8.5,1.5V214z M671,282.3v-34.1c0-4.7,3.8-8.5,8.5-8.5h68.2c4.7,0,8.5,3.8,8.5,8.5v34.1c0,23.6-19.1,42.7-42.7,42.7
		C690.1,324.9,671,305.8,671,282.3z M696.6,339.6L696.6,339.6c11.1,3.2,23,3.2,34.1-0.1v0.1l-17.1,28.5L696.6,339.6z M702.4,382.4
		l-2.9,2.2h-16.4l-3.1-15.3l7.7-11.4L702.4,382.4z M739.6,357.9l7.7,11.4l-3.1,15.3h-16.4l-2.9-2.2L739.6,357.9z M628.3,401.7V487
		h-17.1v-79.3c0-10.5,6.3-19.9,16-23.8l35.4-14.2l3,14.8h-20.3C636,384.7,628.3,392.3,628.3,401.7z M781.9,487H645.4v-85.3h136.5
		V487z M816,487h-17.1v-85.3c0-9.4-7.7-17-17.1-17.1h-20.3l3-14.8L800,384c9.7,3.9,16.1,13.3,16,23.8V487z"/>
	<path class="st0" d="M735,302.1l-8.5-14.8c-7.9,4.5-17.6,4.5-25.6,0l-8.5,14.8C705.5,309.8,721.8,309.8,735,302.1z"/>
	<path class="st0" d="M713.6,418.8c-14.1,0-25.6,11.5-25.6,25.6s11.5,25.6,25.6,25.6c14.1,0,25.6-11.5,25.6-25.6l0,0
		C739.2,430.2,727.8,418.8,713.6,418.8z M713.6,452.9c-4.7,0-8.5-3.8-8.5-8.5s3.8-8.5,8.5-8.5c4.7,0,8.5,3.8,8.5,8.5
		S718.3,452.9,713.6,452.9z"/>
	<path class="st0" d="M986.6,60.5c-10.8,0.1-20.4,6.9-24.1,17.1h-35.7V26.3c0-22.4-38.6-34.1-76.8-34.1s-76.8,11.7-76.8,34.1v51.2
		h-35.7c-4.7-13.3-19.2-20.4-32.6-15.7c-13.3,4.7-20.4,19.2-15.7,32.6c2.6,7.4,8.4,13.2,15.7,15.7v52.7h17.1v-52.7
		c7.2-2.6,12.9-8.3,15.5-15.5h35.7v51.2c0,22.4,38.6,34.1,76.8,34.1s76.8-11.7,76.8-34.1V94.6h35.7c2.6,7.2,8.3,12.9,15.5,15.5v52.7
		h17.1v-52.7c13.3-4.8,20.2-19.5,15.3-32.8C1006.8,67.3,997.3,60.5,986.6,60.5z M713.6,94.6c-4.7,0-8.5-3.8-8.5-8.5s3.8-8.5,8.5-8.5
		c4.7,0,8.5,3.8,8.5,8.5S718.3,94.6,713.6,94.6z M909.8,145.8c0,4.9-20.9,17.1-59.7,17.1c-38.8,0-59.7-12.1-59.7-17.1v-37.5
		c18.7,8.5,39.2,12.5,59.7,11.9c20.6,0.6,41-3.5,59.7-11.9V145.8z M909.8,86.1c0,4.9-20.9,17.1-59.7,17.1
		c-38.8,0-59.7-12.1-59.7-17.1V48.5c18.7,8.5,39.2,12.5,59.7,11.9c20.6,0.6,41-3.5,59.7-11.9V86.1z M850.1,43.4
		c-38.8,0-59.7-12.1-59.7-17.1s20.9-17.1,59.7-17.1c38.8,0,59.7,12.1,59.7,17.1S888.9,43.4,850.1,43.4z M986.6,94.6
		c-4.7,0-8.5-3.8-8.5-8.5s3.8-8.5,8.5-8.5c4.7,0,8.5,3.8,8.5,8.5S991.3,94.6,986.6,94.6z"/>
	<path class="st0" d="M807.5,69h17.1v17.1h-17.1V69z"/>
	<path class="st0" d="M841.6,77.5h17.1v17.1h-17.1V77.5z"/>
	<path class="st0" d="M807.5,128.7h17.1v17.1h-17.1V128.7z"/>
	<path class="st0" d="M841.6,137.2h17.1v17.1h-17.1V137.2z"/>
</g>
<g>
	<path class="st0" d="M503.7,0.8H8.3c-4.2,0-7.5,3.4-7.5,7.5v364.1c0,4.2,3.4,7.5,7.5,7.5c0,0,0,0,0,0h215.3l-11.1,65.3
		c-28.7,4.7-49.7,29.4-49.8,58.4c0,4.2,3.4,7.5,7.5,7.5h171.5c4.2,0,7.5-3.4,7.5-7.5c-0.1-29-21.1-53.7-49.7-58.4L288.4,380h215.3
		c4.2,0,7.5-3.4,7.5-7.5c0,0,0,0,0,0V8.3C511.2,4.1,507.9,0.8,503.7,0.8z M135.7,293h240.5c4.2,0,7.5-3.4,7.5-7.5c0,0,0,0,0,0V41.7
		h86.5v271.5H41.7V41.7h86.5v243.8C128.2,289.6,131.6,293,135.7,293C135.7,293,135.7,293,135.7,293z M368.7,15.9v262.1H143.3V15.9
		H368.7z M333.6,496.1H178.5c3.7-21.1,22-36.6,43.5-36.6H290C311.5,459.6,329.9,475,333.6,496.1L333.6,496.1z M284.1,444.5h-56.2
		l11-64.5h34.2L284.1,444.5z M496.1,364.9H15.9v-349h112.4v10.8h-94c-4.2,0-7.5,3.4-7.5,7.5v286.6c0,4.2,3.4,7.5,7.5,7.5h443.7
		c4.2,0,7.5-3.4,7.5-7.5V34.2c0-4.2-3.4-7.5-7.5-7.5h-94V15.9h112.4V364.9z"/>
	<path class="st0" d="M452,129.3c4.2,0,7.5-3.4,7.5-7.5V84.5c0-4.2-3.4-7.5-7.5-7.5s-7.5,3.4-7.5,7.5v37.2
		C444.5,125.9,447.8,129.3,452,129.3z"/>
	<path class="st0" d="M317.1,227.9v-11c3.5,0.9,6.7,2.5,9.5,4.8l5.3-7.3c-4.2-3.6-9.3-5.8-14.8-6.3v-4.3h-6.7v4.3
		c-8.8,1.1-14.5,6.8-14.5,14.6c0,8.3,5.9,11.4,14.5,13.7v11.4c-4-1-7.7-2.9-10.8-5.7l-5.9,7c4.6,4.2,10.4,6.9,16.6,7.6v4.6h6.7v-4.3
		c10.2-0.8,16.1-6.6,16.1-15C333.3,233.2,326.9,230.2,317.1,227.9L317.1,227.9z M310.5,226.1c-3-1-4.3-2.3-4.3-4.6
		c0.1-2.4,1.9-4.4,4.3-4.7V226.1z M317.1,248.1v-10.2c4.2,1.2,5.9,2.4,5.9,5C323,245.5,321,247.6,317.1,248.1z"/>
	<path class="st0" d="M298.7,121.7h29.8c4.2,0,7.5-3.4,7.5-7.5c0-4.2-3.4-7.5-7.5-7.5h-29.8c-4.2,0-7.5,3.4-7.5,7.5
		C291.2,118.4,294.6,121.7,298.7,121.7z"/>
	<path class="st0" d="M298.7,154.4h29.8c4.2,0,7.5-3.4,7.5-7.5s-3.4-7.5-7.5-7.5h-29.8c-4.2,0-7.5,3.4-7.5,7.5
		S294.6,154.4,298.7,154.4z"/>
	<path class="st0" d="M298.7,89.1h29.8c4.2,0,7.5-3.4,7.5-7.5s-3.4-7.5-7.5-7.5h-29.8c-4.2,0-7.5,3.4-7.5,7.5S294.6,89.1,298.7,89.1
		z"/>
	<path class="st0" d="M298.7,56.4h29.8c4.2,0,7.5-3.4,7.5-7.5c0-4.2-3.4-7.5-7.5-7.5h-29.8c-4.2,0-7.5,3.4-7.5,7.5
		C291.2,53,294.6,56.4,298.7,56.4z"/>
	<path class="st0" d="M183.5,187.1h145c4.2,0,7.5-3.4,7.5-7.5s-3.4-7.5-7.5-7.5h-145c-4.2,0-7.5,3.4-7.5,7.5
		S179.3,187.1,183.5,187.1z"/>
	<path class="st0" d="M183.5,219.8h82.7c4.2,0,7.5-3.4,7.5-7.5s-3.4-7.5-7.5-7.5h-82.7c-4.2,0-7.5,3.4-7.5,7.5
		S179.3,219.8,183.5,219.8z"/>
	<path class="st0" d="M183.5,252.5h82.7c4.2,0,7.5-3.4,7.5-7.5s-3.4-7.5-7.5-7.5h-82.7c-4.2,0-7.5,3.4-7.5,7.5
		S179.3,252.5,183.5,252.5z"/>
	<path class="st0" d="M226.6,142.5c28,0,50.6-22.7,50.6-50.6s-22.7-50.6-50.6-50.6S176,64,176,91.9
		C176,119.9,198.6,142.5,226.6,142.5z M226.6,56.4c19.6,0,35.5,15.9,35.5,35.5s-15.9,35.5-35.5,35.5S191,111.5,191,91.9l0,0
		C191,72.3,206.9,56.4,226.6,56.4z"/>
	<path class="st0" d="M212,110.9c2.9,2.9,7.7,2.9,10.7,0l27.3-27.3c3-2.9,3.1-7.7,0.2-10.7c-2.9-3-7.7-3.1-10.7-0.2
		c-0.1,0.1-0.1,0.1-0.2,0.2l-21.9,21.9l-3.5-3.5c-2.9-2.9-7.7-2.9-10.7,0c-2.9,2.9-2.9,7.7,0,10.7L212,110.9z"/>
</g>
<g>
	<path class="st1" d="M-29.3-3.9h-495.4c-4.2,0-7.5,3.4-7.5,7.5v364.1c0,4.2,3.4,7.5,7.5,7.5c0,0,0,0,0,0h215.3l-11.1,65.3
		c-28.7,4.7-49.7,29.4-49.8,58.4c0,4.2,3.4,7.5,7.5,7.5h171.5c4.2,0,7.5-3.4,7.5-7.5c-0.1-29-21.1-53.7-49.7-58.4l-11.1-65.3h215.3
		c4.2,0,7.5-3.4,7.5-7.5c0,0,0,0,0,0V3.7C-21.8-0.5-25.2-3.9-29.3-3.9z M-397.3,288.4h240.5c4.2,0,7.5-3.4,7.5-7.5c0,0,0,0,0,0V37.1
		h86.5v271.5h-428.6V37.1h86.5v243.8C-404.8,285-401.5,288.4-397.3,288.4C-397.3,288.4-397.3,288.4-397.3,288.4z M-164.3,11.2v262.1
		h-225.4V11.2H-164.3z M-199.5,491.5h-155.1c3.7-21.1,22-36.6,43.5-36.6h68.1C-221.5,454.9-203.2,470.3-199.5,491.5L-199.5,491.5z
		 M-248.9,439.8h-56.2l11-64.5h34.2L-248.9,439.8z M-36.9,360.2h-480.3v-349h112.4V22h-94c-4.2,0-7.5,3.4-7.5,7.5v286.6
		c0,4.2,3.4,7.5,7.5,7.5h443.7c4.2,0,7.5-3.4,7.5-7.5V29.5c0-4.2-3.4-7.5-7.5-7.5h-94V11.2h112.4V360.2z"/>
	<path class="st1" d="M-81,124.6c4.2,0,7.5-3.4,7.5-7.5V79.9c0-4.2-3.4-7.5-7.5-7.5c-4.2,0-7.5,3.4-7.5,7.5v37.2
		C-88.6,121.3-85.2,124.6-81,124.6z"/>
	<path class="st1" d="M-215.9,223.3v-11c3.5,0.9,6.7,2.5,9.5,4.8l5.3-7.3c-4.2-3.6-9.3-5.8-14.8-6.3V199h-6.7v4.3
		c-8.8,1.1-14.5,6.8-14.5,14.6c0,8.3,5.9,11.4,14.5,13.7V243c-4-1-7.7-2.9-10.8-5.7l-5.9,7c4.6,4.2,10.4,6.9,16.6,7.6v4.6h6.7v-4.3
		c10.2-0.8,16.1-6.6,16.1-15C-199.8,228.6-206.2,225.5-215.9,223.3L-215.9,223.3z M-222.6,221.5c-3-1-4.3-2.3-4.3-4.6
		c0.1-2.4,1.9-4.4,4.3-4.7V221.5z M-215.9,243.4v-10.2c4.2,1.2,5.9,2.4,5.9,5C-210,240.8-212,242.9-215.9,243.4z"/>
	<path class="st1" d="M-234.3,117.1h29.8c4.2,0,7.5-3.4,7.5-7.5c0-4.2-3.4-7.5-7.5-7.5h-29.8c-4.2,0-7.5,3.4-7.5,7.5
		C-241.9,113.7-238.5,117.1-234.3,117.1z"/>
	<path class="st1" d="M-234.3,149.8h29.8c4.2,0,7.5-3.4,7.5-7.5s-3.4-7.5-7.5-7.5h-29.8c-4.2,0-7.5,3.4-7.5,7.5
		S-238.5,149.8-234.3,149.8z"/>
	<path class="st1" d="M-234.3,84.4h29.8c4.2,0,7.5-3.4,7.5-7.5s-3.4-7.5-7.5-7.5h-29.8c-4.2,0-7.5,3.4-7.5,7.5
		S-238.5,84.4-234.3,84.4z"/>
	<path class="st1" d="M-234.3,51.7h29.8c4.2,0,7.5-3.4,7.5-7.5s-3.4-7.5-7.5-7.5h-29.8c-4.2,0-7.5,3.4-7.5,7.5
		S-238.5,51.7-234.3,51.7z"/>
	<path class="st1" d="M-349.5,182.5h145c4.2,0,7.5-3.4,7.5-7.5s-3.4-7.5-7.5-7.5h-145c-4.2,0-7.5,3.4-7.5,7.5
		S-353.7,182.5-349.5,182.5z"/>
	<path class="st1" d="M-349.5,215.2h82.7c4.2,0,7.5-3.4,7.5-7.5c0-4.2-3.4-7.5-7.5-7.5h-82.7c-4.2,0-7.5,3.4-7.5,7.5
		C-357.1,211.8-353.7,215.2-349.5,215.2z"/>
	<path class="st1" d="M-349.5,247.9h82.7c4.2,0,7.5-3.4,7.5-7.5s-3.4-7.5-7.5-7.5h-82.7c-4.2,0-7.5,3.4-7.5,7.5
		S-353.7,247.9-349.5,247.9z"/>
	<path class="st1" d="M-306.5,137.9c28,0,50.6-22.7,50.6-50.6s-22.7-50.6-50.6-50.6c-28,0-50.6,22.7-50.6,50.6
		C-357,115.2-334.4,137.8-306.5,137.9z M-306.5,51.7c19.6,0,35.5,15.9,35.5,35.5s-15.9,35.5-35.5,35.5c-19.6,0-35.5-15.9-35.5-35.5
		l0,0C-342,67.6-326.1,51.7-306.5,51.7z"/>
	<path class="st1" d="M-321,106.2c2.9,2.9,7.7,2.9,10.7,0l27.3-27.3c3-2.9,3.1-7.7,0.2-10.7s-7.7-3.1-10.7-0.2
		c-0.1,0.1-0.1,0.1-0.2,0.2l-21.9,21.9l-3.5-3.5c-2.9-2.9-7.7-2.9-10.7,0c-2.9,2.9-2.9,7.7,0,10.7L-321,106.2z"/>
</g>
</svg>
