<?xml version="1.0" encoding="utf-8"?>
<!-- Generator: Adobe Illustrator 25.3.1, SVG Export Plug-In . SVG Version: 6.00 Build 0)  -->
<svg version="1.1" id="Layer_1" xmlns="http://www.w3.org/2000/svg" xmlns:xlink="http://www.w3.org/1999/xlink" x="0px" y="0px"
	 viewBox="0 0 512 512" style="enable-background:new 0 0 512 512;" xml:space="preserve">
<style type="text/css">
	.st0{fill:#253B49;}
	.st1{fill:#FFFFFF;}
</style>
<g>
	<path class="st0" d="M1612.3,372.7l-53.7-21.4l-4.9-7.3v-8.2c13.5-9.5,22.5-24.1,24.9-40.4h0.7c14.1,0,25.6-11.5,25.6-25.6
		c0-14.1-11.5-25.6-25.6-25.6l0,0h-1.5c-1.2-3.1-2.9-6-5.1-8.5c4.3-4.7,6.6-10.7,6.7-17.1v-25.6c0-4.7-3.8-8.5-8.5-8.5h-76.8
		c-18.8,0-34.1,15.3-34.1,34.1v25.6c-14.1,0-25.6,11.5-25.6,25.6c0,14.1,11.5,25.6,25.6,25.6h0.7c2.4,16.3,11.4,31,24.9,40.4v8.2
		l-4.9,7.3l-53.7,21.4c-16.2,6.5-26.8,22.2-26.8,39.7v87.8c0,4.7,3.8,8.5,8.5,8.5h221.8c4.7,0,8.5-3.8,8.5-8.5v-87.8
		C1639.1,395,1628.5,379.2,1612.3,372.7z M1579.4,261.3c4.7,0,8.5,3.8,8.5,8.5s-3.8,8.5-8.5,8.5V261.3z M1459.9,278.4
		c-4.7,0-8.5-3.8-8.5-8.5s3.8-8.5,8.5-8.5V278.4z M1477,218.7c0-9.4,7.7-17,17.1-17.1h68.2v17.1c0,4.7-3.8,8.5-8.5,8.5h-68.2
		c-2.9,0-5.8,0.5-8.5,1.5V218.7z M1477,286.9v-34.1c0-4.7,3.8-8.5,8.5-8.5h68.2c4.7,0,8.5,3.8,8.5,8.5v34.1
		c0,23.6-19.1,42.7-42.7,42.7S1477,310.5,1477,286.9z M1502.6,344.2L1502.6,344.2c11.1,3.2,23,3.2,34.1-0.1v0.1l-17.1,28.5
		L1502.6,344.2z M1508.4,387.1l-2.9,2.2h-16.4L1486,374l7.7-11.4L1508.4,387.1z M1545.6,362.6l7.7,11.4l-3.1,15.3h-16.4l-2.9-2.2
		L1545.6,362.6z M1434.3,406.4v85.3h-17.1v-79.3c0-10.5,6.3-19.9,16-23.8l35.4-14.2l3,14.8h-20.3
		C1442,389.3,1434.4,396.9,1434.3,406.4z M1587.9,491.7h-136.5v-85.3h136.5V491.7z M1622,491.7H1605v-85.3c0-9.4-7.7-17-17.1-17.1
		h-20.3l3-14.8l35.4,14.2c9.7,3.9,16.1,13.3,16,23.8V491.7z"/>
	<path class="st0" d="M1541,306.8l-8.5-14.8c-7.9,4.5-17.6,4.5-25.6,0l-8.5,14.8C1511.5,314.4,1527.8,314.4,1541,306.8z"/>
	<path class="st0" d="M1519.7,423.4c-14.1,0-25.6,11.5-25.6,25.6c0,14.1,11.5,25.6,25.6,25.6s25.6-11.5,25.6-25.6l0,0
		C1545.2,434.9,1533.8,423.4,1519.7,423.4z M1519.7,457.5c-4.7,0-8.5-3.8-8.5-8.5s3.8-8.5,8.5-8.5c4.7,0,8.5,3.8,8.5,8.5
		S1524.4,457.5,1519.7,457.5z"/>
	<path class="st0" d="M1339.3,372.7l-53.7-21.4l-4.9-7.3v-8.2c13.5-9.5,22.5-24.1,24.9-40.4h0.7c14.1,0,25.6-11.5,25.6-25.6
		c0-14.1-11.5-25.6-25.6-25.6h-1.5c-1.2-3.1-2.9-6-5.1-8.5c4.3-4.7,6.6-10.7,6.7-17.1v-25.6c0-4.7-3.8-8.5-8.5-8.5h-76.8
		c-18.8,0-34.1,15.3-34.1,34.1v25.6c-14.1,0-25.6,11.5-25.6,25.6c0,14.1,11.5,25.6,25.6,25.6h0.7c2.4,16.3,11.4,31,24.9,40.4v8.2
		l-4.9,7.3l-53.7,21.4c-16.2,6.5-26.8,22.2-26.8,39.7v87.8c0,4.7,3.8,8.5,8.5,8.5h221.8c4.7,0,8.5-3.8,8.5-8.5v-87.8
		C1366.1,395,1355.5,379.2,1339.3,372.7z M1306.4,261.3c4.7,0,8.5,3.8,8.5,8.5s-3.8,8.5-8.5,8.5V261.3z M1186.9,278.4
		c-4.7,0-8.5-3.8-8.5-8.5s3.8-8.5,8.5-8.5V278.4z M1204,218.7c0-9.4,7.7-17,17.1-17.1h68.2v17.1c0,4.7-3.8,8.5-8.5,8.5h-68.2
		c-2.9,0-5.8,0.5-8.5,1.5V218.7z M1204,286.9v-34.1c0-4.7,3.8-8.5,8.5-8.5h68.2c4.7,0,8.5,3.8,8.5,8.5v34.1
		c0,23.6-19.1,42.7-42.7,42.7S1204,310.5,1204,286.9z M1229.6,344.2L1229.6,344.2c11.1,3.2,23,3.2,34.1-0.1v0.1l-17.1,28.5
		L1229.6,344.2z M1235.4,387.1l-2.9,2.2h-16.4L1213,374l7.7-11.4L1235.4,387.1z M1272.6,362.6l7.7,11.4l-3.1,15.3h-16.4l-2.9-2.2
		L1272.6,362.6z M1161.3,406.4v85.3h-17.1v-79.3c0-10.5,6.3-19.9,16-23.8l35.4-14.2l3,14.8h-20.3
		C1169,389.3,1161.4,396.9,1161.3,406.4z M1314.9,491.7h-136.5v-85.3h136.5V491.7z M1349,491.7H1332v-85.3c0-9.4-7.7-17-17.1-17.1
		h-20.3l3-14.8l35.4,14.2c9.7,3.9,16.1,13.3,16,23.8V491.7z"/>
	<path class="st0" d="M1268,306.8l-8.5-14.8c-7.9,4.5-17.6,4.5-25.6,0l-8.5,14.8C1238.5,314.4,1254.8,314.4,1268,306.8z"/>
	<path class="st0" d="M1246.7,423.4c-14.1,0-25.6,11.5-25.6,25.6c0,14.1,11.5,25.6,25.6,25.6s25.6-11.5,25.6-25.6l0,0
		C1272.2,434.9,1260.8,423.4,1246.7,423.4z M1246.7,457.5c-4.7,0-8.5-3.8-8.5-8.5s3.8-8.5,8.5-8.5s8.5,3.8,8.5,8.5
		S1251.4,457.5,1246.7,457.5z"/>
	<path class="st0" d="M1519.7,65.1c-10.8,0.1-20.4,6.9-24.1,17.1h-35.7V31c0-22.4-38.6-34.1-76.8-34.1s-76.8,11.7-76.8,34.1v51.2
		h-35.7c-4.7-13.3-19.2-20.4-32.6-15.7c-13.3,4.7-20.4,19.2-15.7,32.6c2.6,7.4,8.4,13.2,15.7,15.7v52.7h17.1v-52.7
		c7.2-2.6,12.9-8.3,15.5-15.5h35.7v51.2c0,22.4,38.6,34.1,76.8,34.1s76.8-11.7,76.8-34.1V99.2h35.7c2.6,7.2,8.3,12.9,15.5,15.5v52.7
		h17.1v-52.7c13.3-4.8,20.2-19.5,15.3-32.8C1539.9,71.9,1530.3,65.2,1519.7,65.1z M1246.7,99.2c-4.7,0-8.5-3.8-8.5-8.5
		s3.8-8.5,8.5-8.5s8.5,3.8,8.5,8.5S1251.4,99.2,1246.7,99.2z M1442.9,150.4c0,4.9-20.9,17.1-59.7,17.1s-59.7-12.1-59.7-17.1v-37.5
		c18.7,8.5,39.2,12.5,59.7,11.9c20.6,0.6,41-3.5,59.7-11.9V150.4z M1442.9,90.7c0,4.9-20.9,17.1-59.7,17.1s-59.7-12.1-59.7-17.1
		V53.2c18.7,8.5,39.2,12.5,59.7,11.9c20.6,0.6,41-3.5,59.7-11.9V90.7z M1383.2,48c-38.8,0-59.7-12.1-59.7-17.1s20.9-17.1,59.7-17.1
		s59.7,12.1,59.7,17.1S1422,48,1383.2,48z M1519.7,99.2c-4.7,0-8.5-3.8-8.5-8.5s3.8-8.5,8.5-8.5c4.7,0,8.5,3.8,8.5,8.5
		S1524.4,99.2,1519.7,99.2z"/>
	<path class="st0" d="M1340.5,73.6h17.1v17.1h-17.1V73.6z"/>
	<path class="st0" d="M1374.6,82.2h17.1v17.1h-17.1V82.2z"/>
	<path class="st0" d="M1340.5,133.4h17.1v17.1h-17.1V133.4z"/>
	<path class="st0" d="M1374.6,141.9h17.1v17.1h-17.1V141.9z"/>
</g>
<g>
	<path class="st0" d="M1036.7,5.4H541.3c-4.2,0-7.5,3.4-7.5,7.5v364.1c0,4.2,3.4,7.5,7.5,7.5c0,0,0,0,0,0h215.3l-11.1,65.3
		c-28.7,4.7-49.7,29.4-49.8,58.4c0,4.2,3.4,7.5,7.5,7.5h171.5c4.2,0,7.5-3.4,7.5-7.5c-0.1-29-21.1-53.7-49.7-58.4l-11.1-65.3h215.3
		c4.2,0,7.5-3.4,7.5-7.5c0,0,0,0,0,0V13C1044.3,8.8,1040.9,5.4,1036.7,5.4z M668.8,297.7h240.5c4.2,0,7.5-3.4,7.5-7.5c0,0,0,0,0,0
		V46.3h86.5v271.5H574.7V46.3h86.5v243.8C661.2,294.3,664.6,297.7,668.8,297.7C668.8,297.7,668.8,297.7,668.8,297.7z M901.7,20.5
		v262.1H676.3V20.5H901.7z M866.6,500.8H711.5c3.7-21.1,22-36.6,43.5-36.6h68.1C844.5,464.2,862.9,479.6,866.6,500.8L866.6,500.8z
		 M817.1,449.1h-56.2l11-64.5h34.2L817.1,449.1z M1029.2,369.5H548.9v-349h112.4v10.8h-94c-4.2,0-7.5,3.4-7.5,7.5v286.6
		c0,4.2,3.4,7.5,7.5,7.5h443.7c4.2,0,7.5-3.4,7.5-7.5V38.8c0-4.2-3.4-7.5-7.5-7.5h-94V20.5h112.4V369.5z"/>
	<path class="st0" d="M985,133.9c4.2,0,7.5-3.4,7.5-7.5V89.2c0-4.2-3.4-7.5-7.5-7.5c-4.2,0-7.5,3.4-7.5,7.5v37.2
		C977.5,130.6,980.9,133.9,985,133.9z"/>
	<path class="st0" d="M850.2,232.6v-11c3.5,0.9,6.7,2.5,9.5,4.8l5.3-7.3c-4.2-3.6-9.3-5.8-14.8-6.3v-4.3h-6.7v4.3
		c-8.8,1.1-14.5,6.8-14.5,14.6c0,8.3,5.9,11.4,14.5,13.7v11.4c-4-1-7.7-2.9-10.8-5.7l-5.9,7c4.6,4.2,10.4,6.9,16.6,7.6v4.6h6.7v-4.3
		c10.2-0.8,16.1-6.6,16.1-15C866.3,237.9,859.9,234.8,850.2,232.6L850.2,232.6z M843.5,230.8c-3-1-4.3-2.3-4.3-4.6
		c0.1-2.4,1.9-4.4,4.3-4.7V230.8z M850.2,252.7v-10.2c4.2,1.2,5.9,2.4,5.9,5C856,250.1,854,252.2,850.2,252.7z"/>
	<path class="st0" d="M831.8,126.4h29.8c4.2,0,7.5-3.4,7.5-7.5c0-4.2-3.4-7.5-7.5-7.5h-29.8c-4.2,0-7.5,3.4-7.5,7.5
		C824.2,123,827.6,126.4,831.8,126.4z"/>
	<path class="st0" d="M831.8,159.1h29.8c4.2,0,7.5-3.4,7.5-7.5s-3.4-7.5-7.5-7.5h-29.8c-4.2,0-7.5,3.4-7.5,7.5
		S827.6,159.1,831.8,159.1z"/>
	<path class="st0" d="M831.8,93.7h29.8c4.2,0,7.5-3.4,7.5-7.5s-3.4-7.5-7.5-7.5h-29.8c-4.2,0-7.5,3.4-7.5,7.5S827.6,93.7,831.8,93.7
		z"/>
	<path class="st0" d="M831.8,61h29.8c4.2,0,7.5-3.4,7.5-7.5c0-4.2-3.4-7.5-7.5-7.5h-29.8c-4.2,0-7.5,3.4-7.5,7.5
		C824.2,57.6,827.6,61,831.8,61z"/>
	<path class="st0" d="M716.5,191.8h145c4.2,0,7.5-3.4,7.5-7.5s-3.4-7.5-7.5-7.5h-145c-4.2,0-7.5,3.4-7.5,7.5
		S712.4,191.8,716.5,191.8z"/>
	<path class="st0" d="M716.5,224.5h82.7c4.2,0,7.5-3.4,7.5-7.5s-3.4-7.5-7.5-7.5h-82.7c-4.2,0-7.5,3.4-7.5,7.5
		S712.4,224.5,716.5,224.5z"/>
	<path class="st0" d="M716.5,257.1h82.7c4.2,0,7.5-3.4,7.5-7.5s-3.4-7.5-7.5-7.5h-82.7c-4.2,0-7.5,3.4-7.5,7.5
		S712.4,257.1,716.5,257.1z"/>
	<path class="st0" d="M759.6,147.2c28,0,50.6-22.7,50.6-50.6s-22.7-50.6-50.6-50.6S709,68.6,709,96.6
		C709,124.5,731.7,147.1,759.6,147.2z M759.6,61c19.6,0,35.5,15.9,35.5,35.5s-15.9,35.5-35.5,35.5c-19.6,0-35.5-15.9-35.5-35.5l0,0
		C724.1,76.9,740,61,759.6,61z"/>
	<path class="st0" d="M745,115.5c2.9,2.9,7.7,2.9,10.7,0L783,88.3c3-2.9,3.1-7.7,0.2-10.7s-7.7-3.1-10.7-0.2
		c-0.1,0.1-0.1,0.1-0.2,0.2l-21.9,21.9l-3.5-3.5c-2.9-2.9-7.7-2.9-10.7,0c-2.9,2.9-2.9,7.7,0,10.7L745,115.5z"/>
</g>
<g>
	<path class="st1" d="M503.7,0.8H8.3c-4.2,0-7.5,3.4-7.5,7.5v364.1c0,4.2,3.4,7.5,7.5,7.5c0,0,0,0,0,0h215.3l-11.1,65.3
		c-28.7,4.7-49.7,29.4-49.8,58.4c0,4.2,3.4,7.5,7.5,7.5h171.5c4.2,0,7.5-3.4,7.5-7.5c-0.1-29-21.1-53.7-49.7-58.4L288.4,380h215.3
		c4.2,0,7.5-3.4,7.5-7.5c0,0,0,0,0,0V8.3C511.2,4.1,507.9,0.8,503.7,0.8z M135.7,293h240.5c4.2,0,7.5-3.4,7.5-7.5c0,0,0,0,0,0V41.7
		h86.5v271.5H41.7V41.7h86.5v243.8C128.2,289.6,131.6,293,135.7,293C135.7,293,135.7,293,135.7,293z M368.7,15.9v262.1H143.3V15.9
		H368.7z M333.6,496.1H178.5c3.7-21.1,22-36.6,43.5-36.6H290C311.5,459.6,329.9,475,333.6,496.1L333.6,496.1z M284.1,444.5h-56.2
		l11-64.5h34.2L284.1,444.5z M496.1,364.9H15.9v-349h112.4v10.8h-94c-4.2,0-7.5,3.4-7.5,7.5v286.6c0,4.2,3.4,7.5,7.5,7.5h443.7
		c4.2,0,7.5-3.4,7.5-7.5V34.2c0-4.2-3.4-7.5-7.5-7.5h-94V15.9h112.4V364.9z"/>
	<path class="st1" d="M452,129.3c4.2,0,7.5-3.4,7.5-7.5V84.5c0-4.2-3.4-7.5-7.5-7.5s-7.5,3.4-7.5,7.5v37.2
		C444.5,125.9,447.8,129.3,452,129.3z"/>
	<path class="st1" d="M317.1,227.9v-11c3.5,0.9,6.7,2.5,9.5,4.8l5.3-7.3c-4.2-3.6-9.3-5.8-14.8-6.3v-4.3h-6.7v4.3
		c-8.8,1.1-14.5,6.8-14.5,14.6c0,8.3,5.9,11.4,14.5,13.7v11.4c-4-1-7.7-2.9-10.8-5.7l-5.9,7c4.6,4.2,10.4,6.9,16.6,7.6v4.6h6.7v-4.3
		c10.2-0.8,16.1-6.6,16.1-15C333.3,233.2,326.9,230.2,317.1,227.9L317.1,227.9z M310.5,226.1c-3-1-4.3-2.3-4.3-4.6
		c0.1-2.4,1.9-4.4,4.3-4.7V226.1z M317.1,248.1v-10.2c4.2,1.2,5.9,2.4,5.9,5C323,245.5,321,247.6,317.1,248.1z"/>
	<path class="st1" d="M298.7,121.7h29.8c4.2,0,7.5-3.4,7.5-7.5c0-4.2-3.4-7.5-7.5-7.5h-29.8c-4.2,0-7.5,3.4-7.5,7.5
		C291.2,118.4,294.6,121.7,298.7,121.7z"/>
	<path class="st1" d="M298.7,154.4h29.8c4.2,0,7.5-3.4,7.5-7.5s-3.4-7.5-7.5-7.5h-29.8c-4.2,0-7.5,3.4-7.5,7.5
		S294.6,154.4,298.7,154.4z"/>
	<path class="st1" d="M298.7,89.1h29.8c4.2,0,7.5-3.4,7.5-7.5s-3.4-7.5-7.5-7.5h-29.8c-4.2,0-7.5,3.4-7.5,7.5S294.6,89.1,298.7,89.1
		z"/>
	<path class="st1" d="M298.7,56.4h29.8c4.2,0,7.5-3.4,7.5-7.5c0-4.2-3.4-7.5-7.5-7.5h-29.8c-4.2,0-7.5,3.4-7.5,7.5
		C291.2,53,294.6,56.4,298.7,56.4z"/>
	<path class="st1" d="M183.5,187.1h145c4.2,0,7.5-3.4,7.5-7.5s-3.4-7.5-7.5-7.5h-145c-4.2,0-7.5,3.4-7.5,7.5
		S179.3,187.1,183.5,187.1z"/>
	<path class="st1" d="M183.5,219.8h82.7c4.2,0,7.5-3.4,7.5-7.5s-3.4-7.5-7.5-7.5h-82.7c-4.2,0-7.5,3.4-7.5,7.5
		S179.3,219.8,183.5,219.8z"/>
	<path class="st1" d="M183.5,252.5h82.7c4.2,0,7.5-3.4,7.5-7.5s-3.4-7.5-7.5-7.5h-82.7c-4.2,0-7.5,3.4-7.5,7.5
		S179.3,252.5,183.5,252.5z"/>
	<path class="st1" d="M226.6,142.5c28,0,50.6-22.7,50.6-50.6s-22.7-50.6-50.6-50.6S176,64,176,91.9
		C176,119.9,198.6,142.5,226.6,142.5z M226.6,56.4c19.6,0,35.5,15.9,35.5,35.5s-15.9,35.5-35.5,35.5S191,111.5,191,91.9l0,0
		C191,72.3,206.9,56.4,226.6,56.4z"/>
	<path class="st1" d="M212,110.9c2.9,2.9,7.7,2.9,10.7,0l27.3-27.3c3-2.9,3.1-7.7,0.2-10.7c-2.9-3-7.7-3.1-10.7-0.2
		c-0.1,0.1-0.1,0.1-0.2,0.2l-21.9,21.9l-3.5-3.5c-2.9-2.9-7.7-2.9-10.7,0c-2.9,2.9-2.9,7.7,0,10.7L212,110.9z"/>
</g>
</svg>
