<?xml version="1.0" encoding="utf-8"?>
<!-- Generator: Adobe Illustrator 25.3.1, SVG Export Plug-In . SVG Version: 6.00 Build 0)  -->
<svg version="1.1" id="Capa_1" xmlns="http://www.w3.org/2000/svg" xmlns:xlink="http://www.w3.org/1999/xlink" x="0px" y="0px"
	 viewBox="0 0 512 512" style="enable-background:new 0 0 512 512;" xml:space="preserve">
<style type="text/css">
	.st0{fill:#FFFFFF;}
	.st1{fill:#253B49;}
</style>
<g>
	<g>
		<g>
			<path class="st0" d="M807.2-498.8v0.2c-8.2-7.5-20.6-17.8-37-28c-28.3-17.7-74.4-38.8-133.4-38.8l0,0c-8.3,0-15,6.7-15,15v51.6
				h-55c-8.6,0-15.6,7-15.6,15.6v342.6c0,9.1,7.3,16.4,16.4,16.4h476.5c10.5,0,19.1-8.5,19.1-19.1v-337.1c0-10.2-8.2-18.4-18.4-18.4
				H807.2z M571.6-144.5v-334.7h48.7v274.9c0,7.8,6.3,14.1,14.1,14.1h3.9c69.3,0,122.2,23.8,156.2,45.6L571.6-144.5L571.6-144.5z
				 M796.2-162.3c-12.2-9-23.6-16-32.5-21c-38.6-21.5-80-33.6-123.2-36.1v-325.7c39.7,2.6,77.5,14.3,112.6,35
				c21.6,12.8,36.4,25.7,43,32.1V-162.3L796.2-162.3z M1026.1-146.1H816.8v-330.8H1034c5,0,9.1,4.1,9.1,9.1v304.6
				C1043.1-153.7,1035.5-146.1,1026.1-146.1z"/>
		</g>
	</g>
</g>
<g>
	<path class="st0" d="M910.2-440.7c2.7,0,4.8-2.1,4.8-4.8s-2.2-4.8-4.8-4.8h0c-2.7,0-4.8,2.1-4.8,4.8S907.6-440.7,910.2-440.7z"/>
	<path class="st0" d="M924.5-440.7h14.4c2.7,0,4.8-2.1,4.8-4.8s-2.1-4.8-4.8-4.8h-14.4c-2.7,0-4.8,2.1-4.8,4.8
		S921.9-440.7,924.5-440.7z"/>
	<path class="st0" d="M982.3-464.7C982.3-464.7,982.3-464.7,982.3-464.7l-115.5,0c-15.9,0-28.9,12.9-28.9,28.9v245.3
		c0,18.6,15.1,33.7,33.7,33.7h105.8c18.6,0,33.7-15.1,33.7-33.7v-245.3C1011.1-451.7,998.2-464.7,982.3-464.7z M870-453.8h109
		c0,0,0,0,0,0c10,0,18.2,7.5,18.2,16.7H851.8v0C851.8-446.3,860-453.8,870-453.8L870-453.8z M975-186.9h-50.5h-50.5
		c-12.6,0-22.9-9.9-22.9-22.1v-4.4h73.4h73.4v4.4C997.9-196.8,987.6-186.9,975-186.9z M849.4-423.8h150.2v197.1H849.4V-423.8z
		 M977.4-166.5H871.6c-11.6,0-21.3-8.9-23.6-20.8c6.1,6.4,14.4,10.4,23.6,10.4h105.8c9.2,0,17.5-4,23.6-10.4
		C998.8-175.5,989-166.5,977.4-166.5z"/>
	<path class="st0" d="M934.8-200.2c0-5.7-4.6-10.3-10.3-10.3s-10.3,4.6-10.3,10.3s4.6,10.3,10.3,10.3S934.8-194.5,934.8-200.2z
		 M924.5-196.8c-1.9,0-3.4-1.5-3.4-3.4s1.5-3.4,3.4-3.4c1.9,0,3.4,1.5,3.4,3.4S926.4-196.8,924.5-196.8z"/>
	<path class="st0" d="M981.9-384.8c-0.2-0.6-0.6-1.1-1.1-1.6l-24-24c-0.5-0.5-1-0.8-1.6-1.1c-0.5-0.2-1-0.3-1.6-0.3
		c-0.1,0-0.2,0-0.3,0h-81.7c0,0,0,0-0.1,0c-2.7,0-4.8,2.1-4.8,4.8v163.5c0,2.7,2.2,4.8,4.8,4.8h105.8c2.7,0,4.8-2.2,4.8-4.8v-139.4
		C982.2-383.6,982.1-384.2,981.9-384.8z M951.9-401.7l20.2,20.2h-20.2V-401.7z M895.7-354.1h57.7c2.7,0,4.8,2.2,4.8,4.8
		c0,2.7-2.1,4.8-4.8,4.8h-57.7c-2.7,0-4.8-2.1-4.8-4.8C890.9-351.9,893-354.1,895.7-354.1z M895.7-339.7h57.7c2.7,0,4.8,2.2,4.8,4.8
		c0,2.7-2.1,4.8-4.8,4.8h-57.7c-2.7,0-4.8-2.2-4.8-4.8C890.9-337.5,893-339.7,895.7-339.7z M895.7-325.2h57.7c2.7,0,4.8,2.1,4.8,4.8
		c0,2.7-2.1,4.8-4.8,4.8h-57.7c-2.7,0-4.8-2.2-4.8-4.8C890.9-323.1,893-325.2,895.7-325.2z M895.7-310.8h28.9c2.7,0,4.8,2.1,4.8,4.8
		c0,2.7-2.2,4.8-4.8,4.8h-28.9c-2.7,0-4.8-2.2-4.8-4.8C890.9-308.7,893-310.8,895.7-310.8z M972.6-248.3h-96.2v-4.8h96.2V-248.3z
		 M972.6-262.7h-96.2v-4.8h96.2V-262.7z"/>
</g>
<g>
	<g>
		<g>
			<path class="st1" d="M256-498.8v0.2c-8.2-7.5-20.6-17.8-37-28c-28.3-17.7-74.4-38.8-133.4-38.8h0c-8.3,0-15,6.7-15,15v51.6h-55
				c-8.6,0-15.6,7-15.6,15.6v342.6c0,9.1,7.3,16.4,16.4,16.4h476.5c10.5,0,19.1-8.5,19.1-19.1v-337.1c0-10.2-8.2-18.4-18.4-18.4H256
				z M20.4-144.5v-334.7h48.7v274.9c0,7.8,6.3,14.1,14.1,14.1h3.9c69.3,0,122.2,23.8,156.2,45.6L20.4-144.5L20.4-144.5z M245-162.3
				c-12.2-9-23.6-16-32.5-21c-38.6-21.5-80-33.6-123.2-36.1v-325.7c39.7,2.6,77.5,14.3,112.6,35c21.6,12.8,36.4,25.7,43,32.1
				L245-162.3L245-162.3z M474.8-146.1H265.6v-330.8h217.2c5,0,9.1,4.1,9.1,9.1v304.6C491.9-153.7,484.2-146.1,474.8-146.1z"/>
		</g>
	</g>
</g>
<g>
	<path class="st1" d="M358.9-440.7c2.7,0,4.8-2.1,4.8-4.8s-2.2-4.8-4.8-4.8h0c-2.7,0-4.8,2.1-4.8,4.8S356.2-440.7,358.9-440.7z"/>
	<path class="st1" d="M373.2-440.7h14.4c2.7,0,4.8-2.1,4.8-4.8s-2.1-4.8-4.8-4.8h-14.4c-2.7,0-4.8,2.1-4.8,4.8
		S370.5-440.7,373.2-440.7z"/>
	<path class="st1" d="M430.9-464.7C430.9-464.7,430.9-464.7,430.9-464.7l-115.5,0c-15.9,0-28.9,12.9-28.9,28.9v245.3
		c0,18.6,15.1,33.7,33.7,33.7h105.8c18.6,0,33.7-15.1,33.7-33.7v-245.3C459.7-451.7,446.8-464.7,430.9-464.7z M318.6-453.8h109
		c0,0,0,0,0,0c10,0,18.2,7.5,18.2,16.7H300.4v0C300.4-446.3,308.6-453.8,318.6-453.8L318.6-453.8z M423.6-186.9h-50.5h-50.5
		c-12.6,0-22.9-9.9-22.9-22.1v-4.4h73.4h73.4v4.4C446.5-196.8,436.3-186.9,423.6-186.9z M298.1-423.8h150.2v197.1H298.1V-423.8z
		 M426.1-166.5H320.3c-11.6,0-21.3-8.9-23.6-20.8c6.1,6.4,14.4,10.4,23.6,10.4h105.8c9.2,0,17.5-4,23.6-10.4
		C447.4-175.5,437.7-166.5,426.1-166.5z"/>
	<path class="st1" d="M383.5-200.2c0-5.7-4.6-10.3-10.3-10.3c-5.7,0-10.3,4.6-10.3,10.3s4.6,10.3,10.3,10.3
		C378.8-189.9,383.5-194.5,383.5-200.2z M373.2-196.8c-1.9,0-3.4-1.5-3.4-3.4s1.5-3.4,3.4-3.4c1.9,0,3.4,1.5,3.4,3.4
		S375.1-196.8,373.2-196.8z"/>
	<path class="st1" d="M430.5-384.8c-0.2-0.6-0.6-1.1-1-1.6l-24-24c-0.5-0.5-1-0.8-1.6-1.1c-0.5-0.2-1-0.3-1.6-0.3
		c-0.1,0-0.2-0.1-0.3-0.1h-81.7c0,0,0,0,0,0c-2.7,0-4.8,2.1-4.8,4.8v163.5c0,2.7,2.1,4.8,4.8,4.8h105.8c2.7,0,4.8-2.1,4.8-4.8
		v-139.4C430.9-383.5,430.7-384.2,430.5-384.8z M400.5-401.6l20.2,20.2h-20.2V-401.6z M421.2-267.5v4.8h-96.2v-4.8H421.2z
		 M325.1-253.1h96.2v4.8h-96.2V-253.1z"/>
	<path class="st0" d="M344.3-344.5H402c2.7,0,4.8-2.1,4.8-4.8s-2.1-4.8-4.8-4.8h-57.7c-2.7,0-4.8,2.1-4.8,4.8
		S341.6-344.5,344.3-344.5L344.3-344.5z"/>
	<path class="st0" d="M344.3-330H402c2.7,0,4.8-2.1,4.8-4.8s-2.1-4.8-4.8-4.8h-57.7c-2.7,0-4.8,2.1-4.8,4.8S341.6-330,344.3-330
		L344.3-330z"/>
	<path class="st0" d="M344.3-315.6H402c2.7,0,4.8-2.1,4.8-4.8s-2.1-4.8-4.8-4.8h-57.7c-2.7,0-4.8,2.1-4.8,4.8
		S341.6-315.6,344.3-315.6L344.3-315.6z"/>
	<path class="st0" d="M373.2-310.8h-28.9c-2.7,0-4.8,2.1-4.8,4.8c0,2.7,2.1,4.8,4.8,4.8h28.9c2.7,0,4.8-2.1,4.8-4.8
		C378-308.7,375.8-310.8,373.2-310.8z"/>
</g>
<g>
	<path class="st0" d="M1019.3,174.5c-1.3,0-2.5,0-3.8,0.1c-5.4-17.7-15.8-33.1-29.4-44.8V39.6c0-15.8-12.9-28.7-28.7-28.7H643.3
		c-24.3,0-44.1,19.8-44.1,44.1v402.2c0,24.3,19.8,44.1,44.1,44.1h314.1c15.8,0,28.7-12.9,28.7-28.7V315h33.2
		c38.7,0,70.2-31.5,70.2-70.2C1089.6,206,1058,174.5,1019.3,174.5z M955,258.8v56h10.1v0.2h1.8v88.5c0,5.3-4.3,9.6-9.6,9.6h-82.8
		c-5.3,0-9.6,4.3-9.6,9.6c0,5.3,4.3,9.6,9.6,9.6h82.8c3.4,0,6.6-0.6,9.6-1.6v41.9c0,5.3-4.3,9.6-9.6,9.6H643.3
		c-13.7,0-24.9-11.2-24.9-24.9c0-13.7,11.2-24.9,24.9-24.9h149.4c5.3,0,9.6-4.3,9.6-9.6c0-5.3-4.3-9.6-9.6-9.6h-113V138.7
		c0-5.3-4.3-9.6-9.6-9.6c-5.3,0-9.6,4.3-9.6,9.6v274.4h-17.2c-9.2,0-17.8,2.9-24.9,7.7V54.9c0-13.7,11.2-24.9,24.9-24.9h314.1
		c5.3,0,9.6,4.3,9.6,9.6V117c-13.2-6.8-28.1-10.5-43.6-10.5c-43.4,0-81.5,29.4-92.9,70.7c-30,8.4-51.2,35.9-51.2,67.6
		c0,38.7,31.5,70.2,70.2,70.2h37.2v-0.2h20.6v-55.7h-36c19.8-21.8,39.5-43.7,59.3-65.5c20.3,21.8,40.7,43.5,61,65.2H955z"/>
	<path class="st0" d="M842.5,422.6c0,2.5-1,5-2.8,6.8c-1.8,1.8-4.2,2.8-6.8,2.8c-2.5,0-5-1-6.8-2.8c-1.8-1.8-2.8-4.3-2.8-6.8
		c0-2.5,1-5,2.8-6.8c1.8-1.8,4.2-2.8,6.8-2.8c2.5,0,5,1,6.8,2.8C841.5,417.6,842.5,420.1,842.5,422.6z"/>
</g>
<g>
	<path class="st1" d="M430.9,174.5c-1.3,0-2.5,0-3.8,0.1c-5.4-17.7-15.8-33.1-29.4-44.8V39.6c0-15.8-12.9-28.7-28.7-28.7H54.9
		c-24.3,0-44,19.8-44,44.1v402.2c0,24.3,19.8,44.1,44,44.1H369c15.8,0,28.7-12.9,28.7-28.7V315h33.2c38.7,0,70.2-31.5,70.2-70.2
		C501.2,206,469.7,174.5,430.9,174.5z M366.6,258.8v56h10.1v0.2h1.8v88.5c0,5.3-4.3,9.6-9.6,9.6h-82.8c-5.3,0-9.6,4.3-9.6,9.6
		c0,5.3,4.3,9.6,9.6,9.6H369c3.4,0,6.6-0.6,9.6-1.6v41.9c0,5.3-4.3,9.6-9.6,9.6H54.9C41.2,482,30,470.8,30,457.1
		c0-13.7,11.2-24.9,24.9-24.9h149.4c5.3,0,9.6-4.3,9.6-9.6c0-5.3-4.3-9.6-9.6-9.6h-113V138.7c0-5.3-4.3-9.6-9.6-9.6
		c-5.3,0-9.6,4.3-9.6,9.6v274.4H54.9c-9.2,0-17.8,2.9-24.9,7.7V54.9C30,41.2,41.2,30,54.9,30H369c5.3,0,9.6,4.3,9.6,9.6V117
		c-13.2-6.8-28.1-10.5-43.6-10.5c-43.4,0-81.5,29.4-92.9,70.7c-30,8.4-51.2,35.9-51.2,67.6c0,38.7,31.5,70.2,70.2,70.2h37.2v-0.2
		h20.6v-55.7h-36c19.8-21.8,39.5-43.7,59.3-65.5c20.3,21.8,40.7,43.5,61,65.2H366.6z"/>
	<path class="st1" d="M254.1,422.6c0,2.5-1,5-2.8,6.8c-1.8,1.8-4.3,2.8-6.8,2.8c-2.5,0-5-1-6.8-2.8c-1.8-1.8-2.8-4.3-2.8-6.8
		c0-2.5,1-5,2.8-6.8c1.8-1.8,4.2-2.8,6.8-2.8c2.5,0,5,1,6.8,2.8C253.1,417.6,254.1,420.1,254.1,422.6z"/>
</g>
</svg>
