<?xml version="1.0" encoding="utf-8"?>
<!-- Generator: Adobe Illustrator 25.3.1, SVG Export Plug-In . SVG Version: 6.00 Build 0)  -->
<svg version="1.1" id="Capa_1" xmlns="http://www.w3.org/2000/svg" xmlns:xlink="http://www.w3.org/1999/xlink" x="0px" y="0px"
	 viewBox="0 0 512 512" style="enable-background:new 0 0 512 512;" xml:space="preserve">
<style type="text/css">
	.st0{fill:#FFFFFF;}
	.st1{fill:#253B49;}
</style>
<g>
	<g>
		<g>
			<path class="st0" d="M218.8-498.8v0.2c-8.2-7.5-20.6-17.8-37-28c-28.3-17.7-74.4-38.8-133.4-38.8h0c-8.3,0-15,6.7-15,15v51.6h-55
				c-8.6,0-15.6,7-15.6,15.6v342.6c0,9.1,7.3,16.4,16.4,16.4h476.5c10.5,0,19.1-8.5,19.1-19.1v-337.1c0-10.2-8.2-18.4-18.4-18.4
				H218.8z M-16.8-144.5v-334.7h48.7v274.9c0,7.8,6.3,14.1,14.1,14.1H50c69.3,0,122.2,23.8,156.2,45.6L-16.8-144.5L-16.8-144.5z
				 M207.8-162.3c-12.2-9-23.6-16-32.5-21c-38.6-21.5-80-33.6-123.2-36.1v-325.7c39.7,2.6,77.5,14.3,112.6,35
				c21.6,12.8,36.4,25.7,43,32.1L207.8-162.3L207.8-162.3z M437.7-146.1H228.4v-330.8h217.2c5,0,9.1,4.1,9.1,9.1v304.6
				C454.7-153.7,447.1-146.1,437.7-146.1z"/>
		</g>
	</g>
</g>
<g>
	<path class="st0" d="M321.8-440.7c2.7,0,4.8-2.1,4.8-4.8s-2.2-4.8-4.8-4.8h0c-2.7,0-4.8,2.1-4.8,4.8S319.2-440.7,321.8-440.7z"/>
	<path class="st0" d="M336.1-440.7h14.4c2.7,0,4.8-2.1,4.8-4.8s-2.1-4.8-4.8-4.8h-14.4c-2.7,0-4.8,2.1-4.8,4.8
		S333.5-440.7,336.1-440.7z"/>
	<path class="st0" d="M393.9-464.7C393.9-464.7,393.9-464.7,393.9-464.7l-115.5,0c-15.9,0-28.9,12.9-28.9,28.9v245.3
		c0,18.6,15.1,33.7,33.7,33.7H389c18.6,0,33.7-15.1,33.7-33.7v-245.3C422.7-451.7,409.8-464.7,393.9-464.7z M281.6-453.8h109
		c0,0,0,0,0,0c10,0,18.2,7.5,18.2,16.7H263.4v0C263.4-446.3,271.6-453.8,281.6-453.8L281.6-453.8z M386.6-186.9h-50.5h-50.5
		c-12.6,0-22.9-9.9-22.9-22.1v-4.4h73.4h73.4v4.4C409.5-196.8,399.2-186.9,386.6-186.9z M261-423.8h150.2v197.1H261V-423.8z
		 M389-166.5H283.2c-11.6,0-21.3-8.9-23.6-20.8c6.1,6.4,14.4,10.4,23.6,10.4H389c9.2,0,17.5-4,23.6-10.4
		C410.4-175.5,400.7-166.5,389-166.5z"/>
	<path class="st0" d="M346.4-200.2c0-5.7-4.6-10.3-10.3-10.3c-5.7,0-10.3,4.6-10.3,10.3s4.6,10.3,10.3,10.3
		C341.8-189.9,346.4-194.5,346.4-200.2z M336.1-196.8c-1.9,0-3.4-1.5-3.4-3.4s1.5-3.4,3.4-3.4c1.9,0,3.4,1.5,3.4,3.4
		S338-196.8,336.1-196.8z"/>
	<path class="st0" d="M393.5-384.8c-0.2-0.6-0.6-1.1-1.1-1.6l-24-24c-0.5-0.5-1-0.8-1.6-1.1c-0.5-0.2-1-0.3-1.6-0.3
		c-0.1,0-0.2,0-0.3,0h-81.7c0,0,0,0-0.1,0c-2.7,0-4.8,2.1-4.8,4.8v163.5c0,2.7,2.2,4.8,4.8,4.8H389c2.7,0,4.8-2.2,4.8-4.8v-139.4
		C393.8-383.6,393.7-384.2,393.5-384.8z M363.5-401.7l20.2,20.2h-20.2V-401.7z M307.3-354.1H365c2.7,0,4.8,2.2,4.8,4.8
		c0,2.7-2.1,4.8-4.8,4.8h-57.7c-2.7,0-4.8-2.1-4.8-4.8C302.5-351.9,304.6-354.1,307.3-354.1z M307.3-339.7H365
		c2.7,0,4.8,2.2,4.8,4.8c0,2.7-2.1,4.8-4.8,4.8h-57.7c-2.7,0-4.8-2.2-4.8-4.8C302.5-337.5,304.6-339.7,307.3-339.7z M307.3-325.2
		H365c2.7,0,4.8,2.1,4.8,4.8c0,2.7-2.1,4.8-4.8,4.8h-57.7c-2.7,0-4.8-2.2-4.8-4.8C302.5-323.1,304.6-325.2,307.3-325.2z
		 M307.3-310.8h28.9c2.7,0,4.8,2.1,4.8,4.8c0,2.7-2.2,4.8-4.8,4.8h-28.9c-2.7,0-4.8-2.2-4.8-4.8
		C302.5-308.7,304.6-310.8,307.3-310.8z M384.2-248.3H288v-4.8h96.2V-248.3z M384.2-262.7H288v-4.8h96.2V-262.7z"/>
</g>
<g>
	<g>
		<g>
			<path class="st1" d="M-332.4-498.8v0.2c-8.2-7.5-20.6-17.8-37-28c-28.3-17.7-74.4-38.8-133.4-38.8l0,0c-8.3,0-15,6.7-15,15v51.6
				h-55c-8.6,0-15.6,7-15.6,15.6v342.6c0,9.1,7.3,16.4,16.4,16.4h476.5c10.5,0,19.1-8.5,19.1-19.1v-337.1c0-10.2-8.2-18.4-18.4-18.4
				H-332.4z M-568-144.5v-334.7h48.7v274.9c0,7.8,6.3,14.1,14.1,14.1h3.9c69.3,0,122.2,23.8,156.2,45.6L-568-144.5L-568-144.5z
				 M-343.4-162.3c-12.2-9-23.6-16-32.5-21c-38.6-21.5-80-33.6-123.2-36.1v-325.7c39.7,2.6,77.5,14.3,112.6,35
				c21.6,12.8,36.4,25.7,43,32.1L-343.4-162.3L-343.4-162.3z M-113.5-146.1h-209.3v-330.8h217.2c5,0,9.1,4.1,9.1,9.1v304.6
				C-96.5-153.7-104.1-146.1-113.5-146.1z"/>
		</g>
	</g>
</g>
<g>
	<path class="st1" d="M-229.5-440.7c2.7,0,4.8-2.1,4.8-4.8s-2.2-4.8-4.8-4.8h0c-2.7,0-4.8,2.1-4.8,4.8S-232.2-440.7-229.5-440.7z"/>
	<path class="st1" d="M-215.2-440.7h14.4c2.7,0,4.8-2.1,4.8-4.8s-2.1-4.8-4.8-4.8h-14.4c-2.7,0-4.8,2.1-4.8,4.8
		S-217.9-440.7-215.2-440.7z"/>
	<path class="st1" d="M-157.4-464.7C-157.5-464.7-157.5-464.7-157.4-464.7l-115.5,0c-15.9,0-28.9,12.9-28.9,28.9v245.3
		c0,18.6,15.1,33.7,33.7,33.7h105.8c18.6,0,33.7-15.1,33.7-33.7v-245.3C-128.7-451.7-141.6-464.7-157.4-464.7z M-269.8-453.8h109
		c0,0,0,0,0,0c10,0,18.2,7.5,18.2,16.7h-145.4v0C-287.9-446.3-279.8-453.8-269.8-453.8L-269.8-453.8z M-164.8-186.9h-50.5h-50.5
		c-12.6,0-22.9-9.9-22.9-22.1v-4.4h73.4h73.4v4.4C-141.8-196.8-152.1-186.9-164.8-186.9z M-290.3-423.8h150.2v197.1h-150.2V-423.8z
		 M-162.3-166.5h-105.8c-11.6,0-21.3-8.9-23.6-20.8c6.1,6.4,14.4,10.4,23.6,10.4h105.8c9.2,0,17.5-4,23.6-10.4
		C-141-175.5-150.7-166.5-162.3-166.5z"/>
	<path class="st1" d="M-204.9-200.2c0-5.7-4.6-10.3-10.3-10.3c-5.7,0-10.3,4.6-10.3,10.3s4.6,10.3,10.3,10.3
		C-209.5-189.9-204.9-194.5-204.9-200.2z M-215.2-196.8c-1.9,0-3.4-1.5-3.4-3.4s1.5-3.4,3.4-3.4c1.9,0,3.4,1.5,3.4,3.4
		S-213.3-196.8-215.2-196.8z"/>
	<path class="st1" d="M-157.9-384.8c-0.2-0.6-0.6-1.1-1-1.6l-24-24c-0.5-0.5-1-0.8-1.6-1.1c-0.5-0.2-1-0.3-1.6-0.3
		c-0.1,0-0.2-0.1-0.3-0.1h-81.7c0,0,0,0,0,0c-2.7,0-4.8,2.1-4.8,4.8v163.5c0,2.7,2.1,4.8,4.8,4.8h105.8c2.7,0,4.8-2.1,4.8-4.8
		v-139.4C-157.5-383.5-157.6-384.2-157.9-384.8z M-187.8-401.6l20.2,20.2h-20.2V-401.6z M-167.1-267.5v4.8h-96.2v-4.8H-167.1z
		 M-263.3-253.1h96.2v4.8h-96.2V-253.1z"/>
	<path class="st0" d="M-244.1-344.5h57.7c2.7,0,4.8-2.1,4.8-4.8s-2.1-4.8-4.8-4.8h-57.7c-2.7,0-4.8,2.1-4.8,4.8
		S-246.7-344.5-244.1-344.5L-244.1-344.5z"/>
	<path class="st0" d="M-244.1-330h57.7c2.7,0,4.8-2.1,4.8-4.8s-2.1-4.8-4.8-4.8h-57.7c-2.7,0-4.8,2.1-4.8,4.8S-246.7-330-244.1-330
		L-244.1-330z"/>
	<path class="st0" d="M-244.1-315.6h57.7c2.7,0,4.8-2.1,4.8-4.8s-2.1-4.8-4.8-4.8h-57.7c-2.7,0-4.8,2.1-4.8,4.8
		S-246.7-315.6-244.1-315.6L-244.1-315.6z"/>
	<path class="st0" d="M-215.2-310.8h-28.9c-2.7,0-4.8,2.1-4.8,4.8c0,2.7,2.1,4.8,4.8,4.8h28.9c2.7,0,4.8-2.1,4.8-4.8
		C-210.4-308.7-212.6-310.8-215.2-310.8z"/>
</g>
<g>
	<path class="st0" d="M430.9,174.5c-1.3,0-2.5,0-3.8,0.1c-5.4-17.7-15.8-33.1-29.4-44.8V39.6c0-15.8-12.9-28.7-28.7-28.7H54.9
		c-24.3,0-44.1,19.8-44.1,44.1v402.2c0,24.3,19.8,44.1,44.1,44.1H369c15.8,0,28.7-12.9,28.7-28.7V315h33.2
		c38.7,0,70.2-31.5,70.2-70.2C501.2,206,469.7,174.5,430.9,174.5z M366.6,258.8v56h10.1v0.2h1.8v88.5c0,5.3-4.3,9.6-9.6,9.6h-82.8
		c-5.3,0-9.6,4.3-9.6,9.6c0,5.3,4.3,9.6,9.6,9.6H369c3.4,0,6.6-0.6,9.6-1.6v41.9c0,5.3-4.3,9.6-9.6,9.6H54.9
		C41.2,482,30,470.8,30,457.1c0-13.7,11.2-24.9,24.9-24.9h149.4c5.3,0,9.6-4.3,9.6-9.6c0-5.3-4.3-9.6-9.6-9.6h-113V138.7
		c0-5.3-4.3-9.6-9.6-9.6c-5.3,0-9.6,4.3-9.6,9.6v274.4H54.9c-9.2,0-17.8,2.9-24.9,7.7V54.9C30,41.2,41.2,30,54.9,30H369
		c5.3,0,9.6,4.3,9.6,9.6V117c-13.2-6.8-28.1-10.5-43.6-10.5c-43.4,0-81.5,29.4-92.9,70.7c-30,8.4-51.2,35.9-51.2,67.6
		c0,38.7,31.5,70.2,70.2,70.2h37.2v-0.2h20.6v-55.7h-36c19.8-21.8,39.5-43.7,59.3-65.5c20.3,21.8,40.7,43.5,61,65.2H366.6z"/>
	<path class="st0" d="M254.1,422.6c0,2.5-1,5-2.8,6.8c-1.8,1.8-4.2,2.8-6.8,2.8c-2.5,0-5-1-6.8-2.8c-1.8-1.8-2.8-4.3-2.8-6.8
		c0-2.5,1-5,2.8-6.8c1.8-1.8,4.2-2.8,6.8-2.8c2.5,0,5,1,6.8,2.8C253.1,417.6,254.1,420.1,254.1,422.6z"/>
</g>
<g>
	<path class="st1" d="M-157.5,174.5c-1.3,0-2.5,0-3.8,0.1c-5.4-17.7-15.8-33.1-29.4-44.8V39.6c0-15.8-12.9-28.7-28.7-28.7h-314.1
		c-24.3,0-44,19.8-44,44.1v402.2c0,24.3,19.8,44.1,44,44.1h314.1c15.8,0,28.7-12.9,28.7-28.7V315h33.2c38.7,0,70.2-31.5,70.2-70.2
		C-87.2,206-118.7,174.5-157.5,174.5z M-221.8,258.8v56h10.1v0.2h1.8v88.5c0,5.3-4.3,9.6-9.6,9.6h-82.8c-5.3,0-9.6,4.3-9.6,9.6
		c0,5.3,4.3,9.6,9.6,9.6h82.8c3.4,0,6.6-0.6,9.6-1.6v41.9c0,5.3-4.3,9.6-9.6,9.6h-314.1c-13.7,0-24.9-11.2-24.9-24.9
		c0-13.7,11.2-24.9,24.9-24.9h149.4c5.3,0,9.6-4.3,9.6-9.6c0-5.3-4.3-9.6-9.6-9.6h-113V138.7c0-5.3-4.3-9.6-9.6-9.6
		c-5.3,0-9.6,4.3-9.6,9.6v274.4h-17.2c-9.2,0-17.8,2.9-24.9,7.7V54.9c0-13.7,11.2-24.9,24.9-24.9h314.1c5.3,0,9.6,4.3,9.6,9.6V117
		c-13.2-6.8-28.1-10.5-43.6-10.5c-43.4,0-81.5,29.4-92.9,70.7c-30,8.4-51.2,35.9-51.2,67.6c0,38.7,31.5,70.2,70.2,70.2h37.2v-0.2
		h20.6v-55.7h-36c19.8-21.8,39.5-43.7,59.3-65.5c20.3,21.8,40.7,43.5,61,65.2H-221.8z"/>
	<path class="st1" d="M-334.3,422.6c0,2.5-1,5-2.8,6.8c-1.8,1.8-4.3,2.8-6.8,2.8c-2.5,0-5-1-6.8-2.8c-1.8-1.8-2.8-4.3-2.8-6.8
		c0-2.5,1-5,2.8-6.8c1.8-1.8,4.2-2.8,6.8-2.8c2.5,0,5,1,6.8,2.8C-335.3,417.6-334.3,420.1-334.3,422.6z"/>
</g>
</svg>
